<?xml version="1.0" encoding="UTF-8" standalone="no"?>
<!-- Created with Inkscape (http://www.inkscape.org/) -->

<svg
   xmlns:dc="http://purl.org/dc/elements/1.1/"
   xmlns:cc="http://creativecommons.org/ns#"
   xmlns:rdf="http://www.w3.org/1999/02/22-rdf-syntax-ns#"
   xmlns:svg="http://www.w3.org/2000/svg"
   xmlns="http://www.w3.org/2000/svg"
   xmlns:sodipodi="http://sodipodi.sourceforge.net/DTD/sodipodi-0.dtd"
   xmlns:inkscape="http://www.inkscape.org/namespaces/inkscape"
   width="206.62698mm"
   height="69.702705mm"
   viewBox="0 0 206.62698 69.702705"
   version="1.1"
   id="svg8334"
   inkscape:version="0.92.2 5c3e80d, 2017-08-06"
   sodipodi:docname="bgnoise2.svg">
  <defs
     id="defs8328">
    <clipPath
       id="clipPath8441"
       clipPathUnits="userSpaceOnUse">
      <path
         inkscape:connector-curvature="0"
         id="path8439"
         d="M 0,3.15 H 180 V 176.86 H 0 Z" />
    </clipPath>
    <clipPath
       id="clipPath8453"
       clipPathUnits="userSpaceOnUse">
      <path
         inkscape:connector-curvature="0"
         id="path8451"
         d="M 39.03,35.88 H 174.52 V 171.37 H 39.03 Z" />
    </clipPath>
    <clipPath
       id="clipPath8820"
       clipPathUnits="userSpaceOnUse">
      <path
         inkscape:connector-curvature="0"
         id="path8818"
         d="M 0,3.15 H 180 V 176.86 H 0 Z" />
    </clipPath>
    <clipPath
       id="clipPath8832"
       clipPathUnits="userSpaceOnUse">
      <path
         inkscape:connector-curvature="0"
         id="path8830"
         d="M 39.03,35.88 H 174.52 V 171.37 H 39.03 Z" />
    </clipPath>
    <clipPath
       id="clipPath9199"
       clipPathUnits="userSpaceOnUse">
      <path
         inkscape:connector-curvature="0"
         id="path9197"
         d="M 0,3.15 H 180 V 176.86 H 0 Z" />
    </clipPath>
    <clipPath
       id="clipPath9211"
       clipPathUnits="userSpaceOnUse">
      <path
         inkscape:connector-curvature="0"
         id="path9209"
         d="M 39.03,35.88 H 174.52 V 171.37 H 39.03 Z" />
    </clipPath>
  </defs>
  <sodipodi:namedview
     id="base"
     pagecolor="#ffffff"
     bordercolor="#666666"
     borderopacity="1.0"
     inkscape:pageopacity="0.0"
     inkscape:pageshadow="2"
     inkscape:zoom="0.35"
     inkscape:cx="449.67839"
     inkscape:cy="72.949518"
     inkscape:document-units="mm"
     inkscape:current-layer="layer1"
     showgrid="false"
     fit-margin-top="0"
     fit-margin-left="0"
     fit-margin-right="0"
     fit-margin-bottom="0"
     inkscape:window-width="1280"
     inkscape:window-height="702"
     inkscape:window-x="0"
     inkscape:window-y="1"
     inkscape:window-maximized="1" />
  <metadata
     id="metadata8331">
    <rdf:RDF>
      <cc:Work
         rdf:about="">
        <dc:format>image/svg+xml</dc:format>
        <dc:type
           rdf:resource="http://purl.org/dc/dcmitype/StillImage" />
        <dc:title></dc:title>
      </cc:Work>
    </rdf:RDF>
  </metadata>
  <g
     inkscape:label="Layer 1"
     inkscape:groupmode="layer"
     id="layer1"
     transform="translate(143.54586,-98.431858)">
    <text
       xml:space="preserve"
       style="font-style:normal;font-weight:normal;font-size:10.58333302px;line-height:1.25;font-family:sans-serif;letter-spacing:0px;word-spacing:0px;fill:#000000;fill-opacity:1;stroke:none;stroke-width:0.26458332"
       x="-144.01198"
       y="104.32848"
       id="text5272"><tspan
         sodipodi:role="line"
         id="tspan5270"
         x="-144.01198"
         y="104.32848"
         style="font-size:7.76111126px;stroke-width:0.26458332">a</tspan></text>
    <text
       xml:space="preserve"
       style="font-style:normal;font-weight:normal;font-size:10.58333302px;line-height:1.25;font-family:sans-serif;letter-spacing:0px;word-spacing:0px;fill:#000000;fill-opacity:1;stroke:none;stroke-width:0.26458332"
       x="-72.687233"
       y="104.32848"
       id="text5272-3"><tspan
         sodipodi:role="line"
         id="tspan5270-8"
         x="-72.687233"
         y="104.32848"
         style="font-size:7.76111126px;stroke-width:0.26458332">b</tspan></text>
    <text
       xml:space="preserve"
       style="font-style:normal;font-weight:normal;font-size:10.58333302px;line-height:1.25;font-family:sans-serif;letter-spacing:0px;word-spacing:0px;fill:#000000;fill-opacity:1;stroke:none;stroke-width:0.26458332"
       x="-0.84709871"
       y="104.32848"
       id="text5272-0"><tspan
         sodipodi:role="line"
         id="tspan5270-2"
         x="-0.84709871"
         y="104.32848"
         style="font-size:7.76111126px;stroke-width:0.26458332">c</tspan></text>
    <g
       transform="matrix(0.35277777,0,0,-0.35277777,-143.54586,169.24581)"
       inkscape:label="bench_sim.pr.SIM_SET_FIX11.HMM_SET8.cs"
       id="g8411">
      <g
         id="g8413" />
      <g
         id="g8415" />
      <g
         id="g8417" />
      <g
         id="g8419" />
      <g
         id="g8421" />
      <g
         id="g8423" />
      <g
         id="g8425" />
      <g
         id="g8427" />
      <g
         id="g8429" />
      <g
         id="g8431" />
      <g
         id="g8433" />
      <g
         id="g8435">
        <g
           clip-path="url(#clipPath8441)"
           id="g8437">
          <path
             inkscape:connector-curvature="0"
             id="path8443"
             style="fill:#ffffff;fill-opacity:1;fill-rule:nonzero;stroke:#ffffff;stroke-width:1.07000005;stroke-linecap:round;stroke-linejoin:round;stroke-miterlimit:10;stroke-dasharray:none;stroke-opacity:1"
             d="M 0,3.15 H 180 V 176.86 H 0 Z" />
        </g>
      </g>
      <g
         id="g8445" />
      <g
         id="g8447">
        <g
           clip-path="url(#clipPath8453)"
           id="g8449">
          <path
             inkscape:connector-curvature="0"
             id="path8455"
             style="fill:#ffffff;fill-opacity:1;fill-rule:nonzero;stroke:none"
             d="M 39.03,35.88 H 174.52 V 171.37 H 39.03 Z" />
          <path
             inkscape:connector-curvature="0"
             id="path8457"
             style="fill:none;stroke:#008b45;stroke-width:1.60000002;stroke-linecap:butt;stroke-linejoin:round;stroke-miterlimit:1;stroke-dasharray:none;stroke-opacity:1"
             d="m 46.68,152.11 v 0 l 0.07,0.54 0.02,0.12 0.01,0.13 v 0 l 0.04,0.24 0.02,0.12 0.02,0.11 0.01,0.11 0.04,0.22 0.05,0.32 0.04,0.2 0.02,0.09 0.07,0.38 v 0 l 0.05,0.26 v 0 0 l 0.03,0.17 v 0 l 0.04,0.16 0.02,0.08 0.03,0.16 v 0 l 0.04,0.15 0.02,0.07 v 0 l 0.05,0.21 0.05,0.21 0.13,0.44 v 0 0 l 0.05,0.18 0.07,0.22 0.06,0.16 0.03,0.11 0.02,0.05 0.09,0.24 0.07,-0.51 0.05,0.15 0.02,0.04 0.02,0.05 0.09,0.23 0.01,0.04 0.04,0.09 0.02,-0.6 0.05,0.13 0.05,0.13 0.07,0.17 0.04,0.08 0.07,0.15 0.07,0.15 0.07,0.14 0.06,0.11 0.03,0.07 0.04,0.06 0.09,0.16 0.07,-0.4 0.07,0.13 0.09,0.15 0.01,0.03 0.04,0.06 0.07,0.12 0.07,0.11 0.09,0.13 0.12,0.18 0.18,0.24 0.11,0.13 0.03,0.05 0.09,-0.32 0.16,-0.21 0.06,0.07 0.01,0.02 0.07,0.08 0.13,0.15 v 0 l 0.11,0.12 0.08,0.09 0.18,-0.18 0.16,-0.19 0.09,0.1 0.14,-0.2 0.07,-0.26 0.09,-0.23 0.14,0.15 0.15,0.14 0.14,0.14 0.14,0.13 0.19,0.17 0.09,0.08 0.13,-0.18 0.18,0.14 0.19,-0.11 0.11,0.08 0.16,0.12 0.09,0.07 0.26,-0.06 0.23,-0.08 0.11,-0.17 0.14,-0.13 0.25,-0.72 0.23,-0.05 0.23,0.17 0.25,0.17 0.14,-0.31 0.27,0.18 0.12,-0.11 0.25,0.16 0.3,-0.18 0.34,0.2 0.41,-0.63 0.35,-0.61 0.39,-0.07 0.32,-0.27 0.61,-0.07 0.39,-0.19 0.46,-0.14 0.48,0.01 0.37,-0.05 0.55,0.05 0.87,-0.03 0.67,-0.12 0.68,-0.22 0.78,0.27 0.85,-0.03 0.78,0.14 0.77,0.21 0.79,-0.14 0.96,-0.41 0.64,-0.17 0.98,-0.51 1.13,0.04 0.91,-0.47 1.15,-0.48 1.24,-0.4 1.09,-0.24 1.03,-0.36 1.7,0.01 1.3,-0.76 0.95,-0.76 1.78,-0.19 1.65,-0.94 1.38,-1.02 1.03,-0.97 2.22,-1.07 1.69,-2.08 1.29,-2.11 2.28,-2.8 2.32,-3.67 1.28,-3.65 v 0" />
          <path
             inkscape:connector-curvature="0"
             id="path8459"
             style="fill:none;stroke:#7f7f7f;stroke-width:1.60000002;stroke-linecap:butt;stroke-linejoin:round;stroke-miterlimit:1;stroke-dasharray:none;stroke-opacity:1"
             d="m 45.81,88.9 v 0.52 l 0.02,-0.7 v 0.49 0 0 0 l 0.05,-0.07 v 0.46 0.48 0 0 0 l 0.03,-0.4 v 0 l 0.04,0.95 v 0.45 l 0.02,0.23 0.03,-0.42 v 0.42 l 0.02,-1.03 0.04,-0.72 v 0.38 0.77 0.4 l 0.01,-1.33 v 0 l 0.02,-0.86 v 0.35 0.36 0.73 l 0.02,-0.87 0.04,1.1 0.03,-0.98 v 1.35 l 0.02,-1.8 v 0 0.64 l 0.02,-0.76 0.01,0.5 v 0 l 0.04,0.66 0.04,0.65 0.01,-0.45 v 0 l 0.02,-0.98 v 0.56 l 0.02,-0.68 0.02,0.44 0.01,0.44 0.02,-1.44 v 0.52 l 0.02,-0.36 0.02,0.41 v 0 l 0.02,0.16 v 0 l 0.05,0.69 0.02,0.13 0.03,-1.61 v 0.69 l 0.02,-1.21 0.09,0.91 0.03,0.05 0.02,0.13 0.04,0.25 0.05,0.15 0.04,0.43 0.05,0.33 v 0.6 l 0.02,-0.69 0.05,0.51 0.04,0.01 0.01,-0.28 0.02,0.29 0.14,1.44 0.13,1.07 0.01,-0.1 0.06,0.56 0.05,0.19 0.04,-0.71 v 0.5 l 0.09,0.31 0.08,0.45 0.04,0.43 0.02,-0.42 0.07,0.83 0.09,1.02 0.09,0.68 0.1,0.68 0.06,-0.51 0.03,-0.23 0.09,0.75 0.07,-0.16 0.13,0.9 0.07,0.24 0.14,0.73 0.14,0.56 0.07,0.19 0.04,0.03 0.17,0.53 0.04,-0.35 0.16,0.72 0.07,-0.32 0.21,0.71 0.23,0.66 0.16,0.72 0.11,0.01 0.16,0.56 0.09,0.21 0.14,-0.31 0.21,0.31 0.27,0.87 0.11,-0.12 0.32,0.97 0.33,0.72 0.32,0.93 0.27,0.21 0.32,0.75 0.35,1.01 0.3,0.51 0.27,-0.05 0.32,0.14 0.44,0.85 0.34,-0.21 0.39,-0.02 0.34,-0.04 0.58,0.03 0.54,0.01 0.62,0.58 0.53,0.04 0.48,-0.36 1.08,0.87 1,0.34 1.13,0.8 1.07,-0.51 1.35,-0.05 1.56,-0.49 1.68,-0.87 2.13,0.19 2.74,-0.57 3.71,-0.45 3.87,-1.49 5.96,-1.65 8.47,-2.7 12.76,-3.97 21.44,-5.47 40.32,-8.1 v 0 0 0 0" />
          <path
             inkscape:connector-curvature="0"
             id="path8461"
             style="fill:none;stroke:#ff4500;stroke-width:1.60000002;stroke-linecap:butt;stroke-linejoin:round;stroke-miterlimit:1;stroke-dasharray:none;stroke-opacity:1"
             d="m 61.71,139.39 v 0 0 0 0 0 0 0 0 0 0 0 0 0 0 0 0 0 0 0 0 0 0 0 0 0 0 0 0 0 0 0 0 0 0 0 0 0 0 0 0 0 0 0 0 0 0 0 0 0 0 0 0 0 0 0 0 0 0 0 0 0 0 0 0 0 0 0 0 0 0 0 0 0 0 0 0 0 0 0 0 0 0 0 0 0 0 0 0 0 0 0 0 0 0 0 0 0 0 0 0 0 0 0 0 0 0 0 0 0 0 0 0 0 0 0 0 0 0 0 0 0 0 0 0 0 0 0 0 0 0 0 0 0 0 0 0 0 0 0 0 0 0 0 0 0 0 0 0 0 0 0 0 0 0 0 0 0 0 0 0 0 0 0 0 0 0 0 0 l 0.02,-0.64 v 0 0 l 0.16,0.2 2.54,2.66 3.4,2.62 1.26,0.04 1.46,-4.55 1.12,-2.11 0.97,-3.47 0.82,-0.45 0.8,-1.17 0.76,-1.35 0.96,-0.27 0.89,-0.95 0.73,-1.17 1.24,-1.54 1.22,-0.95 1.35,-1.12 1.16,-0.7 1.47,-1.99 1.4,-1.35 1.39,-1.72 1.63,-2.18 1.7,-2.91 1.83,-2.46 v 0 0 0 0" />
          <path
             inkscape:connector-curvature="0"
             id="path8463"
             style="fill:none;stroke:#ffa500;stroke-width:1.60000002;stroke-linecap:butt;stroke-linejoin:round;stroke-miterlimit:1;stroke-dasharray:none;stroke-opacity:1"
             d="m 61.36,138.28 0.95,-1.3 0.61,0.3 0.69,0.46 0.8,-3.57 0.67,0.6 0.98,-2.76 1.05,-0.28 0.72,-0.64 0.77,-1.98 1.13,-0.55 1.21,-1.69 1.08,-2.09 1.55,-2.87 2.52,-2.28 2.59,-0.83 2.2,-2.33 2.66,-1.76 2.56,-2.17 2.98,-1.61 2.91,0.93 v 0 0 0 0 0 0 0" />
          <path
             inkscape:connector-curvature="0"
             id="path8465"
             style="fill:none;stroke:#5d478b;stroke-width:1.60000002;stroke-linecap:butt;stroke-linejoin:round;stroke-miterlimit:1;stroke-dasharray:none;stroke-opacity:1"
             d="m 63.31,142.41 v 0 0 0 0 0 0 0 0 0 0 0 0 0 0 0 0 0 0 0 0 0 0 0 0 0 0 0 0 0 0 0 0 0 0 0 0 0 0 0 0 0 0 0 0 0 0 0 0 0 0 0 0 0 0 0 0 0 0 0 0 0 0 0 0 0 0 0 0 0 0 0 0 0 0 0 0 0 0 0 0 0 0 0 0 0 0 0 0 0 0 0 0 0 0 0 0 0 0 0 0 0 0 0 0 0 0 0 0 0 0 0 0 0 0 0 0 0 0 0 0 0 0 0 0 0 0 0 0 0 0 0 0 0 0 0 0 0 0 0 0 0 0 0 0 0 0 0 0 0 0 0 0 0 0 0 0 0 0 0 0 0 0 0 0 0 0 0 0 l 0.09,-0.62 v 0 0 l 0.16,0.16 2.46,2.14 3.38,2.24 1.29,0.14 1.67,-3.8 1.54,-1.58 1.53,-2.28 1.19,-0.33 1.1,-1.05 1.17,-1.15 1.6,0.03 1.65,-0.64 1.61,-0.95 2.31,-1.23 2.17,-0.94 2.29,-0.96 2.64,-0.46 3.18,-1.95 4.12,-0.95 4.18,-1.49 4.65,-2.2 5.54,-2.95 4.16,-3.05 v 0 0 0 0" />
          <path
             inkscape:connector-curvature="0"
             id="path8467"
             style="fill:none;stroke:#9370db;stroke-width:1.60000002;stroke-linecap:butt;stroke-linejoin:round;stroke-miterlimit:1;stroke-dasharray:none;stroke-opacity:1"
             d="m 47.48,83.31 v 0 0 0 0 0 0 0 0 0 0 0 0 0 0 0 0 0 0 0 0 0 0 0 0 0 0 0 0 0 0 0 0 0 0 0 0 0 0 0 0 0 0 0 0 0 0 0 0 0 0 0 0 0 0 0 0 0 0 0 0 0 0 0 0 0 0 0 0 0 0 0 0 0 0 0 0 0 0 0 0 0 0 0 0 0 0 0 0 0 l 0.01,0.21 v 0 0 0 0 0 0 0 0 l 0.06,-0.73 v 0 0.83 0 0 0 0 0 0 0 0 0 0 0 0 0 0 0 0 0 0 0 0 0 0.53 l 0.03,-0.95 v 0 l 0.07,0.8 v 0 0 0 0 0 0 l 0.02,0.2 v 0 0 0 0 0 0 0 0 0 l 0.06,0.59 v 0 l 0.05,0.58 v 0 0 0 l 0.03,-0.03 v 0 0 0.42 0 l 0.04,-0.04 v 0 0 0 l 0.03,-0.44 v 0 0 0 0 0 0 0.81 0 0 0 0 0 l 0.18,0.99 0.06,0.53 v 0 0 l 0.01,-1.22 v 0 0 0 0.49 0 0 0.4 0.5 0 l 0.02,-1.22 0.05,0.03 v 0.48 0 l 0.08,0.19 v 0 0 l 0.07,-0.2 v 0.28 0.28 0 0.29 0 l 0.01,-0.69 0.02,-0.39 v 0 l 0.04,0.32 v 0 l 0.07,0.62 0.07,0.61 v 0 l 0.05,0.18 v 0 0.28 0 0 0 l 0.07,-0.31 v 0.08 0 0.18 0 0 0 l 0.02,-0.47 v 0.35 l 0.05,0.08 0.06,0.43 0.03,0.29 0.09,0.26 0.07,-0.06 v 0 0.09 0 0 0 0.52 l 0.09,0.06 0.06,0.4 v 0 l 0.01,0.13 v 0 0 0 0 l 0.07,0.18 v 0 0 0 0 0 0 0 0 0 0 0 0 0 0 0 0 0 0 0 0 0.35 l 0.07,0.17 v 0 0 0 l 0.08,0.33 0.03,0.25 v 0 l 0.09,0.62 v 0 0 0 0 0 0 l 0.07,0.49 v 0 l 0.02,0.03 0.03,0.24 0.04,0.07 v 0 0 0 0 0.17 l 0.07,-0.29 v 0 l 0.05,-0.07 v 0 0 0.17 0 0.25 0 0 l 0.02,-1.2 v 0 0.24 0 0 0 0.33 0.33 0 0 0 l 0.06,-0.55 v 0 0 l 0.07,-0.73 v 0.39 0 0 0 0.79 l 0.05,-0.85 0.03,0.15 v 0.07 l 0.04,0.14 0.07,0.44 0.05,0.32 v 0 0 0 l 0.04,-0.92 v 0 0 0.75 0 0 0.38 l 0.02,-1.61 v 0.15 0 l 0.07,0.27 0.07,0.41 0.04,-0.37 v 0 0 0 0 0 l 0.03,0.2 0.07,-0.71 0.07,-0.02 0.06,0.16 v 0 l 0.01,-0.03 v 0 0.13 l 0.07,-0.34 v 0 0 0.46 0 0.13 0 l 0.06,-0.57 0.02,0.09 v 0 l 0.03,-0.07 v 0.26 0 0 l 0.04,-1.02 v 0.95 0 0 0 l 0.07,-1.07 0.07,-0.94 v 0 0.52 0 0 0.72 0 0.06 l 0.05,-1.04 0.04,0.18 h 0.03 v 0 0.18 l 0.04,-0.68 v 0 0.45 0 0 0 0 0.06 l 0.12,0.09 0.02,-0.14 0.12,0.6 0.04,-0.12 0.02,-0.13 0.07,-0.54 v 0.65 0.11 l 0.07,-0.54 v 0 l 0.04,-0.26 v 0.1 l 0.14,0.02 v 0.2 l 0.1,-0.34 v 0.15 0.46 l 0.07,-1.44 v 0.39 0 0.1 0 0.2 0.15 0.2 l 0.09,-1.23 v 0 0.09 l 0.02,-0.57 v 0.18 0 0.23 l 0.02,-0.34 0.02,-0.06 v 0 l 0.03,-0.22 v 0.05 0.18 0.14 0 l 0.13,0.14 0.09,0.32 v 0 l 0.05,-0.14 v 0.18 0 0.18 l 0.03,-0.58 0.04,-0.25 v 0.26 l 0.02,-0.19 v 0 l 0.21,0.7 0.04,-0.33 0.05,0.12 v 0 0 l 0.09,-0.17 v 0.25 l 0.03,-0.12 0.11,0.4 0.05,0.03 v 0.04 l 0.06,0.11 0.01,0.07 0.07,0.13 v 0.08 l 0.08,0.14 0.03,-0.45 v 0.04 0.37 l 0.05,-0.26 v 0 0.04 l 0.11,0.3 v 0.04 l 0.09,0.27 0.04,-0.32 v 0.2 0.08 l 0.03,-0.16 0.07,0.16 0.07,-0.54 v 0.59 l 0.02,-0.84 v 0.19 l 0.07,-0.75 v 0.3 0.34 l 0.05,-0.57 0.02,-0.13 v 0.19 l 0.04,-0.11 0.02,0.02 v 0 0 l 0.08,0.3 0.04,-0.07 v 0.07 0.04 0.07 l 0.04,-0.14 0.05,-0.37 v 0.11 0.11 l 0.07,-0.03 0.02,-0.19 0.05,-0.25 0.16,0.4 v 0 l 0.04,-0.1 0.07,-0.33 v 0.44 l 0.09,-0.24 0.08,-0.2 v 0.31 0.03 0.03 l 0.08,-0.15 0.07,-0.05 0.05,-0.69 v 0.68 l 0.05,-0.62 0.06,-0.22 v 0.09 0.1 l 0.05,-0.04 0.09,0.17 0.03,-0.4 v 0.1 l 0.06,-0.13 v 0.09 l 0.16,0.06 v 0.15 0 0.15 l 0.09,-0.44 v 0.09 l 0.01,-0.25 v 0.21 l 0.16,-0.09 0.09,-0.08 v 0.23 l 0.07,-0.41 v 0.17 0.03 l 0.02,-0.66 v 0.22 l 0.11,-0.35 0.07,0.05 0.03,-0.07 0.15,0.26 0.07,0.15 0.05,-0.07 v 0 l 0.02,-0.2 0.16,0.33 0.17,0.25 0.11,0.19 0.21,0.39 0.02,-0.22 0.02,-0.06 0.05,-0.06 0.07,0.1 0.07,-0.06 0.04,-0.02 0.09,-0.12 0.05,0.12 0.04,-0.16 0.05,-0.15 0.07,0.14 0.11,0.19 0.07,0.17 0.02,-0.06 0.05,-0.08 0.12,0.26 0.09,0.15 0.06,0.07 0.12,0.11 h 0.09 l 0.07,0.03 0.14,-0.14 v 0.26 0.1 l 0.06,-0.83 v 0.37 l 0.42,0.33 0.09,0.04 0.07,0.1 0.09,0.16 0.12,0.03 0.13,0.14 0.16,0.14 0.23,0.44 0.25,0.22 0.21,0.39 0.18,0.23 0.05,-0.01 0.07,-0.05 0.11,0.09 0.18,0.23 0.19,0.07 h 0.11 l 0.28,0.41 0.07,-0.13 0.13,0.09 0.3,0.32 0.3,0.4 0.04,-0.13 0.17,0.07 0.06,0.01 0.14,0.11 0.18,0.24 0.39,0.56 0.1,0.05 0.23,0.13 0.15,0.08 0.23,0.02 h 0.12 l 0.37,0.3 0.08,0.03 0.15,0.08 0.22,0.09 0.25,0.24 0.01,-0.19 0.13,0.01 0.28,0.26 0.18,0.09 0.37,0.4 0.11,0.08 0.02,-0.11 0.28,0.27 0.37,0.31 0.22,0.24 h 0.14 l 0.26,0.14 0.16,0.07 0.13,0.03 0.23,0.2 0.21,0.13 0.22,0.1 0.35,0.25 0.28,0.2 0.18,0.05 0.39,0.36 0.32,0.18 0.13,0.08 0.4,0.35 0.25,0.19 0.27,0.12 h 0.16 l 0.1,-0.02 0.34,0.22 0.27,0.25 0.28,0.17 0.62,0.49 0.27,0.09 0.27,0.1 0.37,0.27 0.19,-0.05 0.27,0.04 0.5,0.34 0.51,0.39 0.45,0.27 0.56,0.39 0.32,0.12 0.64,0.39 0.29,0.13 0.62,0.43 0.49,0.33 0.31,0.07 0.53,0.26 0.65,0.28 0.52,0.28 0.62,0.38 0.59,0.18 0.64,0.35 1.01,0.63 0.67,0.35 1.01,0.66 0.75,0.36 0.89,0.35 0.81,0.41 0.41,0.07 1.05,0.54 0.62,0.17 1.26,0.74 0.82,0.31 0.95,0.45 1.89,0.97 0.65,0.11 1.71,0.78 0.62,0.1 2.52,1.07 0.71,0.2 2.27,0.86 0.82,0.05 2.98,1.22 0.85,0.18 3.46,1.24 1.12,0.3 2.68,0.9 2.34,0.78 0.43,0.13 1.12,0.24 v 0 0.08" />
          <path
             inkscape:connector-curvature="0"
             id="path8469"
             style="fill:none;stroke:#1a1a1a;stroke-width:1.60000002;stroke-linecap:butt;stroke-linejoin:round;stroke-miterlimit:1;stroke-dasharray:none;stroke-opacity:1"
             d="m 64.2,141.9 v 0 0 0 0 0 0 0 0 0 0 0 0 0 0 0 0 0 0 0 0 0 0 0 0 0 0 0 0 0 0 0 0 0 0 0 0 0 0 0 0 0 0 0 0 0 0 0 0 0 0 0 0 0 0 0 0 0 0 0 0 0 0 0 0 0 0 0 0 0 0 0 0 0 0 0 0 0 0 0 0 0 0 0 0 0 0 0 0 0 0 0 0 0 0 0 0 0 0 0 0 0 0 0 0 0 0 0 0 0 0 0 0 0 0 0 0 0 0 0 0 0 0 0 0 0 0 0 0 0 0 0 0 0 0 0 0 0 0 0 0 0 0 0 0 0 0 0 0 0 0 0 0 0 0 0 0 0 0 0 0 0 0 0 0 0 0 0 0 l 0.08,-0.58 v 0 0 l 0.16,0.16 2.54,2.14 3.41,2.16 1.35,0.02 1.74,-4.15 1.65,-1.69 1.56,-2.9 1.28,-0.27 1.22,-0.91 1.23,-1.23 1.79,0.05 1.86,-0.49 1.73,-0.82 2.45,-1.13 2.48,-0.86 2.52,-0.95 2.86,-0.41 3.65,-1.7 4.64,-0.75 4.82,-1.3 5.2,-1.99 6.02,-2.78 4.93,-3.02 v 0 0 0 0" />
        </g>
      </g>
      <g
         id="g8471" />
      <g
         id="g8473" />
      <g
         id="g8475" />
      <g
         id="g8477" />
      <g
         id="g8479" />
      <g
         id="g8481" />
      <g
         id="g8483" />
      <g
         id="g8485" />
      <g
         id="g8487" />
      <g
         id="g8489" />
      <g
         id="g8491" />
      <g
         id="g8493" />
      <g
         id="g8495">
        <path
           inkscape:connector-curvature="0"
           id="path8497"
           style="fill:none;stroke:#000000;stroke-width:1.07000005;stroke-linecap:butt;stroke-linejoin:round;stroke-miterlimit:10;stroke-dasharray:none;stroke-opacity:1"
           d="M 39.03,35.88 V 171.37" />
      </g>
      <g
         id="g8499" />
      <g
         id="g8501" />
      <g
         id="g8503">
        <text
           id="text8507"
           style="font-variant:normal;font-weight:normal;font-size:9px;font-family:Helvetica;-inkscape-font-specification:Helvetica;writing-mode:lr-tb;fill:#4d4d4d;fill-opacity:1;fill-rule:nonzero;stroke:none"
           transform="matrix(1,0,0,-1,29.09,38.81)">
          <tspan
             id="tspan8505"
             y="0"
             x="0">0</tspan>
        </text>
        <text
           id="text8511"
           style="font-variant:normal;font-weight:normal;font-size:9px;font-family:Helvetica;-inkscape-font-specification:Helvetica;writing-mode:lr-tb;fill:#4d4d4d;fill-opacity:1;fill-rule:nonzero;stroke:none"
           transform="matrix(1,0,0,-1,24.09,69.6)">
          <tspan
             id="tspan8509"
             sodipodi:role="line"
             y="0"
             x="0 5.0040002">25</tspan>
        </text>
        <text
           id="text8515"
           style="font-variant:normal;font-weight:normal;font-size:9px;font-family:Helvetica;-inkscape-font-specification:Helvetica;writing-mode:lr-tb;fill:#4d4d4d;fill-opacity:1;fill-rule:nonzero;stroke:none"
           transform="matrix(1,0,0,-1,24.09,100.4)">
          <tspan
             id="tspan8513"
             sodipodi:role="line"
             y="0"
             x="0 5.0040002">50</tspan>
        </text>
        <text
           id="text8519"
           style="font-variant:normal;font-weight:normal;font-size:9px;font-family:Helvetica;-inkscape-font-specification:Helvetica;writing-mode:lr-tb;fill:#4d4d4d;fill-opacity:1;fill-rule:nonzero;stroke:none"
           transform="matrix(1,0,0,-1,24.09,131.19)">
          <tspan
             id="tspan8517"
             sodipodi:role="line"
             y="0"
             x="0 5.0040002">75</tspan>
        </text>
        <text
           id="text8523"
           style="font-variant:normal;font-weight:normal;font-size:9px;font-family:Helvetica;-inkscape-font-specification:Helvetica;writing-mode:lr-tb;fill:#4d4d4d;fill-opacity:1;fill-rule:nonzero;stroke:none"
           transform="matrix(1,0,0,-1,19.08,161.98)">
          <tspan
             id="tspan8521"
             sodipodi:role="line"
             y="0"
             x="0 5.0040002 10.008">100</tspan>
        </text>
      </g>
      <g
         id="g8525" />
      <g
         id="g8527">
        <path
           inkscape:connector-curvature="0"
           id="path8529"
           style="fill:none;stroke:#333333;stroke-width:1.07000005;stroke-linecap:butt;stroke-linejoin:round;stroke-miterlimit:10;stroke-dasharray:none;stroke-opacity:1"
           d="m 36.29,42.04 h 2.74" />
        <path
           inkscape:connector-curvature="0"
           id="path8531"
           style="fill:none;stroke:#333333;stroke-width:1.07000005;stroke-linecap:butt;stroke-linejoin:round;stroke-miterlimit:10;stroke-dasharray:none;stroke-opacity:1"
           d="m 36.29,72.83 h 2.74" />
        <path
           inkscape:connector-curvature="0"
           id="path8533"
           style="fill:none;stroke:#333333;stroke-width:1.07000005;stroke-linecap:butt;stroke-linejoin:round;stroke-miterlimit:10;stroke-dasharray:none;stroke-opacity:1"
           d="m 36.29,103.63 h 2.74" />
        <path
           inkscape:connector-curvature="0"
           id="path8535"
           style="fill:none;stroke:#333333;stroke-width:1.07000005;stroke-linecap:butt;stroke-linejoin:round;stroke-miterlimit:10;stroke-dasharray:none;stroke-opacity:1"
           d="m 36.29,134.42 h 2.74" />
        <path
           inkscape:connector-curvature="0"
           id="path8537"
           style="fill:none;stroke:#333333;stroke-width:1.07000005;stroke-linecap:butt;stroke-linejoin:round;stroke-miterlimit:10;stroke-dasharray:none;stroke-opacity:1"
           d="m 36.29,165.21 h 2.74" />
      </g>
      <g
         id="g8539" />
      <g
         id="g8541" />
      <g
         id="g8543" />
      <g
         id="g8545" />
      <g
         id="g8547" />
      <g
         id="g8549" />
      <g
         id="g8551">
        <path
           inkscape:connector-curvature="0"
           id="path8553"
           style="fill:none;stroke:#000000;stroke-width:1.07000005;stroke-linecap:butt;stroke-linejoin:round;stroke-miterlimit:10;stroke-dasharray:none;stroke-opacity:1"
           d="M 39.03,35.88 H 174.52" />
      </g>
      <g
         id="g8555" />
      <g
         id="g8557" />
      <g
         id="g8559">
        <path
           inkscape:connector-curvature="0"
           id="path8561"
           style="fill:none;stroke:#333333;stroke-width:1.07000005;stroke-linecap:butt;stroke-linejoin:round;stroke-miterlimit:10;stroke-dasharray:none;stroke-opacity:1"
           d="m 45.19,33.14 v 2.74" />
        <path
           inkscape:connector-curvature="0"
           id="path8563"
           style="fill:none;stroke:#333333;stroke-width:1.07000005;stroke-linecap:butt;stroke-linejoin:round;stroke-miterlimit:10;stroke-dasharray:none;stroke-opacity:1"
           d="m 80.68,33.14 v 2.74" />
        <path
           inkscape:connector-curvature="0"
           id="path8565"
           style="fill:none;stroke:#333333;stroke-width:1.07000005;stroke-linecap:butt;stroke-linejoin:round;stroke-miterlimit:10;stroke-dasharray:none;stroke-opacity:1"
           d="m 116.18,33.14 v 2.74" />
        <path
           inkscape:connector-curvature="0"
           id="path8567"
           style="fill:none;stroke:#333333;stroke-width:1.07000005;stroke-linecap:butt;stroke-linejoin:round;stroke-miterlimit:10;stroke-dasharray:none;stroke-opacity:1"
           d="m 151.68,33.14 v 2.74" />
      </g>
      <g
         id="g8569" />
      <g
         id="g8571">
        <text
           id="text8575"
           style="font-variant:normal;font-weight:normal;font-size:9px;font-family:Helvetica;-inkscape-font-specification:Helvetica;writing-mode:lr-tb;fill:#4d4d4d;fill-opacity:1;fill-rule:nonzero;stroke:none"
           transform="matrix(1,0,0,-1,42.69,24.49)">
          <tspan
             id="tspan8573"
             y="0"
             x="0">0</tspan>
        </text>
        <text
           id="text8579"
           style="font-variant:normal;font-weight:normal;font-size:9px;font-family:Helvetica;-inkscape-font-specification:Helvetica;writing-mode:lr-tb;fill:#4d4d4d;fill-opacity:1;fill-rule:nonzero;stroke:none"
           transform="matrix(1,0,0,-1,70.68,24.49)">
          <tspan
             id="tspan8577"
             sodipodi:role="line"
             y="0"
             x="0 5.0040002 10.008 15.012">2000</tspan>
        </text>
        <text
           id="text8583"
           style="font-variant:normal;font-weight:normal;font-size:9px;font-family:Helvetica;-inkscape-font-specification:Helvetica;writing-mode:lr-tb;fill:#4d4d4d;fill-opacity:1;fill-rule:nonzero;stroke:none"
           transform="matrix(1,0,0,-1,106.17,24.49)">
          <tspan
             id="tspan8581"
             sodipodi:role="line"
             y="0"
             x="0 5.0040002 10.008 15.012">4000</tspan>
        </text>
        <text
           id="text8587"
           style="font-variant:normal;font-weight:normal;font-size:9px;font-family:Helvetica;-inkscape-font-specification:Helvetica;writing-mode:lr-tb;fill:#4d4d4d;fill-opacity:1;fill-rule:nonzero;stroke:none"
           transform="matrix(1,0,0,-1,141.67,24.49)">
          <tspan
             id="tspan8585"
             sodipodi:role="line"
             y="0"
             x="0 5.0040002 10.008 15.012">6000</tspan>
        </text>
      </g>
      <g
         id="g8589" />
      <g
         id="g8591" />
      <g
         id="g8593" />
      <g
         id="g8595" />
      <g
         id="g8597" />
      <g
         id="g8599">
        <text
           id="text8603"
           style="font-variant:normal;font-weight:normal;font-size:11px;font-family:Helvetica;-inkscape-font-specification:Helvetica;writing-mode:lr-tb;fill:#000000;fill-opacity:1;fill-rule:nonzero;stroke:none"
           transform="matrix(1,0,0,-1,40.25,11.11)">
          <tspan
             id="tspan8601"
             sodipodi:role="line"
             y="0"
             x="0 5.401 9.2290001 15.345 21.461 24.518999 30.635 36.750999 42.250999 44.693001 47.750999 50.193001 55.417999 61.534 64.592003 70.092003 73.754997 79.871002 85.371002 90.871002 93.313004 95.754997 101.871 107.371 110.429 115.929 118.371 121.429 127.545">True positive crosslink sites</tspan>
        </text>
      </g>
      <g
         id="g8605" />
      <g
         id="g8607">
        <text
           id="text8611"
           style="font-variant:normal;font-weight:normal;font-size:11px;font-family:Helvetica;-inkscape-font-specification:Helvetica;writing-mode:lr-tb;fill:#000000;fill-opacity:1;fill-rule:nonzero;stroke:none"
           transform="matrix(0,1,1,0,13.38,74.59)">
          <tspan
             id="tspan8609"
             sodipodi:role="line"
             y="0"
             x="0 7.3369999 11 17.115999 22.615999 25.058001 30.558001 33 39.116001 45.231998 48.290001">Precision %</tspan>
        </text>
      </g>
      <g
         id="g8613" />
      <g
         id="g8615" />
      <g
         id="g8617" />
      <g
         id="g8619" />
      <g
         id="g8621" />
      <g
         id="g8623" />
      <g
         id="g8625" />
      <g
         id="g8627" />
      <g
         id="g8629" />
      <g
         id="g8631" />
      <g
         id="g8633" />
    </g>
    <g
       transform="matrix(0.35277777,0,0,-0.35277777,-71.982366,169.24581)"
       inkscape:label="bench_sim.pr.SIM_SET_FIX13.HMM_SET8.cs"
       id="g8790">
      <g
         id="g8792" />
      <g
         id="g8794" />
      <g
         id="g8796" />
      <g
         id="g8798" />
      <g
         id="g8800" />
      <g
         id="g8802" />
      <g
         id="g8804" />
      <g
         id="g8806" />
      <g
         id="g8808" />
      <g
         id="g8810" />
      <g
         id="g8812" />
      <g
         id="g8814">
        <g
           clip-path="url(#clipPath8820)"
           id="g8816">
          <path
             inkscape:connector-curvature="0"
             id="path8822"
             style="fill:#ffffff;fill-opacity:1;fill-rule:nonzero;stroke:#ffffff;stroke-width:1.07000005;stroke-linecap:round;stroke-linejoin:round;stroke-miterlimit:10;stroke-dasharray:none;stroke-opacity:1"
             d="M 0,3.15 H 180 V 176.86 H 0 Z" />
        </g>
      </g>
      <g
         id="g8824" />
      <g
         id="g8826">
        <g
           clip-path="url(#clipPath8832)"
           id="g8828">
          <path
             inkscape:connector-curvature="0"
             id="path8834"
             style="fill:#ffffff;fill-opacity:1;fill-rule:nonzero;stroke:none"
             d="M 39.03,35.88 H 174.52 V 171.37 H 39.03 Z" />
          <path
             inkscape:connector-curvature="0"
             id="path8836"
             style="fill:none;stroke:#008b45;stroke-width:1.60000002;stroke-linecap:butt;stroke-linejoin:round;stroke-miterlimit:1;stroke-dasharray:none;stroke-opacity:1"
             d="m 46.61,151.53 v 0 l 0.01,0.15 0.04,0.29 0.04,0.28 0.05,0.4 v 0 l 0.02,0.12 0.05,0.37 0.07,0.45 v 0 0 l 0.05,0.32 0.02,0.11 0.02,0.1 0.02,0.1 v 0 l 0.03,0.19 0.04,0.19 0.02,0.09 0.01,0.09 0.07,0.34 v 0 l 0.06,0.24 v 0 0 l 0.05,0.23 0.05,0.22 v 0 l 0.04,0.14 0.04,0.14 0.03,0.13 v 0 0 l 0.11,0.38 0.05,0.18 0.11,0.33 0.02,0.05 0.01,0.06 0.07,0.2 0.07,-0.52 0.09,0.25 0.04,0.09 0.05,0.14 v 0 l 0.06,0.14 0.05,0.13 0.03,0.08 0.02,0.04 0.04,0.08 v 0 l 0.02,-0.58 0.1,0.25 0.09,0.19 0.05,0.11 0.15,0.29 v 0 l 0.07,0.13 0.05,0.1 0.11,-0.34 0.03,0.07 0.02,0.03 0.02,0.03 0.07,0.12 0.14,0.24 0.07,0.11 0.04,0.05 0.1,0.16 0.07,-0.36 0.2,-0.16 0.11,0.16 0.1,0.14 0.11,0.14 0.05,0.07 0.09,0.11 0.07,0.08 0.06,-0.32 0.03,0.04 0.09,0.11 0.11,0.12 0.14,-0.93 0.09,0.11 0.17,0.21 0.16,0.18 0.08,-0.25 0.14,0.15 0.07,0.07 0.14,-0.16 0.12,0.12 0.18,0.18 0.2,0.18 0.17,-0.13 0.09,0.08 0.18,0.15 0.23,-0.34 0.11,0.09 0.05,0.04 0.14,-0.14 0.16,0.13 0.22,-0.08 0.21,-0.08 0.19,-0.08 0.22,-0.29 0.21,-0.06 0.3,-0.2 0.16,-0.09 0.23,-0.03 0.18,-0.07 0.18,-0.07 0.25,-0.2 0.32,-0.5 0.31,-0.3 0.54,-0.62 0.39,0.28 0.41,-0.49 0.33,-0.36 0.64,0.3 0.34,-0.06 0.5,-0.08 0.44,0.01 0.46,0.03 0.69,-0.44 0.82,-0.11 0.67,0.26 0.8,-0.11 0.78,-0.11 0.73,0.25 0.78,0.26 0.82,-0.63 0.85,-0.05 0.92,-0.27 0.66,-0.66 1.23,-0.59 0.65,-0.29 0.91,-0.77 1.42,-0.1 1.17,-0.44 0.9,-0.69 1.48,-0.45 1.38,-0.81 1.1,-0.4 1.39,-0.92 1.7,-0.89 1.44,-1.31 1.03,-1.09 2.36,-1.43 1.42,-2.38 1.36,-2.85 1.85,-3.48 2.17,-4.51 1.31,-4.64 v 0" />
          <path
             inkscape:connector-curvature="0"
             id="path8838"
             style="fill:none;stroke:#7f7f7f;stroke-width:1.60000002;stroke-linecap:butt;stroke-linejoin:round;stroke-miterlimit:1;stroke-dasharray:none;stroke-opacity:1"
             d="m 45.81,88.9 v 0.52 l 0.02,-0.7 v 0.49 0 0 0 l 0.05,-0.07 v 0.46 0.48 0 0 0 l 0.03,-0.4 v 0 l 0.02,0.26 v 0.45 l 0.04,0.92 0.03,-0.42 v 0.42 l 0.04,-0.41 0.02,-1.34 v 0.38 0.77 0.4 l 0.01,-1.33 v 0 l 0.02,-0.86 v 0.35 0.36 0.73 l 0.02,-0.87 0.04,1.1 0.03,-0.98 v 1.35 l 0.02,-1.16 0.02,-0.76 v 0.63 0 l 0.01,-0.13 v 0 l 0.04,0.66 0.04,0.65 0.01,-0.45 v 0 l 0.02,-0.98 v 0.56 l 0.02,-0.68 0.02,0.44 0.01,0.44 0.02,-1.44 v 0.52 l 0.02,-0.36 0.02,0.41 v 0 l 0.02,0.16 v 0 l 0.05,0.69 0.02,0.13 0.03,-1.61 v 0.69 l 0.02,-1.21 0.09,0.91 0.03,0.05 0.02,0.13 0.04,0.25 0.05,0.15 0.04,0.43 0.05,0.33 v 0.6 l 0.02,-0.69 0.05,0.51 0.04,0.01 0.01,-0.28 0.04,0.56 0.12,1.17 0.13,1.07 0.01,-0.1 0.06,0.56 0.05,0.19 0.04,-0.71 v 0.5 l 0.09,0.31 0.08,0.45 0.04,0.43 0.02,-0.58 0.07,0.84 0.09,0.86 0.09,0.67 0.1,0.54 0.06,-0.65 0.03,-0.36 0.09,0.76 0.07,-0.29 0.13,0.51 0.07,0.12 0.14,0.75 0.14,0.58 0.07,0.21 0.04,-0.21 0.17,0.45 0.04,-0.56 0.16,0.18 0.09,-0.67 0.19,0.54 0.23,0.53 0.16,0.64 0.11,-0.31 0.16,0.12 0.09,-0.03 0.14,-0.17 0.21,0.24 0.27,0.76 0.11,-0.2 0.32,0.98 0.33,0.35 0.32,0.7 0.27,0.28 0.32,0.62 0.35,0.79 0.3,0.26 0.27,-0.02 0.32,0.18 0.44,0.83 0.34,-0.18 0.39,-0.35 0.34,-0.31 0.58,-0.4 0.54,-0.02 0.62,0.31 0.53,-0.61 0.48,-0.55 1.08,0.82 0.98,-0.06 1.15,0.29 1.07,-0.76 1.35,-0.54 1.56,-0.34 1.68,-0.96 2.13,-0.32 2.74,-0.78 3.71,-0.45 3.85,-1.39 5.98,-1.61 8.47,-2.09 12.76,-3.34 21.44,-4.53 40.32,-7.05 v 0 0 0 0" />
          <path
             inkscape:connector-curvature="0"
             id="path8840"
             style="fill:none;stroke:#ff4500;stroke-width:1.60000002;stroke-linecap:butt;stroke-linejoin:round;stroke-miterlimit:1;stroke-dasharray:none;stroke-opacity:1"
             d="m 61.64,129.14 v 0 0 0 0 0 0 0 0 0 0 0 0 0 0 0 0 0 0 0 0 0 0 0 0 0 0 0 0 0 0 0 0 0 0 0 0 0 0 0 0 0 0 0 0 0 0 0 0 0 0 0 0 0 0 0 0 0 0 0 0 0 0 0 0 0 0 0 0 0 0 0 0 0 0 0 0 0 0 0 0 0 0 0 0 0 0 0 0 0 0 0 0 0 0 0 0 0 0 0 0 0 0 0 0 0 0 0 0 0 0 0 0 0 0 0 0 0 0 0 0 0 0 0 0 0 0 0 0 0 0 0 0 0 0 0 0 0 0 0 0 0 0 0 0 0 0 0 0 0 0 0 0 0 0 0 0 0 0 0 0 0 0 0 0 0 0 0 0 l 0.02,-0.7 v 0 0 l 0.16,0.25 2.41,3.26 3,2.86 1.3,0.11 1.24,-5.88 1.13,-2.97 0.96,-3.01 0.71,-0.76 0.75,-0.9 0.73,-1.43 0.87,-0.28 0.88,-1.08 0.71,-1.42 1.07,-1.54 1.15,-0.68 1.24,-1.14 0.89,-1.51 1.39,-1.51 1.26,-1.58 1.24,-1.88 1.35,-1.88 1.42,-2.34 1.51,-2.49 v 0 0 0 0" />
          <path
             inkscape:connector-curvature="0"
             id="path8842"
             style="fill:none;stroke:#ffa500;stroke-width:1.60000002;stroke-linecap:butt;stroke-linejoin:round;stroke-miterlimit:1;stroke-dasharray:none;stroke-opacity:1"
             d="m 60.79,126.56 0.76,-0.02 0.52,-0.89 0.44,-0.87 1.3,0.89 0.74,-2.19 0.73,-2.04 0.97,-0.2 1.05,-1.17 0.73,-1.6 1.79,-0.58 1.35,-0.3 1.05,-3.76 1.67,-4.59 1.11,-3.21 4.23,-0.24 2.43,-2.36 2.84,-2.69 2.36,-1.06 2.17,0.96 v 0 0 0 0 0 0 0" />
          <path
             inkscape:connector-curvature="0"
             id="path8844"
             style="fill:none;stroke:#5d478b;stroke-width:1.60000002;stroke-linecap:butt;stroke-linejoin:round;stroke-miterlimit:1;stroke-dasharray:none;stroke-opacity:1"
             d="m 63.56,133.56 v 0 0 0 0 0 0 0 0 0 0 0 0 0 0 0 0 0 0 0 0 0 0 0 0 0 0 0 0 0 0 0 0 0 0 0 0 0 0 0 0 0 0 0 0 0 0 0 0 0 0 0 0 0 0 0 0 0 0 0 0 0 0 0 0 0 0 0 0 0 0 0 0 0 0 0 0 0 0 0 0 0 0 0 0 0 0 0 0 0 0 0 0 0 0 0 0 0 0 0 0 0 0 0 0 0 0 0 0 0 0 0 0 0 0 0 0 0 0 0 0 0 0 0 0 0 0 0 0 0 0 0 0 0 0 0 0 0 0 0 0 0 0 0 0 0 0 0 0 0 0 0 0 0 0 0 0 0 0 0 0 0 0 0 0 0 0 0 0 l 0.1,-0.58 v 0 0 l 0.16,0.2 2.35,2.61 3.08,2.52 h 1.28 l 1.51,-5.14 1.63,-2.4 1.65,-1.84 1.12,-0.57 1.16,-0.74 1.17,-1.23 1.58,0.02 1.68,-0.59 1.65,-1.07 2.12,-1.28 2.16,-0.59 2.45,-0.94 2.56,-0.86 3.08,-1.35 4.21,-0.89 4.26,-1.59 4.58,-1.68 5.57,-2 4.14,-2.82 v 0 0 0 0" />
          <path
             inkscape:connector-curvature="0"
             id="path8846"
             style="fill:none;stroke:#9370db;stroke-width:1.60000002;stroke-linecap:butt;stroke-linejoin:round;stroke-miterlimit:1;stroke-dasharray:none;stroke-opacity:1"
             d="m 47.48,76.21 v 0 0 0 0 0 0 0 0 0 0 0 0 0 0 0 0 0 0 0 0 0 0 0 0 0 0 0 0 0 0 0 0 0 0 0 0 0 0 0 0 0 0 0 0 0 0 0 0 0 0 0 0 0 0 0 0 0 0 0 0 0 0 0 0 0 0 0 0 0 0 0 0 0 0 0 0 0 0 0 0 0 0 0 0 0 l 0.03,0.38 v 0 0 0 0 0 l 0.04,0.38 v 0 0 0 0 0 0 l 0.02,-1.59 v 0 0.97 0 0 0 0 0 0.44 0 0 0 0 0 0 0 0 0 0 0 0 0 0.37 0 0 l 0.03,-1.95 v 0.07 0.47 0 0 0 l 0.04,-0.18 v 0 0 l 0.01,-0.09 v 0 0 0.26 0 0 0 0 0 0 L 47.71,76 v 0 l 0.05,0.52 v 0 0 0 l 0.04,0.34 v 0 0 0 l 0.05,-0.41 v 0 0.45 0 0 l 0.07,0.2 v 0 0 0 0 0 0 0 0 l 0.04,-0.19 v 0 0 0 l 0.05,0.48 v 0 l 0.07,0.63 v 0 l 0.02,-0.16 v 0.32 0 0 l 0.07,0.04 v 0 0 0 0.25 l 0.02,-0.1 0.01,-0.16 0.06,0.44 v 0 0 0 0 0 l 0.07,-0.63 v 0 0.36 0 0.36 0.19 0 0 0.31 l 0.02,-1.08 v 0 0 0 l 0.07,0.57 0.12,0.8 v 0 0 0.18 0 0 0 l 0.04,-0.15 v 0.24 l 0.07,-0.17 v 0.3 0 0.05 0 0.13 l 0.05,-0.32 0.05,0.4 0.04,0.26 0.02,-0.16 v 0 l 0.02,-0.22 0.07,0.51 v 0 l 0.05,0.38 0.07,0.44 v 0 l 0.02,0.12 v 0 0 l 0.02,-0.95 v 0.44 0.29 0 0 0 0 0.34 l 0.05,-0.71 v 0 l 0.07,-0.13 v 0 0.06 0 0 0.44 0 0.11 0 l 0.07,-0.14 v 0 0 0 l 0.07,0.47 v 0 0 0 0 0 0 0 0 l 0.04,0.12 v 0 l 0.03,0.22 v 0 0 l 0.06,0.35 v 0 0 0 0 0 l 0.01,0.11 v 0 l 0.15,0.72 v 0 0 0 0 0.12 0.05 l 0.07,0.27 0.05,-0.81 0.02,-1.03 v 0.2 0.1 0 0 0 0 0 0.41 0.16 0 0 l 0.05,-1.82 v 0.14 0.33 0 0 0.2 l 0.06,-1.07 v 0 0.33 0 0 0 0 0.37 0 0 0 l 0.05,-0.44 v 0 l 0.07,0.4 0.05,0.29 0.07,0.39 v 0 l 0.04,0.2 0.02,-0.32 v 0 0 0 0.18 0.23 0 0 l 0.01,-0.32 0.04,-0.21 v 0.09 l 0.07,0.28 0.07,0.33 v 0 0 l 0.04,0.14 v 0.05 0 l 0.03,-0.22 v 0.36 l 0.07,0.01 0.13,-0.25 v 0 0 0 0.17 0.09 0 0.62 l 0.05,-1.18 v 0.17 0 0 0.3 l 0.02,-0.38 v 0 l 0.09,0.44 v 0 0 l 0.07,0.17 0.03,-1.46 v 0.48 0 0.08 0.73 0 0 0.17 0.17 0 0 0 0 l 0.08,-1.64 0.05,-0.22 0.03,0.17 0.04,-0.18 v 0 0.11 0 0.08 0.03 0 0 0 0 0.12 l 0.12,0.03 0.02,-0.4 v 0 l 0.09,0.28 0.09,0.39 0.07,0.01 v 0 0.04 l 0.07,-0.06 v 0.07 l 0.04,-0.24 v 0.07 l 0.07,-0.26 v 0.17 0.14 l 0.1,-0.32 v 0.14 l 0.09,-0.35 v 0 0.2 0.3 l 0.04,-1.07 v 0.38 0 0.07 l 0.03,-0.34 0.06,0.04 v 0.16 l 0.01,-0.21 0.06,-0.08 v 0 0.28 0 l 0.02,-0.46 v 0.12 l 0.03,-0.17 v 0 l 0.07,-0.06 v 0 0 0.12 0.21 l 0.09,-0.03 0.13,0.22 v 0.03 l 0.05,0.02 v 0.15 l 0.03,-0.02 0.04,-0.11 0.07,0.05 0.02,-0.2 v 0.14 l 0.07,0.11 0.05,0.07 0.06,-0.24 v 0.05 0.24 l 0.08,-0.01 0.04,-0.19 0.09,0.16 0.09,0.19 0.09,0.19 0.05,-0.13 v 0.14 0.06 l 0.07,-0.24 v 0.25 l 0.07,-0.07 0.04,-0.48 v 0.03 0.43 l 0.05,-0.34 v 0.03 l 0.07,0.2 v 0 l 0.04,0.11 0.09,0.21 0.03,-0.08 v 0.05 l 0.02,-0.02 v 0 l 0.11,0.34 0.05,-0.1 v 0.08 l 0.02,-0.55 v 0.16 l 0.07,-0.75 v 0.08 0.35 0.28 l 0.07,-0.96 v 0.25 l 0.1,0.07 0.02,-0.38 v 0.07 0.24 l 0.02,-0.26 0.04,-0.18 v 0.1 0.09 l 0.01,-0.16 0.06,-0.74 v 0.18 0.18 0.14 0.12 l 0.07,-0.77 0.07,0.07 0.09,0.07 0.07,0.13 0.07,0.14 0.12,0.01 v 0.2 l 0.04,-0.36 0.11,-0.38 v 0.1 0 0.21 l 0.05,-0.48 v 0.17 l 0.07,-0.6 v 0.06 0.56 l 0.11,-0.56 v 0.14 0.08 l 0.05,-0.24 0.04,-0.08 0.08,-0.18 v 0.08 h 0.06 v 0.02 l 0.19,0.17 v 0.09 0.06 0.05 l 0.09,-0.1 0.02,-0.16 0.02,-0.14 v 0.11 l 0.03,-0.17 0.09,0.2 0.12,0.08 0.08,-0.47 v 0.26 0.07 0.06 0.18 l 0.17,-0.54 v 0.02 h 0.11 l 0.11,0.14 0.07,0.08 v 0.05 l 0.05,-0.12 v 0.11 l 0.14,0.1 0.16,0.15 0.14,0.25 0.13,0.14 0.09,0.09 0.07,0.07 0.05,-0.12 0.07,-0.05 0.09,0.11 0.02,0.04 0.09,-0.06 0.02,-0.27 0.03,-0.05 0.05,-0.16 0.02,-0.04 0.11,0.2 0.12,0.26 0.06,-0.27 v 0.23 l 0.14,-0.02 v 0.05 l 0.21,0.34 0.13,0.19 0.08,-0.01 v 0.03 l 0.15,-0.09 v 0.13 l 0.03,-0.25 0.07,-0.28 v 0.23 l 0.38,0.32 0.07,0.06 0.07,-0.05 0.01,-0.01 0.09,0.11 0.11,0.02 0.3,0.42 0.2,0.33 0.3,0.36 0.16,0.15 0.14,0.16 0.04,0.02 0.12,0.09 0.11,0.12 0.14,0.11 0.27,0.14 0.1,0.03 0.25,0.37 0.05,-0.01 0.16,0.01 0.3,0.32 0.22,0.25 0.03,-0.11 0.15,0.1 0.23,0.25 0.1,0.1 0.11,0.12 0.37,0.5 0.16,0.17 0.18,0.13 0.18,0.05 0.12,-0.09 0.18,0.06 0.26,0.27 0.2,0.16 0.16,-0.02 h 0.16 l 0.27,0.11 0.15,-0.06 0.11,0.01 0.29,0.21 0.1,-0.03 0.32,0.34 0.11,0.04 0.02,0.03 0.32,0.35 0.3,0.23 0.19,0.01 0.14,0.02 0.36,0.37 0.12,0.04 0.16,0.06 0.22,0.09 0.21,0.15 0.23,0.13 0.35,0.31 0.29,0.22 0.18,0.14 0.35,0.32 0.41,0.35 0.23,0.14 0.3,0.2 0.2,0.19 0.23,0.13 0.1,0.06 0.2,0.09 0.25,0.09 0.32,0.23 0.19,0.08 0.62,0.53 0.22,0.04 0.41,0.19 0.31,0.03 0.16,0.01 0.27,0.14 0.48,0.3 0.57,0.39 0.28,0.15 0.66,0.41 0.34,0.09 0.62,0.41 0.39,0.2 0.55,0.37 0.6,0.43 0.3,0.13 0.45,0.24 0.64,0.28 0.35,0.21 0.85,0.63 0.55,0.26 0.64,0.42 1,0.65 0.71,0.44 0.92,0.54 0.9,0.47 0.8,0.4 0.84,0.4 0.32,0.06 1.17,0.69 0.62,0.15 1.17,0.73 0.83,0.43 0.93,0.44 1.84,1.07 0.68,0.14 1.61,0.74 0.69,0.24 2.4,1.08 0.83,0.31 2.22,0.89 0.89,0.18 2.96,1.31 0.93,0.3 3.32,1.27 1.19,0.4 2.69,0.97 2.31,0.85 0.48,0.16 1.12,0.3 v 0 0.07" />
          <path
             inkscape:connector-curvature="0"
             id="path8848"
             style="fill:none;stroke:#1a1a1a;stroke-width:1.60000002;stroke-linecap:butt;stroke-linejoin:round;stroke-miterlimit:1;stroke-dasharray:none;stroke-opacity:1"
             d="m 64.46,132.85 v 0 0 0 0 0 0 0 0 0 0 0 0 0 0 0 0 0 0 0 0 0 0 0 0 0 0 0 0 0 0 0 0 0 0 0 0 0 0 0 0 0 0 0 0 0 0 0 0 0 0 0 0 0 0 0 0 0 0 0 0 0 0 0 0 0 0 0 0 0 0 0 0 0 0 0 0 0 0 0 0 0 0 0 0 0 0 0 0 0 0 0 0 0 0 0 0 0 0 0 0 0 0 0 0 0 0 0 0 0 0 0 0 0 0 0 0 0 0 0 0 0 0 0 0 0 0 0 0 0 0 0 0 0 0 0 0 0 0 0 0 0 0 0 0 0 0 0 0 0 0 0 0 0 0 0 0 0 0 0 0 0 0 0 0 0 0 0 0 l 0.13,-0.51 v 0 0 l 0.16,0.19 2.41,2.61 3.11,2.37 1.45,0.09 1.56,-5.37 1.71,-2.45 1.7,-2.34 1.19,-0.52 1.24,-0.62 1.28,-1.19 1.74,0.09 1.88,-0.54 1.79,-0.94 2.26,-1.18 2.46,-0.46 2.7,-0.88 2.72,-0.91 3.62,-1.07 4.7,-0.72 4.95,-1.34 5.1,-1.54 6.07,-1.9 4.93,-2.78 v 0 0 0 0" />
        </g>
      </g>
      <g
         id="g8850" />
      <g
         id="g8852" />
      <g
         id="g8854" />
      <g
         id="g8856" />
      <g
         id="g8858" />
      <g
         id="g8860" />
      <g
         id="g8862" />
      <g
         id="g8864" />
      <g
         id="g8866" />
      <g
         id="g8868" />
      <g
         id="g8870" />
      <g
         id="g8872" />
      <g
         id="g8874">
        <path
           inkscape:connector-curvature="0"
           id="path8876"
           style="fill:none;stroke:#000000;stroke-width:1.07000005;stroke-linecap:butt;stroke-linejoin:round;stroke-miterlimit:10;stroke-dasharray:none;stroke-opacity:1"
           d="M 39.03,35.88 V 171.37" />
      </g>
      <g
         id="g8878" />
      <g
         id="g8880" />
      <g
         id="g8882">
        <text
           id="text8886"
           style="font-variant:normal;font-weight:normal;font-size:9px;font-family:Helvetica;-inkscape-font-specification:Helvetica;writing-mode:lr-tb;fill:#4d4d4d;fill-opacity:1;fill-rule:nonzero;stroke:none"
           transform="matrix(1,0,0,-1,29.09,38.81)">
          <tspan
             id="tspan8884"
             y="0"
             x="0">0</tspan>
        </text>
        <text
           id="text8890"
           style="font-variant:normal;font-weight:normal;font-size:9px;font-family:Helvetica;-inkscape-font-specification:Helvetica;writing-mode:lr-tb;fill:#4d4d4d;fill-opacity:1;fill-rule:nonzero;stroke:none"
           transform="matrix(1,0,0,-1,24.09,69.6)">
          <tspan
             id="tspan8888"
             sodipodi:role="line"
             y="0"
             x="0 5.0040002">25</tspan>
        </text>
        <text
           id="text8894"
           style="font-variant:normal;font-weight:normal;font-size:9px;font-family:Helvetica;-inkscape-font-specification:Helvetica;writing-mode:lr-tb;fill:#4d4d4d;fill-opacity:1;fill-rule:nonzero;stroke:none"
           transform="matrix(1,0,0,-1,24.09,100.4)">
          <tspan
             id="tspan8892"
             sodipodi:role="line"
             y="0"
             x="0 5.0040002">50</tspan>
        </text>
        <text
           id="text8898"
           style="font-variant:normal;font-weight:normal;font-size:9px;font-family:Helvetica;-inkscape-font-specification:Helvetica;writing-mode:lr-tb;fill:#4d4d4d;fill-opacity:1;fill-rule:nonzero;stroke:none"
           transform="matrix(1,0,0,-1,24.09,131.19)">
          <tspan
             id="tspan8896"
             sodipodi:role="line"
             y="0"
             x="0 5.0040002">75</tspan>
        </text>
        <text
           id="text8902"
           style="font-variant:normal;font-weight:normal;font-size:9px;font-family:Helvetica;-inkscape-font-specification:Helvetica;writing-mode:lr-tb;fill:#4d4d4d;fill-opacity:1;fill-rule:nonzero;stroke:none"
           transform="matrix(1,0,0,-1,19.08,161.98)">
          <tspan
             id="tspan8900"
             sodipodi:role="line"
             y="0"
             x="0 5.0040002 10.008">100</tspan>
        </text>
      </g>
      <g
         id="g8904" />
      <g
         id="g8906">
        <path
           inkscape:connector-curvature="0"
           id="path8908"
           style="fill:none;stroke:#333333;stroke-width:1.07000005;stroke-linecap:butt;stroke-linejoin:round;stroke-miterlimit:10;stroke-dasharray:none;stroke-opacity:1"
           d="m 36.29,42.04 h 2.74" />
        <path
           inkscape:connector-curvature="0"
           id="path8910"
           style="fill:none;stroke:#333333;stroke-width:1.07000005;stroke-linecap:butt;stroke-linejoin:round;stroke-miterlimit:10;stroke-dasharray:none;stroke-opacity:1"
           d="m 36.29,72.83 h 2.74" />
        <path
           inkscape:connector-curvature="0"
           id="path8912"
           style="fill:none;stroke:#333333;stroke-width:1.07000005;stroke-linecap:butt;stroke-linejoin:round;stroke-miterlimit:10;stroke-dasharray:none;stroke-opacity:1"
           d="m 36.29,103.63 h 2.74" />
        <path
           inkscape:connector-curvature="0"
           id="path8914"
           style="fill:none;stroke:#333333;stroke-width:1.07000005;stroke-linecap:butt;stroke-linejoin:round;stroke-miterlimit:10;stroke-dasharray:none;stroke-opacity:1"
           d="m 36.29,134.42 h 2.74" />
        <path
           inkscape:connector-curvature="0"
           id="path8916"
           style="fill:none;stroke:#333333;stroke-width:1.07000005;stroke-linecap:butt;stroke-linejoin:round;stroke-miterlimit:10;stroke-dasharray:none;stroke-opacity:1"
           d="m 36.29,165.21 h 2.74" />
      </g>
      <g
         id="g8918" />
      <g
         id="g8920" />
      <g
         id="g8922" />
      <g
         id="g8924" />
      <g
         id="g8926" />
      <g
         id="g8928" />
      <g
         id="g8930">
        <path
           inkscape:connector-curvature="0"
           id="path8932"
           style="fill:none;stroke:#000000;stroke-width:1.07000005;stroke-linecap:butt;stroke-linejoin:round;stroke-miterlimit:10;stroke-dasharray:none;stroke-opacity:1"
           d="M 39.03,35.88 H 174.52" />
      </g>
      <g
         id="g8934" />
      <g
         id="g8936" />
      <g
         id="g8938">
        <path
           inkscape:connector-curvature="0"
           id="path8940"
           style="fill:none;stroke:#333333;stroke-width:1.07000005;stroke-linecap:butt;stroke-linejoin:round;stroke-miterlimit:10;stroke-dasharray:none;stroke-opacity:1"
           d="m 45.19,33.14 v 2.74" />
        <path
           inkscape:connector-curvature="0"
           id="path8942"
           style="fill:none;stroke:#333333;stroke-width:1.07000005;stroke-linecap:butt;stroke-linejoin:round;stroke-miterlimit:10;stroke-dasharray:none;stroke-opacity:1"
           d="m 80.68,33.14 v 2.74" />
        <path
           inkscape:connector-curvature="0"
           id="path8944"
           style="fill:none;stroke:#333333;stroke-width:1.07000005;stroke-linecap:butt;stroke-linejoin:round;stroke-miterlimit:10;stroke-dasharray:none;stroke-opacity:1"
           d="m 116.18,33.14 v 2.74" />
        <path
           inkscape:connector-curvature="0"
           id="path8946"
           style="fill:none;stroke:#333333;stroke-width:1.07000005;stroke-linecap:butt;stroke-linejoin:round;stroke-miterlimit:10;stroke-dasharray:none;stroke-opacity:1"
           d="m 151.68,33.14 v 2.74" />
      </g>
      <g
         id="g8948" />
      <g
         id="g8950">
        <text
           id="text8954"
           style="font-variant:normal;font-weight:normal;font-size:9px;font-family:Helvetica;-inkscape-font-specification:Helvetica;writing-mode:lr-tb;fill:#4d4d4d;fill-opacity:1;fill-rule:nonzero;stroke:none"
           transform="matrix(1,0,0,-1,42.69,24.49)">
          <tspan
             id="tspan8952"
             y="0"
             x="0">0</tspan>
        </text>
        <text
           id="text8958"
           style="font-variant:normal;font-weight:normal;font-size:9px;font-family:Helvetica;-inkscape-font-specification:Helvetica;writing-mode:lr-tb;fill:#4d4d4d;fill-opacity:1;fill-rule:nonzero;stroke:none"
           transform="matrix(1,0,0,-1,70.68,24.49)">
          <tspan
             id="tspan8956"
             sodipodi:role="line"
             y="0"
             x="0 5.0040002 10.008 15.012">2000</tspan>
        </text>
        <text
           id="text8962"
           style="font-variant:normal;font-weight:normal;font-size:9px;font-family:Helvetica;-inkscape-font-specification:Helvetica;writing-mode:lr-tb;fill:#4d4d4d;fill-opacity:1;fill-rule:nonzero;stroke:none"
           transform="matrix(1,0,0,-1,106.17,24.49)">
          <tspan
             id="tspan8960"
             sodipodi:role="line"
             y="0"
             x="0 5.0040002 10.008 15.012">4000</tspan>
        </text>
        <text
           id="text8966"
           style="font-variant:normal;font-weight:normal;font-size:9px;font-family:Helvetica;-inkscape-font-specification:Helvetica;writing-mode:lr-tb;fill:#4d4d4d;fill-opacity:1;fill-rule:nonzero;stroke:none"
           transform="matrix(1,0,0,-1,141.67,24.49)">
          <tspan
             id="tspan8964"
             sodipodi:role="line"
             y="0"
             x="0 5.0040002 10.008 15.012">6000</tspan>
        </text>
      </g>
      <g
         id="g8968" />
      <g
         id="g8970" />
      <g
         id="g8972" />
      <g
         id="g8974" />
      <g
         id="g8976" />
      <g
         id="g8978">
        <text
           id="text8982"
           style="font-variant:normal;font-weight:normal;font-size:11px;font-family:Helvetica;-inkscape-font-specification:Helvetica;writing-mode:lr-tb;fill:#000000;fill-opacity:1;fill-rule:nonzero;stroke:none"
           transform="matrix(1,0,0,-1,40.25,11.11)">
          <tspan
             id="tspan8980"
             sodipodi:role="line"
             y="0"
             x="0 5.401 9.2290001 15.345 21.461 24.518999 30.635 36.750999 42.250999 44.693001 47.750999 50.193001 55.417999 61.534 64.592003 70.092003 73.754997 79.871002 85.371002 90.871002 93.313004 95.754997 101.871 107.371 110.429 115.929 118.371 121.429 127.545">True positive crosslink sites</tspan>
        </text>
      </g>
      <g
         id="g8984" />
      <g
         id="g8986">
        <text
           id="text8990"
           style="font-variant:normal;font-weight:normal;font-size:11px;font-family:Helvetica;-inkscape-font-specification:Helvetica;writing-mode:lr-tb;fill:#000000;fill-opacity:1;fill-rule:nonzero;stroke:none"
           transform="matrix(0,1,1,0,13.38,74.59)">
          <tspan
             id="tspan8988"
             sodipodi:role="line"
             y="0"
             x="0 7.3369999 11 17.115999 22.615999 25.058001 30.558001 33 39.116001 45.231998 48.290001">Precision %</tspan>
        </text>
      </g>
      <g
         id="g8992" />
      <g
         id="g8994" />
      <g
         id="g8996" />
      <g
         id="g8998" />
      <g
         id="g9000" />
      <g
         id="g9002" />
      <g
         id="g9004" />
      <g
         id="g9006" />
      <g
         id="g9008" />
      <g
         id="g9010" />
      <g
         id="g9012" />
    </g>
    <g
       transform="matrix(0.35277777,0,0,-0.35277777,-0.41887333,169.24581)"
       inkscape:label="bench_sim.pr.SIM_SET_FIX12.HMM_SET8.cs"
       id="g9169">
      <g
         id="g9171" />
      <g
         id="g9173" />
      <g
         id="g9175" />
      <g
         id="g9177" />
      <g
         id="g9179" />
      <g
         id="g9181" />
      <g
         id="g9183" />
      <g
         id="g9185" />
      <g
         id="g9187" />
      <g
         id="g9189" />
      <g
         id="g9191" />
      <g
         id="g9193">
        <g
           clip-path="url(#clipPath9199)"
           id="g9195">
          <path
             inkscape:connector-curvature="0"
             id="path9201"
             style="fill:#ffffff;fill-opacity:1;fill-rule:nonzero;stroke:#ffffff;stroke-width:1.07000005;stroke-linecap:round;stroke-linejoin:round;stroke-miterlimit:10;stroke-dasharray:none;stroke-opacity:1"
             d="M 0,3.15 H 180 V 176.86 H 0 Z" />
        </g>
      </g>
      <g
         id="g9203" />
      <g
         id="g9205">
        <g
           clip-path="url(#clipPath9211)"
           id="g9207">
          <path
             inkscape:connector-curvature="0"
             id="path9213"
             style="fill:#ffffff;fill-opacity:1;fill-rule:nonzero;stroke:none"
             d="M 39.03,35.88 H 174.52 V 171.37 H 39.03 Z" />
          <path
             inkscape:connector-curvature="0"
             id="path9215"
             style="fill:none;stroke:#008b45;stroke-width:1.60000002;stroke-linecap:butt;stroke-linejoin:round;stroke-miterlimit:1;stroke-dasharray:none;stroke-opacity:1"
             d="m 46.66,146.36 0.04,0.38 0.01,0.18 0.02,0.18 0.02,0.18 v 0 l 0.02,0.17 0.03,0.33 0.02,0.17 0.02,0.16 0.05,0.46 0.05,0.44 v 0 l 0.02,0.14 0.02,0.14 v 0 l 0.09,0.66 v 0 l 0.03,0.24 0.06,0.36 0.03,0.23 0.04,0.22 0.02,0.11 v 0 l 0.05,0.32 0.02,0.1 0.01,0.1 0.08,0.39 0.03,0.18 0.02,0.09 0.03,0.18 0.04,0.18 0.02,0.08 0.03,0.17 0.04,0.16 0.02,0.08 v 0 l 0.01,0.08 0.08,0.3 0.05,0.22 0.05,0.21 0.07,-0.4 0.06,0.21 0.07,0.26 0.03,0.12 0.02,0.06 0.09,0.3 0.03,0.12 0.06,-0.43 v 0.6 l 0.05,-0.42 0.04,-0.47 0.03,0.12 0.02,0.05 0.02,-0.5 0.09,0.28 0.05,0.17 0.09,0.26 0.12,-0.16 0.04,0.1 0.02,0.05 0.1,-0.2 0.06,-0.34 0.05,0.15 0.05,0.14 0.04,0.09 0.05,0.13 0.16,0.39 0.12,0.28 0.11,0.23 0.09,-0.23 0.11,0.22 0.05,0.11 0.14,0.27 0.05,-0.28 0.18,0.32 0.06,0.1 0.12,-0.51 0.11,0.19 0.12,-0.47 0.04,0.06 0.03,0.06 0.14,0.24 0.2,0.31 0.09,0.13 0.16,-0.07 0.17,0.25 0.09,-0.47 0.13,0.18 0.16,0.21 0.1,-0.14 0.2,-0.28 0.25,0.05 0.12,-0.1 0.13,0.16 0.14,0.17 0.16,0.18 0.09,-0.38 0.16,-0.05 0.14,0.16 0.1,-0.56 0.24,0.04 0.37,-0.23 0.18,-0.22 0.26,-0.31 0.18,-0.39 0.28,-0.62 0.09,0.1 0.2,-0.5 h 0.32 l 0.19,-0.96 0.37,0.09 0.36,-0.4 0.41,-0.02 0.51,-0.34 0.46,0.18 0.48,0.06 0.41,-0.02 0.52,-0.53 0.51,-0.49 0.55,0.14 0.53,-0.53 0.77,-0.2 0.72,0.08 0.7,-0.14 0.94,0.24 0.64,-0.34 0.87,-0.41 0.74,-0.45 0.91,-0.08 0.72,-1.05 0.94,-0.36 0.86,-0.44 1.04,-0.91 0.84,-1.87 1.21,-0.59 1.41,-0.61 0.95,-0.74 0.99,-1.3 1.35,-1.39 1.29,-1.23 0.94,-2.2 2.01,-1.27 1.3,-1.9 0.87,-3.27 2.27,-2.65 1.81,-3.83 1.04,-4.15 1.73,-4.61 2,-5.56 0.94,-5.17 v 0" />
          <path
             inkscape:connector-curvature="0"
             id="path9217"
             style="fill:none;stroke:#7f7f7f;stroke-width:1.60000002;stroke-linecap:butt;stroke-linejoin:round;stroke-miterlimit:1;stroke-dasharray:none;stroke-opacity:1"
             d="m 45.81,88.4 v 0.5 l 0.02,-0.18 v 0 0 0 l 0.01,0.3 0.04,-0.34 v 0.46 0.46 0 0 0 l 0.03,-0.36 v 0 l 0.04,0.95 v 0.44 l 0.02,0.24 0.03,-0.4 v 0.42 l 0.02,-1.4 0.04,-0.66 v 0.36 0.75 0.38 l 0.01,-1.97 v 0.7 l 0.02,-1.49 v 0.33 0.34 0.69 l 0.02,-0.8 0.04,1.09 0.03,-1.18 v 1.26 l 0.02,-3.64 v 0.55 1.14 l 0.02,-1.74 0.01,-0.04 v 0.26 l 0.04,0.42 0.04,0.4 0.01,-0.8 v 0 l 0.02,-1.21 v 0.69 l 0.02,-0.72 0.02,0.42 0.01,0.19 0.02,-1.3 v 0.41 l 0.02,-0.22 0.02,0.19 v 0 l 0.02,-0.02 v 0 l 0.05,0.74 0.03,0.34 0.02,-1.9 v 0.91 l 0.02,-1.26 0.09,0.83 0.03,0.15 0.02,-0.18 0.05,0.61 0.04,-0.19 0.04,0.29 0.05,-0.05 v 0.93 l 0.02,-0.95 0.05,0.4 0.04,0.11 0.01,-0.17 0.02,0.27 0.14,1.22 0.13,1.01 0.01,-0.31 0.06,0.43 0.05,0.01 0.04,-0.71 v 0.64 l 0.09,-0.18 0.08,0.56 0.04,0.05 0.02,-0.4 0.07,0.68 0.09,0.62 0.09,0.48 0.1,0.41 0.06,-0.36 0.03,-0.4 0.09,0.12 0.07,-0.06 0.13,0.84 0.07,0.13 0.14,0.44 0.14,0.51 0.07,0.19 0.04,0.1 0.17,0.46 0.04,-0.36 0.16,0.82 0.07,-0.36 0.21,0.9 0.23,0.7 0.16,0.29 0.11,-0.29 0.16,0.51 0.09,0.14 0.14,-0.59 0.21,0.2 0.27,0.66 0.11,-0.45 0.32,0.75 0.33,0.53 0.32,0.35 0.27,-0.03 0.32,0.42 0.35,0.7 0.3,0.13 0.27,-0.21 0.32,0.08 0.44,0.7 0.34,-0.95 0.39,-0.64 0.34,-0.58 0.58,-0.31 0.54,-0.83 0.62,-0.03 0.53,-0.24 0.48,-0.78 1.08,0.51 0.98,-0.23 1.15,0.39 1.07,-0.84 1.35,-0.2 1.58,-0.61 1.66,-0.71 2.13,0.15 2.74,-0.63 3.71,-0.36 3.88,-1.57 5.95,-1.54 8.47,-1.98 12.76,-2.86 21.44,-3.72 40.32,-5.35 v 0 0 0 0" />
          <path
             inkscape:connector-curvature="0"
             id="path9219"
             style="fill:none;stroke:#ff4500;stroke-width:1.60000002;stroke-linecap:butt;stroke-linejoin:round;stroke-miterlimit:1;stroke-dasharray:none;stroke-opacity:1"
             d="m 61.25,114.71 v 0 0 0 0 0 0 0 0 0 0 0 0 0 0 0 0 0 0 0 0 0 0 0 0 0 0 0 0 0 0 0 0 0 0 0 0 0 0 0 0 0 0 0 0 0 0 0 0 0 0 0 0 0 0 0 0 0 0 0 0 0 0 0 0 0 0 0 0 0 0 0 0 0 0 0 0 0 0 0 0 0 0 0 0 0 0 0 0 0 0 0 0 0 0 0 0 0 0 0 0 0 0 0 0 0 0 0 0 0 0 0 0 0 0 0 0 0 0 0 0 0 0 0 0 0 0 0 0 0 0 0 0 0 0 0 0 0 0 0 0 0 0 0 0 0 0 0 0 0 0 0 0 0 0 0 0 0 0 0 0 0 0 0 0 0 0 0 0 l 0.07,-0.29 v 0 0 l 0.14,0.26 2.43,4 2.77,2.22 1.01,-3.32 1.32,-4.86 1.03,-2.33 0.92,-2.2 0.67,-0.58 1.02,-0.42 0.71,-0.89 0.81,-1.03 0.84,-0.84 0.55,-0.96 1.08,-1.37 1.06,-0.79 1.12,-0.68 0.89,-1.22 1.3,-1.34 1.11,-1.4 1.12,-1.49 1.19,-1.78 1,-2.47 1.45,-2.08 v 0 0 0 0" />
          <path
             inkscape:connector-curvature="0"
             id="path9221"
             style="fill:none;stroke:#ffa500;stroke-width:1.60000002;stroke-linecap:butt;stroke-linejoin:round;stroke-miterlimit:1;stroke-dasharray:none;stroke-opacity:1"
             d="m 58.11,108.36 0.83,0.91 0.91,-1.21 0.55,-0.37 1.24,0.54 0.59,-0.31 0.37,-0.46 0.6,0.38 1.56,-1.47 0.61,-1.7 1.08,-0.39 1.72,-0.49 0.85,-1.94 1.1,-0.83 2.24,-1.36 1.85,-3.44 1.31,-4.61 4.24,-1.59 2.84,-2.09 2.61,0.14 1.65,0.78 v 0 0 0 0 0 0 0" />
          <path
             inkscape:connector-curvature="0"
             id="path9223"
             style="fill:none;stroke:#5d478b;stroke-width:1.60000002;stroke-linecap:butt;stroke-linejoin:round;stroke-miterlimit:1;stroke-dasharray:none;stroke-opacity:1"
             d="m 63.13,118.96 v 0 0 0 0 0 0 0 0 0 0 0 0 0 0 0 0 0 0 0 0 0 0 0 0 0 0 0 0 0 0 0 0 0 0 0 0 0 0 0 0 0 0 0 0 0 0 0 0 0 0 0 0 0 0 0 0 0 0 0 0 0 0 0 0 0 0 0 0 0 0 0 0 0 0 0 0 0 0 0 0 0 0 0 0 0 0 0 0 0 0 0 0 0 0 0 0 0 0 0 0 0 0 0 0 0 0 0 0 0 0 0 0 0 0 0 0 0 0 0 0 0 0 0 0 0 0 0 0 0 0 0 0 0 0 0 0 0 0 0 0 0 0 0 0 0 0 0 0 0 0 0 0 0 0 0 0 0 0 0 0 0 0 0 0 0 0 0 0 l 0.14,-0.2 v 0 0 l 0.16,0.25 2.45,3.49 2.88,2.03 1.17,-2.63 1.58,-4.38 1.7,-1.67 1.58,-1.24 1.16,-0.33 1.7,-0.06 1.24,-0.43 1.56,-0.66 1.6,-0.38 1.62,-0.4 2.18,-0.96 2.16,-0.63 2.42,-0.23 2.59,-0.74 3.12,-1.03 4.12,-0.52 4.17,-0.94 4.6,-1.34 5.47,-1.9 4.29,-2.43 v 0 0 0 0" />
          <path
             inkscape:connector-curvature="0"
             id="path9225"
             style="fill:none;stroke:#9370db;stroke-width:1.60000002;stroke-linecap:butt;stroke-linejoin:round;stroke-miterlimit:1;stroke-dasharray:none;stroke-opacity:1"
             d="m 47.49,67.02 v 0 0 0 0 0 0 0 0 0 0 0 0 0 0 0 0 0 0 0 0 0 0 0 0 0 0 0 0 0 0 0 0 0 0 0 0 0 0 0 0 0 0 0 0 0 0 0 0 0 0 0 0 0 0 0 0 0 0 0 0 0 0 0 0 0 0 0 0 0 0 0 0 0 0 0 0 0 0 0 0 0 0 0 0 0 0 0 0 0 0 0 0 l 0.04,0.31 v 0 0 0 0 0 0 l 0.05,0.45 v 0 0 0 0 l 0.02,-0.66 v 0.3 0.31 0 0 0 0 0 0 0 0 0 0 0 0 0 0 0 0 l 0.04,-0.51 v 0 0 0 0 0.19 0 0 0 l 0.01,-0.04 v 0 0 0 0 0 0 0 0 0 l 0.06,0.43 0.05,0.2 v 0 0.23 0 0 l 0.04,0.05 v 0 0 0 l 0.01,-0.01 v 0 0.15 0 0 l 0.04,-0.17 v 0 0.3 0 0 0 0 0 0 l 0.03,-0.03 v 0 0 0 l 0.06,0.41 0.02,0.14 v 0 l 0.07,0.23 v 0 0 l 0.07,0.11 v 0 0 0.08 0.18 0.16 0 0 l 0.09,0.23 0.05,-0.18 v 0 0 0.18 0 0.12 0.26 l 0.07,-0.06 v 0 0 0 0 l 0.02,-0.85 v 0 0.25 0 0.21 0 0.22 0.18 l 0.12,-0.13 v 0.11 0 0 0 l 0.09,0.41 0.07,0.46 v 0 0 0 l 0.07,0.11 v 0 l 0.06,0.16 v 0.14 0 0 l 0.17,0.97 0.04,0.03 v 0 0 0.18 l 0.09,-0.21 v 0.18 0 0.18 l 0.03,-0.36 0.09,0.53 v 0 0 l 0.02,0.1 v 0 l 0.05,0.17 v 0.07 0 0.07 0 l 0.07,-1.38 v 0.23 0.29 0 0 0 0 0 0 0 0.03 0 0.3 0 0.38 0 0 0 0 0 0 0.24 0 l 0.06,-1.17 v 0 l 0.03,0.19 v 0 l 0.04,-0.25 v 0 0 0.38 0 0 0 l 0.03,-0.19 v 0 l 0.02,-0.12 v 0 l 0.04,0.12 v 0 0 0 0.07 0 l 0.07,0.31 v 0 l 0.18,0.61 v 0 0 0 0.09 0.22 0 0 l 0.01,-0.75 v 0 0.07 0 0 0.24 0 0 0 0.22 L 49.8,72.4 v 0 0.23 0.09 0 0 0 l 0.06,-0.2 v 0.14 l 0.03,-0.48 v 0.2 0.17 0 l 0.07,-0.08 0.09,0.39 0.05,-0.16 v 0.41 l 0.06,-0.39 v 0.22 0 l 0.01,-0.13 v 0 l 0.04,-0.77 v 0.02 0 0.29 0.38 0.13 0 0.11 l 0.07,-0.77 0.02,0.08 0.07,0.27 v 0 0.05 0 0 l 0.07,0.05 v 0.21 l 0.14,0.41 0.06,0.23 v 0 l 0.01,0.08 v 0 l 0.07,-0.01 0.06,-0.66 v 0.17 0.05 0 0.51 0.02 0 0 l 0.02,-0.68 v 0 l 0.01,-0.34 v 0 0 0.1 0 0.22 l 0.11,0.11 v 0 0 l 0.07,-0.33 v 0.09 0 0.26 l 0.05,-0.46 v 0 0 0.02 0.04 0 l 0.04,-0.2 v 0.27 l 0.04,-1.42 v 0.15 0 0 0.02 0.15 0 0 0.67 0.16 l 0.12,-0.68 0.02,-0.02 0.03,0.03 0.13,0.39 0.05,0.13 0.07,-0.46 v 0.14 0 0.45 l 0.07,-0.56 v 0.04 l 0.04,0.02 0.07,-0.19 v 0.08 0.18 0.08 l 0.05,-0.33 0.07,-0.08 v 0 0.13 0.06 0 l 0.06,-0.45 v 0.25 0.07 0.12 l 0.08,-0.62 v 0 0 0 0 0.05 0.11 l 0.02,-0.19 0.07,0.23 0.04,0.11 0.07,0.14 0.02,-0.26 v 0.05 0 0.13 0.09 l 0.09,-0.03 v 0.02 l 0.05,-0.53 v 0.41 0 l 0.07,-0.19 0.07,0.08 0.02,-0.03 0.04,-0.21 v 0.16 l 0.12,0.19 0.03,-0.14 0.06,0.06 v 0.05 l 0.03,-0.09 0.13,0.21 v 0.15 l 0.03,-0.14 0.11,0.31 0.05,-0.11 v 0.16 l 0.06,-0.08 0.01,0.04 v 0.01 0 l 0.06,-0.14 0.01,-0.2 v 0.03 0.18 l 0.13,0.12 h 0.03 v 0 l 0.11,0.25 v 0.02 l 0.13,0.22 0.03,-0.03 v 0.02 0.02 0.07 l 0.07,0.02 0.06,-0.09 v 0.11 l 0.01,-0.23 0.02,-0.25 v 0.2 l 0.11,-0.38 v 0.13 0.17 l 0.01,-0.4 v 0.07 l 0.04,-0.07 0.14,-0.03 V 71.97 72 l 0.02,-0.15 v 0 l 0.07,0.03 0.04,-0.4 v 0.01 0.11 0 0.1 0.07 0.13 l 0.09,-0.33 0.05,0.01 0.05,0.01 0.07,0.09 0.09,-0.02 0.07,-0.14 v 0.26 l 0.06,-0.16 0.08,-0.01 v 0.09 0.09 l 0.06,-0.24 0.05,-0.46 v 0.14 0.13 0.15 0.11 L 55,71.07 55.09,71.1 v 0.13 l 0.09,0.02 0.07,-0.21 v 0.09 0.23 l 0.11,-0.2 v 0.08 l 0.09,-0.05 v 0.15 l 0.07,-0.29 v 0.18 l 0.12,0.04 0.02,-0.08 0.02,-0.17 v 0.14 l 0.05,-0.2 0.09,0.11 v 0.04 l 0.14,-0.34 v 0.19 0.13 l 0.05,-0.48 v 0.06 l 0.11,-0.06 v 0.08 l 0.16,0.17 0.12,0.15 0.04,-0.1 0.05,0.01 0.02,-0.18 v 0.18 l 0.12,0.04 0.15,0.02 0.09,0.02 0.12,0.07 0.07,-0.02 0.14,0.17 0.11,0.09 0.07,0.09 0.07,0.08 0.04,-0.01 0.17,0.14 0.02,-0.04 0.06,-0.27 v 0.27 l 0.07,-0.31 0.03,0.05 0.09,0.12 0.02,-0.03 v 0.03 l 0.23,-0.1 v 0.32 l 0.11,-0.15 0.14,0.15 0.14,0.16 0.02,-0.21 0.14,0.17 v 0.03 l 0.02,-0.13 0.05,-0.02 0.07,-0.03 0.3,0.27 0.06,0.04 0.07,0.03 0.03,-0.04 0.09,0.03 0.11,0.09 0.18,0.17 0.16,0.17 0.24,0.28 0.2,0.07 0.19,0.22 0.16,0.1 0.15,0.03 0.08,0.02 0.08,-0.01 0.28,0.22 0.19,0.18 0.27,0.19 0.14,0.16 0.18,0.01 0.07,-0.01 0.2,0.17 0.09,-0.06 0.12,0.08 0.19,0.08 0.16,0.11 0.22,0.2 0.41,0.41 0.16,0.11 0.14,0.13 0.3,0.26 0.03,-0.13 h 0.08 l 0.26,0.25 0.13,-0.02 0.21,0.04 0.12,-0.04 0.2,0.01 0.11,-0.01 0.15,0.1 0.32,0.2 0.27,0.19 0.21,0.17 0.29,0.24 0.02,-0.04 0.24,0.21 0.32,0.2 0.22,0.13 0.16,0.03 0.24,0.21 0.2,0.07 0.14,0.05 0.2,0.12 0.14,0.01 0.27,0.2 0.42,0.33 0.3,0.2 0.23,0.12 0.36,0.29 0.35,0.3 0.02,-0.12 0.36,0.26 0.19,0.09 0.25,0.17 0.28,0.2 0.15,0.03 0.32,0.13 0.23,0.11 0.23,0.09 0.62,0.47 0.21,0.09 0.36,0.17 0.37,0.13 0.25,0.1 0.23,0.09 0.46,0.23 0.44,0.25 0.38,0.22 0.51,0.33 0.43,0.23 0.65,0.47 0.39,0.19 0.48,0.31 0.52,0.32 0.39,0.2 0.37,0.21 0.69,0.32 0.36,0.12 0.8,0.53 0.6,0.36 0.46,0.22 1.17,0.78 0.71,0.37 0.94,0.58 0.75,0.41 0.83,0.43 1.01,0.57 0.38,0.1 1.1,0.66 0.53,0.17 1.1,0.62 0.92,0.51 0.87,0.45 1.76,0.98 0.75,0.21 1.63,0.74 0.67,0.25 2.43,1.15 0.82,0.3 2.18,0.91 0.96,0.28 2.97,1.33 0.83,0.28 3.34,1.35 1.26,0.47 2.7,1.04 2.29,0.9 0.51,0.18 1.1,0.33 v 0 0.05" />
          <path
             inkscape:connector-curvature="0"
             id="path9227"
             style="fill:none;stroke:#1a1a1a;stroke-width:1.60000002;stroke-linecap:butt;stroke-linejoin:round;stroke-miterlimit:1;stroke-dasharray:none;stroke-opacity:1"
             d="m 64.04,119.22 v 0 0 0 0 0 0 0 0 0 0 0 0 0 0 0 0 0 0 0 0 0 0 0 0 0 0 0 0 0 0 0 0 0 0 0 0 0 0 0 0 0 0 0 0 0 0 0 0 0 0 0 0 0 0 0 0 0 0 0 0 0 0 0 0 0 0 0 0 0 0 0 0 0 0 0 0 0 0 0 0 0 0 0 0 0 0 0 0 0 0 0 0 0 0 0 0 0 0 0 0 0 0 0 0 0 0 0 0 0 0 0 0 0 0 0 0 0 0 0 0 0 0 0 0 0 0 0 0 0 0 0 0 0 0 0 0 0 0 0 0 0 0 0 0 0 0 0 0 0 0 0 0 0 0 0 0 0 0 0 0 0 0 0 0 0 0 0 0 l 0.16,-0.21 v 0 0 l 0.16,0.24 2.52,3.41 2.89,1.79 1.22,-3.09 1.65,-4.54 1.85,-1.6 1.65,-1.6 1.21,-0.32 1.81,0.05 1.33,-0.56 1.74,-0.53 1.81,-0.24 1.72,-0.4 2.33,-0.9 2.5,-0.48 2.64,-0.26 2.79,-0.73 3.62,-0.88 4.65,-0.39 4.81,-0.72 5.16,-1.16 5.99,-1.89 5.09,-2.39 v 0 0 0 0" />
        </g>
      </g>
      <g
         id="g9229" />
      <g
         id="g9231" />
      <g
         id="g9233" />
      <g
         id="g9235" />
      <g
         id="g9237" />
      <g
         id="g9239" />
      <g
         id="g9241" />
      <g
         id="g9243" />
      <g
         id="g9245" />
      <g
         id="g9247" />
      <g
         id="g9249" />
      <g
         id="g9251" />
      <g
         id="g9253">
        <path
           inkscape:connector-curvature="0"
           id="path9255"
           style="fill:none;stroke:#000000;stroke-width:1.07000005;stroke-linecap:butt;stroke-linejoin:round;stroke-miterlimit:10;stroke-dasharray:none;stroke-opacity:1"
           d="M 39.03,35.88 V 171.37" />
      </g>
      <g
         id="g9257" />
      <g
         id="g9259" />
      <g
         id="g9261">
        <text
           id="text9265"
           style="font-variant:normal;font-weight:normal;font-size:9px;font-family:Helvetica;-inkscape-font-specification:Helvetica;writing-mode:lr-tb;fill:#4d4d4d;fill-opacity:1;fill-rule:nonzero;stroke:none"
           transform="matrix(1,0,0,-1,29.09,38.81)">
          <tspan
             id="tspan9263"
             y="0"
             x="0">0</tspan>
        </text>
        <text
           id="text9269"
           style="font-variant:normal;font-weight:normal;font-size:9px;font-family:Helvetica;-inkscape-font-specification:Helvetica;writing-mode:lr-tb;fill:#4d4d4d;fill-opacity:1;fill-rule:nonzero;stroke:none"
           transform="matrix(1,0,0,-1,24.09,69.6)">
          <tspan
             id="tspan9267"
             sodipodi:role="line"
             y="0"
             x="0 5.0040002">25</tspan>
        </text>
        <text
           id="text9273"
           style="font-variant:normal;font-weight:normal;font-size:9px;font-family:Helvetica;-inkscape-font-specification:Helvetica;writing-mode:lr-tb;fill:#4d4d4d;fill-opacity:1;fill-rule:nonzero;stroke:none"
           transform="matrix(1,0,0,-1,24.09,100.4)">
          <tspan
             id="tspan9271"
             sodipodi:role="line"
             y="0"
             x="0 5.0040002">50</tspan>
        </text>
        <text
           id="text9277"
           style="font-variant:normal;font-weight:normal;font-size:9px;font-family:Helvetica;-inkscape-font-specification:Helvetica;writing-mode:lr-tb;fill:#4d4d4d;fill-opacity:1;fill-rule:nonzero;stroke:none"
           transform="matrix(1,0,0,-1,24.09,131.19)">
          <tspan
             id="tspan9275"
             sodipodi:role="line"
             y="0"
             x="0 5.0040002">75</tspan>
        </text>
        <text
           id="text9281"
           style="font-variant:normal;font-weight:normal;font-size:9px;font-family:Helvetica;-inkscape-font-specification:Helvetica;writing-mode:lr-tb;fill:#4d4d4d;fill-opacity:1;fill-rule:nonzero;stroke:none"
           transform="matrix(1,0,0,-1,19.08,161.98)">
          <tspan
             id="tspan9279"
             sodipodi:role="line"
             y="0"
             x="0 5.0040002 10.008">100</tspan>
        </text>
      </g>
      <g
         id="g9283" />
      <g
         id="g9285">
        <path
           inkscape:connector-curvature="0"
           id="path9287"
           style="fill:none;stroke:#333333;stroke-width:1.07000005;stroke-linecap:butt;stroke-linejoin:round;stroke-miterlimit:10;stroke-dasharray:none;stroke-opacity:1"
           d="m 36.29,42.04 h 2.74" />
        <path
           inkscape:connector-curvature="0"
           id="path9289"
           style="fill:none;stroke:#333333;stroke-width:1.07000005;stroke-linecap:butt;stroke-linejoin:round;stroke-miterlimit:10;stroke-dasharray:none;stroke-opacity:1"
           d="m 36.29,72.83 h 2.74" />
        <path
           inkscape:connector-curvature="0"
           id="path9291"
           style="fill:none;stroke:#333333;stroke-width:1.07000005;stroke-linecap:butt;stroke-linejoin:round;stroke-miterlimit:10;stroke-dasharray:none;stroke-opacity:1"
           d="m 36.29,103.63 h 2.74" />
        <path
           inkscape:connector-curvature="0"
           id="path9293"
           style="fill:none;stroke:#333333;stroke-width:1.07000005;stroke-linecap:butt;stroke-linejoin:round;stroke-miterlimit:10;stroke-dasharray:none;stroke-opacity:1"
           d="m 36.29,134.42 h 2.74" />
        <path
           inkscape:connector-curvature="0"
           id="path9295"
           style="fill:none;stroke:#333333;stroke-width:1.07000005;stroke-linecap:butt;stroke-linejoin:round;stroke-miterlimit:10;stroke-dasharray:none;stroke-opacity:1"
           d="m 36.29,165.21 h 2.74" />
      </g>
      <g
         id="g9297" />
      <g
         id="g9299" />
      <g
         id="g9301" />
      <g
         id="g9303" />
      <g
         id="g9305" />
      <g
         id="g9307" />
      <g
         id="g9309">
        <path
           inkscape:connector-curvature="0"
           id="path9311"
           style="fill:none;stroke:#000000;stroke-width:1.07000005;stroke-linecap:butt;stroke-linejoin:round;stroke-miterlimit:10;stroke-dasharray:none;stroke-opacity:1"
           d="M 39.03,35.88 H 174.52" />
      </g>
      <g
         id="g9313" />
      <g
         id="g9315" />
      <g
         id="g9317">
        <path
           inkscape:connector-curvature="0"
           id="path9319"
           style="fill:none;stroke:#333333;stroke-width:1.07000005;stroke-linecap:butt;stroke-linejoin:round;stroke-miterlimit:10;stroke-dasharray:none;stroke-opacity:1"
           d="m 45.19,33.14 v 2.74" />
        <path
           inkscape:connector-curvature="0"
           id="path9321"
           style="fill:none;stroke:#333333;stroke-width:1.07000005;stroke-linecap:butt;stroke-linejoin:round;stroke-miterlimit:10;stroke-dasharray:none;stroke-opacity:1"
           d="m 80.68,33.14 v 2.74" />
        <path
           inkscape:connector-curvature="0"
           id="path9323"
           style="fill:none;stroke:#333333;stroke-width:1.07000005;stroke-linecap:butt;stroke-linejoin:round;stroke-miterlimit:10;stroke-dasharray:none;stroke-opacity:1"
           d="m 116.18,33.14 v 2.74" />
        <path
           inkscape:connector-curvature="0"
           id="path9325"
           style="fill:none;stroke:#333333;stroke-width:1.07000005;stroke-linecap:butt;stroke-linejoin:round;stroke-miterlimit:10;stroke-dasharray:none;stroke-opacity:1"
           d="m 151.68,33.14 v 2.74" />
      </g>
      <g
         id="g9327" />
      <g
         id="g9329">
        <text
           id="text9333"
           style="font-variant:normal;font-weight:normal;font-size:9px;font-family:Helvetica;-inkscape-font-specification:Helvetica;writing-mode:lr-tb;fill:#4d4d4d;fill-opacity:1;fill-rule:nonzero;stroke:none"
           transform="matrix(1,0,0,-1,42.69,24.49)">
          <tspan
             id="tspan9331"
             y="0"
             x="0">0</tspan>
        </text>
        <text
           id="text9337"
           style="font-variant:normal;font-weight:normal;font-size:9px;font-family:Helvetica;-inkscape-font-specification:Helvetica;writing-mode:lr-tb;fill:#4d4d4d;fill-opacity:1;fill-rule:nonzero;stroke:none"
           transform="matrix(1,0,0,-1,70.68,24.49)">
          <tspan
             id="tspan9335"
             sodipodi:role="line"
             y="0"
             x="0 5.0040002 10.008 15.012">2000</tspan>
        </text>
        <text
           id="text9341"
           style="font-variant:normal;font-weight:normal;font-size:9px;font-family:Helvetica;-inkscape-font-specification:Helvetica;writing-mode:lr-tb;fill:#4d4d4d;fill-opacity:1;fill-rule:nonzero;stroke:none"
           transform="matrix(1,0,0,-1,106.17,24.49)">
          <tspan
             id="tspan9339"
             sodipodi:role="line"
             y="0"
             x="0 5.0040002 10.008 15.012">4000</tspan>
        </text>
        <text
           id="text9345"
           style="font-variant:normal;font-weight:normal;font-size:9px;font-family:Helvetica;-inkscape-font-specification:Helvetica;writing-mode:lr-tb;fill:#4d4d4d;fill-opacity:1;fill-rule:nonzero;stroke:none"
           transform="matrix(1,0,0,-1,141.67,24.49)">
          <tspan
             id="tspan9343"
             sodipodi:role="line"
             y="0"
             x="0 5.0040002 10.008 15.012">6000</tspan>
        </text>
      </g>
      <g
         id="g9347" />
      <g
         id="g9349" />
      <g
         id="g9351" />
      <g
         id="g9353" />
      <g
         id="g9355" />
      <g
         id="g9357">
        <text
           id="text9361"
           style="font-variant:normal;font-weight:normal;font-size:11px;font-family:Helvetica;-inkscape-font-specification:Helvetica;writing-mode:lr-tb;fill:#000000;fill-opacity:1;fill-rule:nonzero;stroke:none"
           transform="matrix(1,0,0,-1,40.25,11.11)">
          <tspan
             id="tspan9359"
             sodipodi:role="line"
             y="0"
             x="0 5.401 9.2290001 15.345 21.461 24.518999 30.635 36.750999 42.250999 44.693001 47.750999 50.193001 55.417999 61.534 64.592003 70.092003 73.754997 79.871002 85.371002 90.871002 93.313004 95.754997 101.871 107.371 110.429 115.929 118.371 121.429 127.545">True positive crosslink sites</tspan>
        </text>
      </g>
      <g
         id="g9363" />
      <g
         id="g9365">
        <text
           id="text9369"
           style="font-variant:normal;font-weight:normal;font-size:11px;font-family:Helvetica;-inkscape-font-specification:Helvetica;writing-mode:lr-tb;fill:#000000;fill-opacity:1;fill-rule:nonzero;stroke:none"
           transform="matrix(0,1,1,0,13.38,74.59)">
          <tspan
             id="tspan9367"
             sodipodi:role="line"
             y="0"
             x="0 7.3369999 11 17.115999 22.615999 25.058001 30.558001 33 39.116001 45.231998 48.290001">Precision %</tspan>
        </text>
      </g>
      <g
         id="g9371" />
      <g
         id="g9373" />
      <g
         id="g9375" />
      <g
         id="g9377" />
      <g
         id="g9379" />
      <g
         id="g9381" />
      <g
         id="g9383" />
      <g
         id="g9385" />
      <g
         id="g9387" />
      <g
         id="g9389" />
      <g
         id="g9391" />
    </g>
  </g>
</svg>
