<?xml version="1.0" encoding="UTF-8" standalone="no"?>
<!-- Created with Inkscape (http://www.inkscape.org/) -->

<svg
   xmlns:dc="http://purl.org/dc/elements/1.1/"
   xmlns:cc="http://creativecommons.org/ns#"
   xmlns:rdf="http://www.w3.org/1999/02/22-rdf-syntax-ns#"
   xmlns:svg="http://www.w3.org/2000/svg"
   xmlns="http://www.w3.org/2000/svg"
   xmlns:sodipodi="http://sodipodi.sourceforge.net/DTD/sodipodi-0.dtd"
   xmlns:inkscape="http://www.inkscape.org/namespaces/inkscape"
   width="206.62698mm"
   height="68.266365mm"
   viewBox="0 0 206.62698 68.266365"
   version="1.1"
   id="svg6694"
   inkscape:version="0.92.2 5c3e80d, 2017-08-06"
   sodipodi:docname="bgnoise1.svg">
  <defs
     id="defs6688">
    <clipPath
       id="clipPath6785"
       clipPathUnits="userSpaceOnUse">
      <path
         inkscape:connector-curvature="0"
         id="path6783"
         d="M 0,3.15 H 180 V 176.86 H 0 Z" />
    </clipPath>
    <clipPath
       id="clipPath6797"
       clipPathUnits="userSpaceOnUse">
      <path
         inkscape:connector-curvature="0"
         id="path6795"
         d="M 39.03,35.88 H 174.52 V 171.37 H 39.03 Z" />
    </clipPath>
    <clipPath
       id="clipPath7164"
       clipPathUnits="userSpaceOnUse">
      <path
         inkscape:connector-curvature="0"
         id="path7162"
         d="M 0,3.15 H 180 V 176.86 H 0 Z" />
    </clipPath>
    <clipPath
       id="clipPath7176"
       clipPathUnits="userSpaceOnUse">
      <path
         inkscape:connector-curvature="0"
         id="path7174"
         d="M 39.03,35.88 H 174.52 V 171.37 H 39.03 Z" />
    </clipPath>
    <clipPath
       id="clipPath7559"
       clipPathUnits="userSpaceOnUse">
      <path
         inkscape:connector-curvature="0"
         id="path7557"
         d="M 0,3.15 H 180 V 176.86 H 0 Z" />
    </clipPath>
    <clipPath
       id="clipPath7571"
       clipPathUnits="userSpaceOnUse">
      <path
         inkscape:connector-curvature="0"
         id="path7569"
         d="M 39.03,35.88 H 174.52 V 171.37 H 39.03 Z" />
    </clipPath>
    <clipPath
       id="clipPath7954"
       clipPathUnits="userSpaceOnUse">
      <path
         inkscape:connector-curvature="0"
         id="path7952"
         d="M 0,3.15 H 180 V 176.86 H 0 Z" />
    </clipPath>
    <clipPath
       id="clipPath7966"
       clipPathUnits="userSpaceOnUse">
      <path
         inkscape:connector-curvature="0"
         id="path7964"
         d="M 39.03,35.88 H 174.52 V 171.37 H 39.03 Z" />
    </clipPath>
  </defs>
  <sodipodi:namedview
     id="base"
     pagecolor="#ffffff"
     bordercolor="#666666"
     borderopacity="1.0"
     inkscape:pageopacity="0.0"
     inkscape:pageshadow="2"
     inkscape:zoom="0.7"
     inkscape:cx="345.87395"
     inkscape:cy="115.80668"
     inkscape:document-units="mm"
     inkscape:current-layer="layer1"
     showgrid="false"
     fit-margin-top="0"
     fit-margin-left="0"
     fit-margin-right="0"
     fit-margin-bottom="0"
     inkscape:window-width="1280"
     inkscape:window-height="702"
     inkscape:window-x="0"
     inkscape:window-y="1"
     inkscape:window-maximized="1" />
  <metadata
     id="metadata6691">
    <rdf:RDF>
      <cc:Work
         rdf:about="">
        <dc:format>image/svg+xml</dc:format>
        <dc:type
           rdf:resource="http://purl.org/dc/dcmitype/StillImage" />
        <dc:title></dc:title>
      </cc:Work>
    </rdf:RDF>
  </metadata>
  <g
     inkscape:label="Layer 1"
     inkscape:groupmode="layer"
     id="layer1"
     transform="translate(87.983357,-111.20749)">
    <g
       transform="matrix(0.35277777,0,0,-0.35277777,-87.983357,180.5851)"
       inkscape:label="bench_sim.pr.SIM_SET_FIX8.HMM_SET8.cs"
       id="g7134">
      <g
         id="g7136" />
      <g
         id="g7138" />
      <g
         id="g7140" />
      <g
         id="g7142" />
      <g
         id="g7144" />
      <g
         id="g7146" />
      <g
         id="g7148" />
      <g
         id="g7150" />
      <g
         id="g7152" />
      <g
         id="g7154" />
      <g
         id="g7156" />
      <g
         id="g7158">
        <g
           clip-path="url(#clipPath7164)"
           id="g7160">
          <path
             inkscape:connector-curvature="0"
             id="path7166"
             style="fill:#ffffff;fill-opacity:1;fill-rule:nonzero;stroke:#ffffff;stroke-width:1.07000005;stroke-linecap:round;stroke-linejoin:round;stroke-miterlimit:10;stroke-dasharray:none;stroke-opacity:1"
             d="M 0,3.15 H 180 V 176.86 H 0 Z" />
        </g>
      </g>
      <g
         id="g7168" />
      <g
         id="g7170">
        <g
           clip-path="url(#clipPath7176)"
           id="g7172">
          <path
             inkscape:connector-curvature="0"
             id="path7178"
             style="fill:#ffffff;fill-opacity:1;fill-rule:nonzero;stroke:none"
             d="M 39.03,35.88 H 174.52 V 171.37 H 39.03 Z" />
          <path
             inkscape:connector-curvature="0"
             id="path7180"
             style="fill:none;stroke:#008b45;stroke-width:1.60000002;stroke-linecap:butt;stroke-linejoin:round;stroke-miterlimit:1;stroke-dasharray:none;stroke-opacity:1"
             d="m 46.94,154.76 0.05,0.28 0.04,0.19 0.03,0.17 0.02,0.09 v 0 l 0.02,0.09 0.02,0.08 v 0 l 0.03,0.16 0.02,0.08 0.04,0.15 0.02,0.08 0.05,0.22 0.02,0.07 0.03,0.13 0.04,0.14 0.02,0.06 0.05,0.19 0.06,0.18 0.01,0.06 0.04,0.12 0.09,0.27 0.09,0.25 0.04,0.1 0.01,0.05 0.04,0.09 0.02,0.05 0.05,0.13 v 0 0 l 0.02,0.05 0.07,0.17 v 0 l 0.04,0.08 v 0 l 0.05,0.12 0.04,0.07 0.04,0.08 0.03,0.07 0.02,0.04 0.05,-0.55 v 0 l 0.08,-0.48 0.03,0.08 0.07,-0.45 v 0.6 l 0.02,-0.56 0.04,0.07 0.02,0.04 0.05,0.12 0.13,0.25 0.01,0.03 0.02,0.04 0.07,0.13 0.02,0.04 0.04,0.06 0.16,0.28 v 0 l 0.04,0.05 0.09,0.15 0.03,0.05 0.09,-0.36 0.04,0.06 0.07,0.11 0.04,0.05 0.05,0.08 0.07,0.1 0.08,0.1 0.05,0.07 0.04,0.05 0.05,0.06 0.04,0.05 0.09,0.11 0.03,0.04 0.2,0.23 0.04,0.03 0.09,0.1 0.11,-0.28 0.14,0.15 0.07,0.07 0.07,0.07 0.17,-0.21 0.01,-0.34 0.11,-0.59 0.08,-0.27 0.05,0.06 0.09,0.1 0.16,0.17 0.04,0.03 0.25,0.25 0.25,0.22 0.09,-0.22 0.2,0.17 0.09,0.08 0.18,0.14 0.2,-0.12 0.25,0.19 0.17,-0.15 0.3,-0.03 0.15,-0.15 0.25,-0.29 0.16,0.11 0.22,-0.53 0.23,0.17 0.18,-0.09 0.24,0.16 0.36,0.02 0.48,0.29 0.2,-0.07 0.13,0.07 0.45,-0.12 0.38,-0.15 0.43,-0.1 0.45,-0.09 0.49,-0.07 0.52,-0.05 0.45,0.07 0.78,-0.6 0.54,-0.01 0.56,-0.13 0.56,-0.24 h 0.79 l 0.51,-0.12 0.83,-0.09 0.83,-0.18 0.93,0.25 0.78,0.09 0.94,0.05 0.88,-0.06 1.16,-0.05 1.2,-0.27 1.07,-0.13 0.81,-0.41 1.28,-0.58 0.85,-0.46 0.96,-0.78 1.01,-0.16 1.89,0.11 1.06,-0.24 0.98,-0.2 1.62,-0.61 1.66,-0.63 1.3,-1.4 1.08,-0.75 1.88,-1.37 1.57,-1.52 1.37,-1.61 1.67,-2.32 2.22,-4.11 1.36,-3.78 v 0" />
          <path
             inkscape:connector-curvature="0"
             id="path7182"
             style="fill:none;stroke:#7f7f7f;stroke-width:1.60000002;stroke-linecap:butt;stroke-linejoin:round;stroke-miterlimit:1;stroke-dasharray:none;stroke-opacity:1"
             d="m 45.82,89.42 0.05,1.38 v 0 0.51 l 0.02,0.25 v 0 l 0.02,0.25 0.03,0.46 v 0 0 l 0.04,0.9 v 0.49 l 0.02,-0.3 0.02,-0.27 0.03,1.27 0.02,0.62 0.02,0.15 0.02,-0.74 v 1.34 l 0.02,-1.19 0.03,-0.94 v 0.4 0.41 l 0.02,-1.05 0.02,0.16 0.02,-0.6 v 0.74 0 0 l 0.01,-0.95 v 0 0.36 l 0.04,0.65 0.04,-2.09 v 0.65 0.34 1.37 l 0.05,-0.95 0.04,-0.06 v 0.32 0 0 l 0.01,-0.19 0.04,-0.05 0.04,0.84 0.03,-0.07 0.02,-0.75 v 0.57 l 0.04,0.22 0.01,-1.79 v 0.26 0.53 1.39 l 0.02,-1.8 0.04,0.75 0.02,0.1 0.05,1.08 0.05,0.53 0.02,0.08 0.02,-1.4 0.02,-1.3 v 0.92 l 0.05,-0.84 0.04,-0.02 0.07,1 0.04,0.17 0.09,0.6 0.09,1.17 0.03,0.54 0.04,-0.08 0.09,0.48 v 0.39 l 0.02,-0.73 0.03,-0.08 0.04,0.49 0.07,0.2 0.07,0.18 0.04,0.09 0.02,0.05 0.02,-1 v 0.69 l 0.07,-0.33 0.05,0.3 0.09,0.38 0.04,-0.25 v 0.65 l 0.05,-0.05 0.08,0.78 0.05,0.25 0.05,0.09 0.13,0.2 0.07,0.1 0.09,0.71 0.07,-0.2 0.13,0.85 0.04,-0.1 0.1,0.38 0.11,0.23 0.09,0.33 0.11,0.6 0.09,-0.21 0.13,0.32 0.07,0.03 0.16,0.32 0.13,0.04 0.16,0.17 0.2,0.95 0.09,-0.1 0.16,0.56 0.13,0.43 0.03,-0.95 0.24,0.43 0.14,0.2 0.22,0.47 0.09,-0.19 0.34,0.79 0.24,0.59 0.16,-0.22 0.2,0.3 0.18,0.37 0.3,0.64 0.46,0.85 0.32,0.23 0.25,0.18 0.54,0.59 0.58,0.65 0.65,0.94 0.56,-0.05 0.49,-0.17 0.7,0.86 0.72,0.38 0.74,0.23 0.83,0.35 0.97,0.09 1.23,0.98 1.34,-0.27 1.69,0.41 1.66,-0.39 2.16,-0.23 2.28,-0.06 2.76,-0.69 3.42,-0.87 4.35,-1.33 6.19,-1.7 8.62,-2.84 12.52,-4.45 20.23,-6.05 39.54,-8.07 v 0 0 0 0" />
          <path
             inkscape:connector-curvature="0"
             id="path7184"
             style="fill:none;stroke:#ff4500;stroke-width:1.60000002;stroke-linecap:butt;stroke-linejoin:round;stroke-miterlimit:1;stroke-dasharray:none;stroke-opacity:1"
             d="m 61.6,141.15 v 0 0 0 0 0 0 0 0 0 0 0 0 0 0 0 0 0 0 0 0 0 0 0 0 0 0 0 0 0 0 0 0 0 0 0 0 0 0 0 0 0 0 0 0 0 0 0 0 0 0 0 0 0 0 0 0 0 0 0 0 0 0 0 0 0 0 0 0 0 0 0 0 0 0 0 0 0 0 0 0 0 0 0 0 0 0 0 0 0 0 0 0 0 0 0 0 0 0 0 0 0 0 0 0 0 0 0 0 0 0 0 0 0 0 0 0 0 0 0 0 0 0 0 0 0 0 0 0 0 0 0 0 0 0 0 0 0 0 0 0 0 0 0 0 0 0 0 0 0 0 0 0 0 0 0 0 0 0 0 0 0 0 0 0 0 0 0 0 l 0.2,0.05 v 0 0 l 0.2,0.23 2.97,2.82 3.3,2.27 1.32,-0.19 0.99,-4.85 1.54,-2.04 1.13,-3.63 0.92,-1.87 0.74,-1.32 0.87,-1.04 0.92,-0.44 0.9,-0.95 1.21,-0.78 1.24,-1.54 0.89,-1.47 1.24,-1.26 1.28,-0.59 1.44,-2.03 1.38,-1.68 1.44,-1.78 1.46,-2.38 2.11,-2.56 1.39,-2.51 v 0 0 0 0" />
          <path
             inkscape:connector-curvature="0"
             id="path7186"
             style="fill:none;stroke:#ffa500;stroke-width:1.60000002;stroke-linecap:butt;stroke-linejoin:round;stroke-miterlimit:1;stroke-dasharray:none;stroke-opacity:1"
             d="m 60.9,137.07 1.08,0.61 0.78,-0.88 0.9,0.51 0.79,0.68 0.92,-3.38 0.72,-1.41 0.74,-0.81 1.26,-0.39 0.69,-1.19 1.03,-1.52 1.4,-0.16 0.65,-2.2 2.31,-1.72 1.08,-2.74 1.72,-2.08 2.31,-1.29 2.25,-2.5 2.78,-2.35 3.07,-1.84 2.77,-1.55 2.53,0.75 v 0 0 0 0 0 0 0" />
          <path
             inkscape:connector-curvature="0"
             id="path7188"
             style="fill:none;stroke:#5d478b;stroke-width:1.60000002;stroke-linecap:butt;stroke-linejoin:round;stroke-miterlimit:1;stroke-dasharray:none;stroke-opacity:1"
             d="m 62.72,143.76 v 0 0 0 0 0 0 0 0 0 0 0 0 0 0 0 0 0 0 0 0 0 0 0 0 0 0 0 0 0 0 0 0 0 0 0 0 0 0 0 0 0 0 0 0 0 0 0 0 0 0 0 0 0 0 0 0 0 0 0 0 0 0 0 0 0 0 0 0 0 0 0 0 0 0 0 0 0 0 0 0 0 0 0 0 0 0 0 0 0 0 0 0 0 0 0 0 0 0 0 0 0 0 0 0 0 0 0 0 0 0 0 0 0 0 0 0 0 0 0 0 0 0 0 0 0 0 0 0 0 0 0 0 0 0 0 0 0 0 0 0 0 0 0 0 0 0 0 0 0 0 0 0 0 0 0 0 0 0 0 0 0 0 0 0 0 0 0 0 l 0.25,0.08 v 0 0 l 0.18,0.18 2.87,2.32 3.16,1.87 1.3,-0.16 1.26,-4.03 1.84,-1.63 1.57,-2.6 1.48,-1.6 1.22,-1.02 1.37,-0.84 1.61,-0.1 1.95,-0.51 2.16,-0.61 2.02,-1.43 2.02,-1.18 1.99,-1.27 2.27,-0.72 3.08,-1.99 3.66,-1.39 3.86,-1.74 4.48,-2.21 5.8,-2.73 3.12,-3.33 v 0 0 0 0" />
          <path
             inkscape:connector-curvature="0"
             id="path7190"
             style="fill:none;stroke:#9370db;stroke-width:1.60000002;stroke-linecap:butt;stroke-linejoin:round;stroke-miterlimit:1;stroke-dasharray:none;stroke-opacity:1"
             d="m 47.46,82.67 v 0 0 0 0 0 0 0 0 0 0 0 0 0 0 0 0 0 0 0 0 0 0 0 0 0 0 0 0 0 0 0 0 0 0 0 0 0 0 0 0 0 0 0 0 0 0 0 0 0 0 0 0 0 0 0 0 0 0 0 0 0 0 0 0 0 0 0 0 0 0 0 0 0 0 0 0 0 0 0 0 0 0 0 0 0 0 0 0 l 0.05,0.64 v 0 0 0 0 l 0.04,0.42 0.07,0.3 v 0.54 0 0 0 0 l 0.04,-0.13 v 0 0 l 0.05,-0.24 v 0 0 0.84 0 0 l 0.06,-0.25 v 0 0 l 0.01,-0.62 v 0 0.82 0 0 0 0 0 0 0 0 l 0.13,0.51 0.02,0.18 v 0 0 0 0 0 0 0 0 0 0 0 0 0 0 0 0 0 0 l 0.03,-0.03 v 0 0 0 0 0 0 0.4 0 0 0 0 0 0 l 0.1,0.5 v 0 l 0.01,0.18 v 0 l 0.08,-0.1 v 0 0 0.8 0 l 0.05,-1.15 v 0 0 0.38 0.49 0 0 0 0 0 0 0 0 0 l 0.02,-1.64 v 0.47 0 0 0 0 0 0 0 0 l 0.05,0.03 0.06,0.22 v 0 0.28 0 l 0.05,-0.34 v 0 0.27 l 0.11,0.15 0.12,1.07 0.06,0.45 v 0 0 0 0 0 0 0 l 0.05,-0.17 v 0 0.35 0 0.27 l 0.04,-0.93 v 0 0 0 0 0.08 0.35 0.17 0 l 0.03,-0.74 v 0 0 0.43 l 0.04,-0.23 v 0 0 0 0.09 0 0 h 0.05 v 0 0 0 0 0 0.34 0 0 0 0 0 0 l 0.06,0.08 v 0 l 0.07,0.55 v 0 0 0 0 l 0.07,0.55 v 0 l 0.08,0.53 v 0 0 0 0 0 0 0 0 l 0.03,0.1 v 0 0 0 0 0 0 0.17 l 0.07,0.35 v 0 0 l 0.02,0.13 0.09,0.39 v 0.17 0 0.09 0 l 0.02,-0.13 v 0 0 0 0 l 0.04,-0.57 v 0.24 0 0 0 l 0.09,0.21 v 0 0 0.17 l 0.01,-0.04 v 0 l 0.06,0.04 v 0 0.32 l 0.05,-0.28 v 0 h 0.04 v 0 0 0 0 0.24 l 0.12,-0.2 v 0 0 0 0.78 0 l 0.08,-0.7 v 0 l 0.03,0.15 v 0 0 0 0.08 l 0.07,0.37 v 0 0 l 0.08,0.44 0.03,-1.47 v 0.14 0 0.44 0 0 0.29 0.45 0 l 0.06,-1 v 0 0 l 0.03,-1.57 v 0 0 0 0.13 0 0 0 0.95 0.56 0 0.15 0 0 0 l 0.02,-2.28 v 0 0.39 0.07 l 0.07,-0.3 0.15,0.12 v 0.7 0 0 0 0 l 0.03,-0.75 0.02,0.09 v 0 0 l 0.07,-0.34 v 0.49 0.25 l 0.02,-0.7 v 0.06 0 l 0.07,-0.27 v 0.12 l 0.02,-0.55 v 0.53 l 0.02,-1.12 v 0 0.68 0 0 0 l 0.05,-0.62 v 0.05 l 0.02,0.04 v 0 l 0.09,0.47 0.06,0.27 0.01,-0.57 v 0.22 0 0 l 0.06,-0.44 v 0 0.49 l 0.07,-0.24 0.02,-0.9 V 88 l 0.02,-0.94 v 0.25 0.05 l 0.05,-0.59 v 0.2 0 0.25 l 0.06,-0.63 0.07,0.24 h 0.07 l 0.04,0.17 0.05,-0.09 v 0.19 l 0.07,-0.33 v 0.38 0 0.09 l 0.02,-0.62 0.05,0.02 v 0.13 0 l 0.06,-0.12 0.05,0.24 0.18,0.78 0.09,0.21 0.04,0.15 v 0 0 0 l 0.02,-0.06 0.02,-0.51 v 0.09 0.05 0 0.27 l 0.07,-0.15 0.05,-0.26 v 0.31 0 l 0.24,0.26 0.05,-0.13 v 0.26 l 0.02,-0.19 0.03,0.15 0.06,-0.17 v 0.08 0.17 l 0.05,-0.04 0.02,-0.1 v 0.17 l 0.13,0.03 v 0 l 0.01,0.07 v 0 0 l 0.08,0.23 v 0 l 0.03,-0.15 0.04,0.05 0.05,0.04 0.11,0.36 0.04,0.01 0.05,0.16 v 0 l 0.07,0.22 v 0 l 0.06,0.16 v 0.04 l 0.05,-0.01 v 0.04 l 0.07,0.14 0.04,-0.08 0.07,0.26 0.02,-0.02 0.09,-0.28 v 0.48 l 0.13,-0.28 0.03,-0.26 v 0.04 l 0.06,-0.5 0.05,0.07 v 0 0.11 l 0.04,-0.18 0.09,0.3 0.05,0.07 v 0.04 0 0 0 l 0.13,0.33 0.05,0.07 v 0.07 l 0.06,0.03 0.03,-0.21 0.02,-0.06 0.11,0.09 v 0.04 l 0.05,-0.64 v 0.52 l 0.09,-0.35 v 0 l 0.07,-0.39 v 0.44 0.07 l 0.13,-1.16 v 0.36 0.13 0.14 0.2 0.03 0.1 l 0.02,-1.64 v 0.67 l 0.03,-0.66 0.06,-0.03 0.07,-0.15 v 0.09 0.06 0.09 l 0.13,-0.43 v 0.16 l 0.07,-0.07 v 0.09 l 0.04,-0.14 v 0.15 l 0.05,-0.02 0.09,0.14 0.05,0.03 v 0.09 l 0.11,-0.43 v 0.14 0.21 0.17 l 0.09,-0.53 0.07,0.02 0.06,0.12 0.02,-0.04 0.07,-0.33 v 0.36 l 0.02,-0.97 v 0.21 l 0.18,0.08 0.05,-0.13 v 0.16 l 0.11,0.04 0.09,0.23 0.02,-0.19 0.02,-0.03 h 0.07 l 0.07,-0.21 v 0.13 0.24 l 0.09,-0.24 0.11,0.06 0.14,0.18 v 0.1 l 0.15,0.03 0.05,-0.2 0.15,0.25 0.12,-0.07 v 0.25 l 0.09,-0.21 0.11,0.13 0.09,0.19 0.07,0.12 0.07,-0.1 0.17,0.34 0.05,0.08 0.2,0.39 0.05,-0.05 0.08,-0.1 0.09,0.03 0.23,0.44 0.16,0.24 0.17,-0.08 v 0.05 l 0.01,-0.31 0.13,-0.01 0.27,0.45 0.02,-0.06 0.18,0.35 0.18,0.11 0.18,0.23 0.04,-0.06 0.21,0.31 0.13,0.07 0.12,0.13 0.15,0.1 v 0.07 l 0.11,-0.08 0.16,0.2 0.16,0.24 0.16,-0.03 0.02,-0.16 0.25,0.29 h 0.13 l 0.09,0.03 0.15,0.09 0.12,0.08 0.07,-0.04 0.11,-0.08 0.25,0.34 0.17,0.18 0.12,0.15 0.17,0.09 0.25,0.3 0.14,-0.02 0.06,-0.03 0.21,0.03 0.26,0.14 0.18,0.07 h 0.03 0.13 l 0.38,0.34 0.23,0.25 0.04,-0.15 0.3,0.33 0.22,0.15 0.09,-0.03 0.16,0.07 0.2,0.23 0.2,0.18 0.05,-0.03 0.27,0.18 0.27,0.22 0.28,0.27 0.21,0.12 0.31,0.28 0.27,0.24 0.43,0.43 0.29,0.26 0.29,0.19 0.43,0.42 0.04,-0.06 0.2,0.11 0.25,0.26 0.11,-0.04 0.36,0.27 0.29,0.2 0.3,0.24 0.17,0.04 0.27,0.2 0.34,0.2 0.2,0.15 0.38,0.38 0.19,0.04 0.27,0.1 0.28,0.12 0.19,0.01 0.27,0.19 0.27,0.1 0.35,0.16 0.56,0.36 0.52,0.39 0.6,0.4 0.75,0.58 0.51,0.28 0.39,0.18 0.51,0.26 0.29,0.08 0.72,0.5 0.23,0.07 0.44,0.19 0.54,0.15 0.48,0.26 0.67,0.48 0.65,0.28 0.56,0.22 1.3,0.87 0.45,0.2 0.63,0.32 0.78,0.42 0.63,0.19 1.08,0.64 0.33,-0.01 0.95,0.5 0.56,0.14 1.03,0.61 1.1,0.49 0.85,0.38 1.55,0.83 0.68,0.15 2.15,1.08 0.63,0.09 1.86,0.73 0.77,0.28 2.01,0.66 0.83,0.13 2.56,1.1 0.95,0.24 3.18,1.16 1.21,0.38 2.56,0.9 2.76,1 0.52,0.16 1.24,0.3 v 0 0.08" />
          <path
             inkscape:connector-curvature="0"
             id="path7192"
             style="fill:none;stroke:#1a1a1a;stroke-width:1.60000002;stroke-linecap:butt;stroke-linejoin:round;stroke-miterlimit:1;stroke-dasharray:none;stroke-opacity:1"
             d="m 63.98,143.58 v 0 0 0 0 0 0 0 0 0 0 0 0 0 0 0 0 0 0 0 0 0 0 0 0 0 0 0 0 0 0 0 0 0 0 0 0 0 0 0 0 0 0 0 0 0 0 0 0 0 0 0 0 0 0 0 0 0 0 0 0 0 0 0 0 0 0 0 0 0 0 0 0 0 0 0 0 0 0 0 0 0 0 0 0 0 0 0 0 0 0 0 0 0 0 0 0 0 0 0 0 0 0 0 0 0 0 0 0 0 0 0 0 0 0 0 0 0 0 0 0 0 0 0 0 0 0 0 0 0 0 0 0 0 0 0 0 0 0 0 0 0 0 0 0 0 0 0 0 0 0 0 0 0 0 0 0 0 0 0 0 0 0 0 0 0 0 0 0 l 0.27,0.1 v 0 0 l 0.2,0.18 2.98,2.27 3.32,1.88 1.38,-0.21 1.38,-4.35 2.03,-1.7 1.79,-3.1 1.6,-1.54 1.47,-0.85 1.49,-0.86 1.84,-0.08 2.17,-0.39 2.36,-0.48 2.22,-1.31 2.22,-1.2 2.25,-1.17 2.51,-0.66 3.61,-1.76 4.36,-1.15 4.44,-1.57 4.92,-2.13 6.26,-2.59 3.95,-3.32 v 0 0 0 0" />
        </g>
      </g>
      <g
         id="g7194" />
      <g
         id="g7196" />
      <g
         id="g7198" />
      <g
         id="g7200" />
      <g
         id="g7202" />
      <g
         id="g7204" />
      <g
         id="g7206" />
      <g
         id="g7208" />
      <g
         id="g7210" />
      <g
         id="g7212" />
      <g
         id="g7214" />
      <g
         id="g7216" />
      <g
         id="g7218">
        <path
           inkscape:connector-curvature="0"
           id="path7220"
           style="fill:none;stroke:#000000;stroke-width:1.07000005;stroke-linecap:butt;stroke-linejoin:round;stroke-miterlimit:10;stroke-dasharray:none;stroke-opacity:1"
           d="M 39.03,35.88 V 171.37" />
      </g>
      <g
         id="g7222" />
      <g
         id="g7224" />
      <g
         id="g7226">
        <text
           id="text7230"
           style="font-variant:normal;font-weight:normal;font-size:9px;font-family:Helvetica;-inkscape-font-specification:Helvetica;writing-mode:lr-tb;fill:#4d4d4d;fill-opacity:1;fill-rule:nonzero;stroke:none"
           transform="matrix(1,0,0,-1,29.09,38.81)">
          <tspan
             id="tspan7228"
             y="0"
             x="0">0</tspan>
        </text>
        <text
           id="text7234"
           style="font-variant:normal;font-weight:normal;font-size:9px;font-family:Helvetica;-inkscape-font-specification:Helvetica;writing-mode:lr-tb;fill:#4d4d4d;fill-opacity:1;fill-rule:nonzero;stroke:none"
           transform="matrix(1,0,0,-1,24.09,69.6)">
          <tspan
             id="tspan7232"
             sodipodi:role="line"
             y="0"
             x="0 5.0040002">25</tspan>
        </text>
        <text
           id="text7238"
           style="font-variant:normal;font-weight:normal;font-size:9px;font-family:Helvetica;-inkscape-font-specification:Helvetica;writing-mode:lr-tb;fill:#4d4d4d;fill-opacity:1;fill-rule:nonzero;stroke:none"
           transform="matrix(1,0,0,-1,24.09,100.4)">
          <tspan
             id="tspan7236"
             sodipodi:role="line"
             y="0"
             x="0 5.0040002">50</tspan>
        </text>
        <text
           id="text7242"
           style="font-variant:normal;font-weight:normal;font-size:9px;font-family:Helvetica;-inkscape-font-specification:Helvetica;writing-mode:lr-tb;fill:#4d4d4d;fill-opacity:1;fill-rule:nonzero;stroke:none"
           transform="matrix(1,0,0,-1,24.09,131.19)">
          <tspan
             id="tspan7240"
             sodipodi:role="line"
             y="0"
             x="0 5.0040002">75</tspan>
        </text>
        <text
           id="text7246"
           style="font-variant:normal;font-weight:normal;font-size:9px;font-family:Helvetica;-inkscape-font-specification:Helvetica;writing-mode:lr-tb;fill:#4d4d4d;fill-opacity:1;fill-rule:nonzero;stroke:none"
           transform="matrix(1,0,0,-1,19.08,161.98)">
          <tspan
             id="tspan7244"
             sodipodi:role="line"
             y="0"
             x="0 5.0040002 10.008">100</tspan>
        </text>
      </g>
      <g
         id="g7248" />
      <g
         id="g7250">
        <path
           inkscape:connector-curvature="0"
           id="path7252"
           style="fill:none;stroke:#333333;stroke-width:1.07000005;stroke-linecap:butt;stroke-linejoin:round;stroke-miterlimit:10;stroke-dasharray:none;stroke-opacity:1"
           d="m 36.29,42.04 h 2.74" />
        <path
           inkscape:connector-curvature="0"
           id="path7254"
           style="fill:none;stroke:#333333;stroke-width:1.07000005;stroke-linecap:butt;stroke-linejoin:round;stroke-miterlimit:10;stroke-dasharray:none;stroke-opacity:1"
           d="m 36.29,72.83 h 2.74" />
        <path
           inkscape:connector-curvature="0"
           id="path7256"
           style="fill:none;stroke:#333333;stroke-width:1.07000005;stroke-linecap:butt;stroke-linejoin:round;stroke-miterlimit:10;stroke-dasharray:none;stroke-opacity:1"
           d="m 36.29,103.63 h 2.74" />
        <path
           inkscape:connector-curvature="0"
           id="path7258"
           style="fill:none;stroke:#333333;stroke-width:1.07000005;stroke-linecap:butt;stroke-linejoin:round;stroke-miterlimit:10;stroke-dasharray:none;stroke-opacity:1"
           d="m 36.29,134.42 h 2.74" />
        <path
           inkscape:connector-curvature="0"
           id="path7260"
           style="fill:none;stroke:#333333;stroke-width:1.07000005;stroke-linecap:butt;stroke-linejoin:round;stroke-miterlimit:10;stroke-dasharray:none;stroke-opacity:1"
           d="m 36.29,165.21 h 2.74" />
      </g>
      <g
         id="g7262" />
      <g
         id="g7264" />
      <g
         id="g7266" />
      <g
         id="g7268" />
      <g
         id="g7270" />
      <g
         id="g7272" />
      <g
         id="g7274">
        <path
           inkscape:connector-curvature="0"
           id="path7276"
           style="fill:none;stroke:#000000;stroke-width:1.07000005;stroke-linecap:butt;stroke-linejoin:round;stroke-miterlimit:10;stroke-dasharray:none;stroke-opacity:1"
           d="M 39.03,35.88 H 174.52" />
      </g>
      <g
         id="g7278" />
      <g
         id="g7280" />
      <g
         id="g7282">
        <path
           inkscape:connector-curvature="0"
           id="path7284"
           style="fill:none;stroke:#333333;stroke-width:1.07000005;stroke-linecap:butt;stroke-linejoin:round;stroke-miterlimit:10;stroke-dasharray:none;stroke-opacity:1"
           d="m 45.19,33.14 v 2.74" />
        <path
           inkscape:connector-curvature="0"
           id="path7286"
           style="fill:none;stroke:#333333;stroke-width:1.07000005;stroke-linecap:butt;stroke-linejoin:round;stroke-miterlimit:10;stroke-dasharray:none;stroke-opacity:1"
           d="m 81.26,33.14 v 2.74" />
        <path
           inkscape:connector-curvature="0"
           id="path7288"
           style="fill:none;stroke:#333333;stroke-width:1.07000005;stroke-linecap:butt;stroke-linejoin:round;stroke-miterlimit:10;stroke-dasharray:none;stroke-opacity:1"
           d="m 117.34,33.14 v 2.74" />
        <path
           inkscape:connector-curvature="0"
           id="path7290"
           style="fill:none;stroke:#333333;stroke-width:1.07000005;stroke-linecap:butt;stroke-linejoin:round;stroke-miterlimit:10;stroke-dasharray:none;stroke-opacity:1"
           d="m 153.41,33.14 v 2.74" />
      </g>
      <g
         id="g7292" />
      <g
         id="g7294">
        <text
           id="text7298"
           style="font-variant:normal;font-weight:normal;font-size:9px;font-family:Helvetica;-inkscape-font-specification:Helvetica;writing-mode:lr-tb;fill:#4d4d4d;fill-opacity:1;fill-rule:nonzero;stroke:none"
           transform="matrix(1,0,0,-1,42.69,24.49)">
          <tspan
             id="tspan7296"
             y="0"
             x="0">0</tspan>
        </text>
        <text
           id="text7302"
           style="font-variant:normal;font-weight:normal;font-size:9px;font-family:Helvetica;-inkscape-font-specification:Helvetica;writing-mode:lr-tb;fill:#4d4d4d;fill-opacity:1;fill-rule:nonzero;stroke:none"
           transform="matrix(1,0,0,-1,71.25,24.49)">
          <tspan
             id="tspan7300"
             sodipodi:role="line"
             y="0"
             x="0 5.0040002 10.008 15.012">2000</tspan>
        </text>
        <text
           id="text7306"
           style="font-variant:normal;font-weight:normal;font-size:9px;font-family:Helvetica;-inkscape-font-specification:Helvetica;writing-mode:lr-tb;fill:#4d4d4d;fill-opacity:1;fill-rule:nonzero;stroke:none"
           transform="matrix(1,0,0,-1,107.33,24.49)">
          <tspan
             id="tspan7304"
             sodipodi:role="line"
             y="0"
             x="0 5.0040002 10.008 15.012">4000</tspan>
        </text>
        <text
           id="text7310"
           style="font-variant:normal;font-weight:normal;font-size:9px;font-family:Helvetica;-inkscape-font-specification:Helvetica;writing-mode:lr-tb;fill:#4d4d4d;fill-opacity:1;fill-rule:nonzero;stroke:none"
           transform="matrix(1,0,0,-1,143.4,24.49)">
          <tspan
             id="tspan7308"
             sodipodi:role="line"
             y="0"
             x="0 5.0040002 10.008 15.012">6000</tspan>
        </text>
      </g>
      <g
         id="g7312" />
      <g
         id="g7314" />
      <g
         id="g7316" />
      <g
         id="g7318" />
      <g
         id="g7320" />
      <g
         id="g7322">
        <text
           id="text7326"
           style="font-variant:normal;font-weight:normal;font-size:11px;font-family:Helvetica;-inkscape-font-specification:Helvetica;writing-mode:lr-tb;fill:#000000;fill-opacity:1;fill-rule:nonzero;stroke:none"
           transform="matrix(1,0,0,-1,40.25,11.11)">
          <tspan
             id="tspan7324"
             sodipodi:role="line"
             y="0"
             x="0 5.401 9.2290001 15.345 21.461 24.518999 30.635 36.750999 42.250999 44.693001 47.750999 50.193001 55.417999 61.534 64.592003 70.092003 73.754997 79.871002 85.371002 90.871002 93.313004 95.754997 101.871 107.371 110.429 115.929 118.371 121.429 127.545">True positive crosslink sites</tspan>
        </text>
      </g>
      <g
         id="g7328" />
      <g
         id="g7330">
        <text
           id="text7334"
           style="font-variant:normal;font-weight:normal;font-size:11px;font-family:Helvetica;-inkscape-font-specification:Helvetica;writing-mode:lr-tb;fill:#000000;fill-opacity:1;fill-rule:nonzero;stroke:none"
           transform="matrix(0,1,1,0,13.38,74.59)">
          <tspan
             id="tspan7332"
             sodipodi:role="line"
             y="0"
             x="0 7.3369999 11 17.115999 22.615999 25.058001 30.558001 33 39.116001 45.231998 48.290001">Precision %</tspan>
        </text>
      </g>
      <g
         id="g7336" />
      <g
         id="g7338" />
      <g
         id="g7340" />
      <g
         id="g7342" />
      <g
         id="g7344" />
      <g
         id="g7346" />
      <g
         id="g7348" />
      <g
         id="g7350" />
      <g
         id="g7352" />
      <g
         id="g7354" />
      <g
         id="g7356" />
    </g>
    <g
       transform="matrix(0.35277777,0,0,-0.35277777,55.143626,180.5851)"
       inkscape:label="bench_sim.pr.SIM_SET_FIX9.HMM_SET8.cs"
       id="g7529">
      <g
         id="g7531" />
      <g
         id="g7533" />
      <g
         id="g7535" />
      <g
         id="g7537" />
      <g
         id="g7539" />
      <g
         id="g7541" />
      <g
         id="g7543" />
      <g
         id="g7545" />
      <g
         id="g7547" />
      <g
         id="g7549" />
      <g
         id="g7551" />
      <g
         id="g7553">
        <g
           clip-path="url(#clipPath7559)"
           id="g7555">
          <path
             inkscape:connector-curvature="0"
             id="path7561"
             style="fill:#ffffff;fill-opacity:1;fill-rule:nonzero;stroke:#ffffff;stroke-width:1.07000005;stroke-linecap:round;stroke-linejoin:round;stroke-miterlimit:10;stroke-dasharray:none;stroke-opacity:1"
             d="M 0,3.15 H 180 V 176.86 H 0 Z" />
        </g>
      </g>
      <g
         id="g7563" />
      <g
         id="g7565">
        <g
           clip-path="url(#clipPath7571)"
           id="g7567">
          <path
             inkscape:connector-curvature="0"
             id="path7573"
             style="fill:#ffffff;fill-opacity:1;fill-rule:nonzero;stroke:none"
             d="M 39.03,35.88 H 174.52 V 171.37 H 39.03 Z" />
          <path
             inkscape:connector-curvature="0"
             id="path7575"
             style="fill:none;stroke:#008b45;stroke-width:1.60000002;stroke-linecap:butt;stroke-linejoin:round;stroke-miterlimit:1;stroke-dasharray:none;stroke-opacity:1"
             d="m 46.97,145.38 v 0 l 0.04,0.33 0.05,0.48 0.02,-0.68 v 0.83 l 0.02,-0.68 0.02,0.16 0.02,0.15 0.01,0.15 0.02,0.14 0.02,0.15 0.04,0.28 0.03,0.28 0.04,0.26 0.03,0.26 0.06,-0.36 0.03,0.25 0.02,0.12 0.02,0.12 0.04,0.23 0.01,0.12 0.02,0.11 0.04,0.23 0.02,0.11 0.07,0.42 v 0 l 0.02,0.11 v 0 l 0.01,0.1 0.09,0.49 0.08,0.37 0.01,0.09 0.04,0.18 0.04,-0.45 v 0 l 0.05,0.26 0.02,0.09 0.02,0.08 0.07,0.33 0.09,0.39 0.02,0.07 0.02,0.08 0.01,0.07 0.04,-0.41 0.09,-0.18 v 0 0.54 l 0.04,-0.4 0.07,-0.24 0.07,0.28 v 0 l 0.05,0.2 0.08,0.26 0.05,-0.78 v 0 0 l 0.02,0.06 0.07,0.26 0.07,-0.21 0.11,0.36 0.06,-0.26 0.07,-1.07 0.07,0.25 0.02,-0.36 0.09,0.3 0.07,0.23 0.09,0.29 0.09,0.27 0.04,0.1 0.09,0.26 0.05,0.15 0.04,-0.28 0.03,0.1 0.06,-0.22 0.05,-0.22 0.02,-0.31 0.05,-0.55 0.08,0.2 0.09,-0.77 0.12,0.02 0.15,0.39 0.16,0.1 0.11,-0.34 0.03,-0.21 0.26,0.62 0.1,-0.04 0.2,-0.11 0.09,-0.88 0.09,-0.32 0.09,-0.05 0.09,-0.55 0.11,-0.5 0.2,0.46 0.07,-0.08 0.2,0.43 0.29,0.59 0.14,-1.04 0.18,-0.49 0.24,-0.35 0.27,-0.26 0.25,-0.09 0.23,-0.48 0.24,0.25 0.27,-0.38 0.27,-0.86 0.14,-1.49 0.24,0.12 h 0.25 l 0.31,-0.19 0.32,-0.01 0.24,-0.3 0.43,0.17 0.18,-0.74 0.47,-0.5 0.54,-0.35 0.6,0.77 0.5,-0.71 0.49,0.25 0.68,-0.1 0.74,-0.31 0.58,-0.57 0.76,-0.39 0.57,-0.96 0.55,-0.16 0.84,-0.32 0.78,-0.17 1.06,-0.52 1.1,-0.25 0.92,-0.27 0.94,-0.45 0.96,-0.83 0.81,-1.14 0.85,-1.43 0.92,-1.19 1.01,-1.51 1.12,-1.27 1.51,-1.13 0.97,-1.88 1.23,-1.67 1.44,-2.06 1.09,-2.34 1.11,-2.13 1.57,-2.97 0.85,-3.39 1.52,-3.23 1.84,-4.02 0.99,-4.03 1.59,-4.28 1.85,-5.41 0.71,-4.41 v 0" />
          <path
             inkscape:connector-curvature="0"
             id="path7577"
             style="fill:none;stroke:#7f7f7f;stroke-width:1.60000002;stroke-linecap:butt;stroke-linejoin:round;stroke-miterlimit:1;stroke-dasharray:none;stroke-opacity:1"
             d="m 45.82,85.59 0.05,0.61 v 0.85 0.43 l 0.02,-0.54 v 0 l 0.02,-0.11 0.03,-0.57 v 0.38 0 l 0.04,0.19 v 0.37 l 0.02,-0.1 0.02,-0.09 0.03,0.86 0.02,0.6 0.02,0.23 0.02,-0.47 v 1.04 l 0.02,-0.82 0.03,-0.85 v 0.31 0.64 l 0.02,-1.35 0.04,-0.72 v 0.57 0 0 0.58 l 0.01,-1.49 v 0 0.55 l 0.04,0.14 0.04,-1.64 v 0.49 0.5 1.05 l 0.05,-0.71 0.04,-0.11 v 0.48 0 0 l 0.01,-0.3 0.04,0.12 0.04,0.58 0.03,-0.13 0.02,-0.71 v 0.44 l 0.04,0.1 0.01,-1.48 v 0.2 0.4 1.04 l 0.02,-1.28 0.04,0.51 0.02,-0.23 0.05,0.83 0.05,0.04 0.02,0.13 0.02,-1.12 0.02,-1.37 v 1.16 l 0.05,-1.06 0.04,0.12 0.07,0.99 0.04,-0.05 0.09,0.6 0.09,1.15 0.03,0.36 0.04,0.05 0.09,0.64 v 0.29 l 0.02,-0.49 0.03,0.04 0.04,0.33 0.07,0.21 0.07,0.2 0.04,0.16 0.02,-0.18 0.02,-0.82 v 0.51 l 0.07,-0.19 0.05,0.11 0.09,0.26 0.04,-0.2 v 0.47 l 0.05,-0.26 0.08,0.63 0.05,0.32 0.05,0.19 0.13,0.21 0.07,0.24 0.09,0.61 0.07,-0.32 0.13,0.58 0.04,-0.01 0.1,0.5 0.11,0.08 0.09,0.12 0.11,0.17 0.09,-0.26 0.13,0.2 0.07,-0.11 0.16,0.1 0.13,-0.32 0.16,0.1 0.2,0.77 0.09,-0.45 0.16,-0.21 0.13,-0.06 0.03,-1.03 0.24,0.04 0.14,-0.12 0.22,0.07 0.09,-0.84 0.34,0.24 0.24,0.17 0.16,-0.93 0.2,-0.27 0.18,-0.51 0.3,0.3 0.46,0.26 0.32,-0.06 0.25,-0.29 0.54,0.23 0.58,0.39 0.65,0.36 0.56,-0.18 0.49,-0.43 0.7,0.39 0.72,0.03 0.74,-0.17 0.83,0.37 0.97,-0.04 1.23,0.72 1.34,0.03 1.69,0.17 1.66,-0.43 2.16,-0.02 2.28,-0.53 2.76,-0.63 3.42,-0.99 4.35,-1.31 6.21,-1.39 8.6,-2.1 12.52,-3.04 20.23,-3.94 39.54,-4.91 v 0 0 0 0" />
          <path
             inkscape:connector-curvature="0"
             id="path7579"
             style="fill:none;stroke:#ff4500;stroke-width:1.60000002;stroke-linecap:butt;stroke-linejoin:round;stroke-miterlimit:1;stroke-dasharray:none;stroke-opacity:1"
             d="m 60.81,106.49 v 0 0 0 0 0 0 0 0 0 0 0 0 0 0 0 0 0 0 0 0 0 0 0 0 0 0 0 0 0 0 0 0 0 0 0 0 0 0 0 0 0 0 0 0 0 0 0 0 0 0 0 0 0 0 0 0 0 0 0 0 0 0 0 0 0 0 0 0 0 0 0 0 0 0 0 0 0 0 0 0 0 0 0 0 0 0 0 0 0 0 0 0 0 0 0 0 0 0 0 0 0 0 0 0 0 0 0 0 0 0 0 0 0 0 0 0 0 0 0 0 0 0 0 0 0 0 0 0 0 0 0 0 0 0 0 0 0 0 0 0 0 0 0 0 0 0 0 0 0 0 0 0 0 0 0 0 0 0 0 0 0 0 0 0 0 0 0 0 l 0.14,-0.33 v 0 0 l 0.11,0.21 2.83,4.9 2.98,2.85 1.13,-1.67 1.16,-5.94 1.37,-1.7 0.63,-2.5 0.61,-0.31 0.67,-0.8 0.7,-0.77 0.78,-0.88 0.6,-1.09 1.13,-0.25 0.98,-1.15 0.61,-1.2 1.06,-0.99 1,-0.88 1.02,-1.65 1.01,-1.37 0.87,-1.46 0.96,-1.51 1.31,-2 1.12,-1.86 v 0 0 0 0" />
          <path
             inkscape:connector-curvature="0"
             id="path7581"
             style="fill:none;stroke:#ffa500;stroke-width:1.60000002;stroke-linecap:butt;stroke-linejoin:round;stroke-miterlimit:1;stroke-dasharray:none;stroke-opacity:1"
             d="m 58.32,95.77 0.43,-0.37 0.76,-0.81 0.88,0.62 0.83,-0.32 0.76,0.29 0.49,-0.65 1.62,0.68 0.85,-0.71 0.92,-0.12 1.46,-1.78 1.3,-0.71 0.68,-1.71 2.56,0.58 0.85,-1.19 2.45,-1.88 1.38,-2.89 2.38,-1.56 4.74,0.26 1.93,0.64 v 0 0 0 0 0 0 0 0" />
          <path
             inkscape:connector-curvature="0"
             id="path7583"
             style="fill:none;stroke:#5d478b;stroke-width:1.60000002;stroke-linecap:butt;stroke-linejoin:round;stroke-miterlimit:1;stroke-dasharray:none;stroke-opacity:1"
             d="m 63.06,112.03 v 0 0 0 0 0 0 0 0 0 0 0 0 0 0 0 0 0 0 0 0 0 0 0 0 0 0 0 0 0 0 0 0 0 0 0 0 0 0 0 0 0 0 0 0 0 0 0 0 0 0 0 0 0 0 0 0 0 0 0 0 0 0 0 0 0 0 0 0 0 0 0 0 0 0 0 0 0 0 0 0 0 0 0 0 0 0 0 0 0 0 0 0 0 0 0 0 0 0 0 0 0 0 0 0 0 0 0 0 0 0 0 0 0 0 0 0 0 0 0 0 0 0 0 0 0 0 0 0 0 0 0 0 0 0 0 0 0 0 0 0 0 0 0 0 0 0 0 0 0 0 0 0 0 0 0 0 0 0 0 0 0 0 0 0 0 0 0 0 l 0.31,-0.12 v 0 0 l 0.18,0.3 2.99,4.39 2.92,2.13 1.27,-1.19 1.57,-5.24 1.73,-1.51 1.28,-1.59 1.26,0.09 1.35,-0.42 1.23,-0.58 1.66,-0.39 1.91,-0.17 2.27,0.18 1.92,-1 2.07,-0.64 2.11,-0.72 2.27,-0.63 3.05,-1.21 3.57,-0.78 3.86,-0.78 4.28,-1.25 5.95,-1.61 3.28,-2.55 v 0 0 0 0" />
          <path
             inkscape:connector-curvature="0"
             id="path7585"
             style="fill:none;stroke:#9370db;stroke-width:1.60000002;stroke-linecap:butt;stroke-linejoin:round;stroke-miterlimit:1;stroke-dasharray:none;stroke-opacity:1"
             d="m 47.44,67.04 v 0 0 0 0 0 0 0.28 0 0 0.13 0 0 0 0 0 0 0 0 0 0 0 0 0 0 0 0 0 0 0 0 0 0 0 0 0 0 0 0 0 0 0 0 0 0 0 0 0 0 0 0 0 0 0 0 0 0 0 0 0 0 0 0 0 0 0 0 0 0 0 0 0 0 0 0 0 0 0 0 0 0 0 0 0 0 0 0 0 0 0 0 0 0 0 l 0.06,0.06 v 0 l 0.03,-0.37 v 0 0 0 0 0 0.32 0.37 l 0.06,-0.63 v 0 0.2 0.2 0 l 0.01,-0.24 0.06,0.02 v 0 0 0 0.27 0 0 0.15 0 l 0.05,-0.77 v 0 0 0 0 0.48 0 0.31 0 0 l 0.02,-0.65 v 0 0 0 0 0 0 0 0 0 0 0 0 0 0 0 0 l 0.04,0.14 v 0 0 0 0 0.15 0 0 0 0 0 0 0 l 0.05,0.02 0.02,0.13 v 0 l 0.07,0.55 v 0 0 0 0 l 0.04,0.27 0.07,-0.01 v 0 0 0 0 0 0 0 0 0.29 0.26 0 0 l 0.02,-0.56 0.07,0.27 v 0.18 0 0 0 0 0 0 0 0 0 l 0.05,-0.04 v 0 0 0 l 0.13,0.42 v 0.17 0.29 l 0.04,-0.43 v 0.21 l 0.05,0.16 v 0 L 48.43,70 v 0 0 0 0 0 l 0.06,0.25 v 0 0 l 0.05,0.36 0.04,-0.02 v 0.04 0 0.21 0 l 0.05,-0.39 v 0.18 0 0 0.17 0 l 0.04,-0.12 v 0 h 0.05 v 0 0 0.03 0 0.31 l 0.04,-1.36 v 0 0 0 0 0.16 0 0 0.42 0 0 0.06 0 0 0 0.23 0 0.14 0.23 l 0.07,-1.06 v 0.25 l 0.07,0.17 v 0 l 0.07,0.36 v 0 0 0.07 l 0.02,0.04 v 0 0 0 0 0 0 l 0.04,-0.36 v 0 0 0 0 0 0.31 0.25 l 0.07,-0.45 v 0.09 0 l 0.07,0.31 v 0 l 0.02,0.1 v 0 l 0.02,-0.21 v 0 0.21 0 0.03 l 0.02,-0.35 v 0.21 0 0 l 0.03,-0.22 0.09,0.25 v 0.12 0 0.02 l 0.06,0.14 v 0 l 0.07,0.38 0.05,-0.89 v 0.22 0.2 0.31 l 0.09,-0.5 v 0.05 l 0.06,0.02 v 0.09 0 0 0 l 0.07,0.05 v 0 0 0.22 l 0.07,-0.35 v 0 0 0.08 0.16 0.1 0.14 l 0.04,-0.47 0.11,0.22 v 0 0.16 0 L 50,70.79 v 0.02 0 0 0.13 0.18 0.1 0 0.16 l 0.06,-1.39 v 0.19 0 0 0 0.19 0 0.02 0 0.32 l 0.03,-0.84 0.04,-0.41 v 0 0.52 0.05 0 0 l 0.04,-0.57 v 0 l 0.01,-0.17 v 0.09 0.15 l 0.08,-0.11 0.07,0.22 v 0.09 0 l 0.03,-0.03 v 0 0.09 0 0 l 0.02,-0.25 v 0.24 l 0.07,-0.05 0.02,-0.14 v 0.08 0 0 0.13 l 0.04,-0.23 v 0 l 0.02,-0.66 v 0.4 0.1 0.11 0.02 0.06 l 0.03,-0.71 v 0.1 l 0.06,-0.04 v 0.07 l 0.01,-0.16 v 0 l 0.08,0.16 0.07,0.16 v 0.08 0 l 0.02,-0.2 v 0 0.07 0 l 0.05,-0.45 v 0.24 0.24 l 0.02,-0.67 0.11,0.36 v 0.03 L 51,68.77 51.03,68.56 v 0.1 0.11 l 0.06,-0.39 v 0.25 l 0.09,-0.26 v 0 l 0.03,-0.01 v 0.14 l 0.04,-0.07 v 0 0.06 l 0.07,0.16 0.13,0.29 0.01,-0.21 h 0.06 v 0 0.15 0 l 0.05,-0.09 0.07,0.24 0.09,0.29 0.04,-0.18 v 0.08 0.13 l 0.04,-0.16 0.01,-0.22 v 0.15 l 0.08,-0.08 v 0.07 0.01 0 l 0.16,0.43 0.11,0.24 v 0.03 0 l 0.11,0.19 0.05,-0.26 v 0.13 l 0.02,-0.13 0.02,-0.12 0.01,-0.15 v 0 0.2 l 0.06,-0.19 v 0.07 l 0.02,-0.02 0.07,0.11 0.07,0.13 v 0 l 0.02,-0.1 v 0 0.15 l 0.12,0.12 0.04,0.11 0.09,0.06 0.06,0.03 v 0.12 l 0.14,0.06 v 0.01 0.12 l 0.07,-0.05 0.02,-0.12 v 0.06 l 0.05,0.06 v 0.03 l 0.04,-0.03 0.14,0.3 0.04,-0.02 0.07,0.06 v 0 l 0.06,-0.29 v 0.26 0.04 l 0.07,-0.42 0.03,0.09 0.08,0.05 0.05,-0.04 v 0 0.09 l 0.04,-0.11 h 0.01 l 0.19,0.05 v 0.08 0 0.14 0.08 0.09 l 0.05,-0.4 v 0.12 l 0.11,0.02 h 0.03 l 0.06,-0.08 0.11,0.17 0.07,0.04 0.05,-0.03 v 0.16 l 0.04,-0.57 v 0.1 0.25 0.07 l 0.05,-0.41 0.07,-0.38 v 0.03 0.26 0.17 l 0.08,-0.54 V 70 70 l 0.01,-0.12 0.08,-0.07 0.03,-0.2 0.06,-0.15 v 0.17 l 0.02,-0.4 v 0.05 0.09 L 55,68.99 v 0.18 l 0.07,-0.13 v 0.05 L 55.11,69 v 0.11 l 0.05,-0.25 v 0.12 l 0.09,-0.18 v 0.11 l 0.11,0.06 0.05,-0.11 v 0.11 0.08 l 0.11,-0.09 0.07,-0.04 0.06,-0.03 0.02,-0.23 v 0.18 l 0.2,-0.25 v 0.12 0.21 l 0.09,-0.53 v 0.09 0.17 l 0.21,0.07 0.02,-0.28 v 0.26 l 0.09,-0.35 v 0.11 0.1 l 0.02,-0.4 v 0.15 l 0.11,-0.15 0.16,0.21 0.05,0.07 0.15,0.13 0.11,0.02 v 0.15 l 0.19,0.05 0.13,0.02 0.07,-0.19 v 0.01 l 0.2,0.24 v 0.09 l 0.14,0.12 0.02,-0.02 0.18,0.16 0.04,-0.07 0.16,0.21 0.06,0.02 0.03,-0.2 v 0.06 l 0.38,0.43 0.18,0.08 0.04,-0.12 0.12,0.04 h 0.04 l 0.05,-0.05 0.22,0.19 0.14,0.05 0.09,-0.02 0.02,-0.08 0.25,0.27 0.08,-0.03 0.12,0.1 0.2,0.19 0.2,0.21 0.2,0.05 v 0.19 l 0.03,-0.2 0.17,0.18 0.18,0.14 0.25,0.18 0.09,0.06 0.13,0.12 0.1,0.01 0.09,-0.07 0.22,0.09 0.06,-0.19 v 0.15 l 0.05,-0.19 0.27,0.26 0.18,0.16 0.14,0.09 0.08,-0.1 0.41,0.5 0.16,0.09 0.09,0.01 h 0.09 l 0.24,0.13 0.23,0.21 0.08,-0.07 0.18,-0.05 0.27,0.14 0.25,0.17 0.14,-0.02 0.31,0.3 0.2,0.13 0.07,-0.02 0.23,0.18 0.13,0.02 0.18,0.08 0.07,-0.1 0.27,0.09 0.4,0.39 0.2,0.07 0.41,0.39 0.29,0.22 0.13,-0.04 0.43,0.4 0.22,0.13 0.38,0.24 0.38,0.32 0.12,-0.06 0.18,0.1 0.16,0.13 0.08,-0.07 0.21,0.11 0.45,0.33 0.24,0.16 0.22,0.1 0.18,0.06 0.32,0.21 0.36,0.22 0.31,0.17 0.27,0.03 0.27,0.1 0.27,0.1 0.25,0.02 0.24,0.07 0.28,0.06 0.22,0.05 0.52,0.34 0.62,0.35 0.54,0.37 0.68,0.39 0.49,0.21 0.56,0.27 0.42,0.16 0.5,0.28 0.58,0.28 0.23,0.04 0.43,0.24 0.58,0.18 0.38,0.13 0.67,0.41 0.56,0.21 0.66,0.38 1.21,0.76 0.54,0.24 0.69,0.35 0.74,0.41 0.54,0.19 1.05,0.6 0.48,0.13 0.85,0.4 0.65,0.2 1.03,0.55 1.03,0.48 0.86,0.38 1.59,0.85 0.69,0.21 2.2,1.13 0.74,0.25 1.76,0.74 0.8,0.3 2.07,0.88 0.83,0.23 2.49,1.12 1.06,0.41 3.11,1.26 1.24,0.46 2.58,1.01 2.6,1.03 0.72,0.27 1.24,0.43 v 0 0.04" />
          <path
             inkscape:connector-curvature="0"
             id="path7587"
             style="fill:none;stroke:#1a1a1a;stroke-width:1.60000002;stroke-linecap:butt;stroke-linejoin:round;stroke-miterlimit:1;stroke-dasharray:none;stroke-opacity:1"
             d="m 64.34,112.44 v 0 0 0 0 0 0 0 0 0 0 0 0 0 0 0 0 0 0 0 0 0 0 0 0 0 0 0 0 0 0 0 0 0 0 0 0 0 0 0 0 0 0 0 0 0 0 0 0 0 0 0 0 0 0 0 0 0 0 0 0 0 0 0 0 0 0 0 0 0 0 0 0 0 0 0 0 0 0 0 0 0 0 0 0 0 0 0 0 0 0 0 0 0 0 0 0 0 0 0 0 0 0 0 0 0 0 0 0 0 0 0 0 0 0 0 0 0 0 0 0 0 0 0 0 0 0 0 0 0 0 0 0 0 0 0 0 0 0 0 0 0 0 0 0 0 0 0 0 0 0 0 0 0 0 0 0 0 0 0 0 0 0 0 0 0 0 0 0 l 0.33,-0.09 v 0 0 l 0.2,0.31 3.06,4.2 3.12,2.21 1.32,-1.63 1.69,-5.45 2.02,-1.38 1.45,-1.83 1.39,0.18 1.55,-0.29 1.37,-0.56 1.86,-0.29 2.16,-0.1 2.44,0.16 2.09,-0.91 2.34,-0.57 2.35,-0.82 2.54,-0.59 3.55,-1.18 4.26,-0.58 4.35,-0.78 4.8,-1.14 6.47,-1.71 4.08,-2.53 v 0 0 0 0" />
        </g>
      </g>
      <g
         id="g7589" />
      <g
         id="g7591" />
      <g
         id="g7593" />
      <g
         id="g7595" />
      <g
         id="g7597" />
      <g
         id="g7599" />
      <g
         id="g7601" />
      <g
         id="g7603" />
      <g
         id="g7605" />
      <g
         id="g7607" />
      <g
         id="g7609" />
      <g
         id="g7611" />
      <g
         id="g7613">
        <path
           inkscape:connector-curvature="0"
           id="path7615"
           style="fill:none;stroke:#000000;stroke-width:1.07000005;stroke-linecap:butt;stroke-linejoin:round;stroke-miterlimit:10;stroke-dasharray:none;stroke-opacity:1"
           d="M 39.03,35.88 V 171.37" />
      </g>
      <g
         id="g7617" />
      <g
         id="g7619" />
      <g
         id="g7621">
        <text
           id="text7625"
           style="font-variant:normal;font-weight:normal;font-size:9px;font-family:Helvetica;-inkscape-font-specification:Helvetica;writing-mode:lr-tb;fill:#4d4d4d;fill-opacity:1;fill-rule:nonzero;stroke:none"
           transform="matrix(1,0,0,-1,29.09,38.81)">
          <tspan
             id="tspan7623"
             y="0"
             x="0">0</tspan>
        </text>
        <text
           id="text7629"
           style="font-variant:normal;font-weight:normal;font-size:9px;font-family:Helvetica;-inkscape-font-specification:Helvetica;writing-mode:lr-tb;fill:#4d4d4d;fill-opacity:1;fill-rule:nonzero;stroke:none"
           transform="matrix(1,0,0,-1,24.09,69.6)">
          <tspan
             id="tspan7627"
             sodipodi:role="line"
             y="0"
             x="0 5.0040002">25</tspan>
        </text>
        <text
           id="text7633"
           style="font-variant:normal;font-weight:normal;font-size:9px;font-family:Helvetica;-inkscape-font-specification:Helvetica;writing-mode:lr-tb;fill:#4d4d4d;fill-opacity:1;fill-rule:nonzero;stroke:none"
           transform="matrix(1,0,0,-1,24.09,100.4)">
          <tspan
             id="tspan7631"
             sodipodi:role="line"
             y="0"
             x="0 5.0040002">50</tspan>
        </text>
        <text
           id="text7637"
           style="font-variant:normal;font-weight:normal;font-size:9px;font-family:Helvetica;-inkscape-font-specification:Helvetica;writing-mode:lr-tb;fill:#4d4d4d;fill-opacity:1;fill-rule:nonzero;stroke:none"
           transform="matrix(1,0,0,-1,24.09,131.19)">
          <tspan
             id="tspan7635"
             sodipodi:role="line"
             y="0"
             x="0 5.0040002">75</tspan>
        </text>
        <text
           id="text7641"
           style="font-variant:normal;font-weight:normal;font-size:9px;font-family:Helvetica;-inkscape-font-specification:Helvetica;writing-mode:lr-tb;fill:#4d4d4d;fill-opacity:1;fill-rule:nonzero;stroke:none"
           transform="matrix(1,0,0,-1,19.08,161.98)">
          <tspan
             id="tspan7639"
             sodipodi:role="line"
             y="0"
             x="0 5.0040002 10.008">100</tspan>
        </text>
      </g>
      <g
         id="g7643" />
      <g
         id="g7645">
        <path
           inkscape:connector-curvature="0"
           id="path7647"
           style="fill:none;stroke:#333333;stroke-width:1.07000005;stroke-linecap:butt;stroke-linejoin:round;stroke-miterlimit:10;stroke-dasharray:none;stroke-opacity:1"
           d="m 36.29,42.04 h 2.74" />
        <path
           inkscape:connector-curvature="0"
           id="path7649"
           style="fill:none;stroke:#333333;stroke-width:1.07000005;stroke-linecap:butt;stroke-linejoin:round;stroke-miterlimit:10;stroke-dasharray:none;stroke-opacity:1"
           d="m 36.29,72.83 h 2.74" />
        <path
           inkscape:connector-curvature="0"
           id="path7651"
           style="fill:none;stroke:#333333;stroke-width:1.07000005;stroke-linecap:butt;stroke-linejoin:round;stroke-miterlimit:10;stroke-dasharray:none;stroke-opacity:1"
           d="m 36.29,103.63 h 2.74" />
        <path
           inkscape:connector-curvature="0"
           id="path7653"
           style="fill:none;stroke:#333333;stroke-width:1.07000005;stroke-linecap:butt;stroke-linejoin:round;stroke-miterlimit:10;stroke-dasharray:none;stroke-opacity:1"
           d="m 36.29,134.42 h 2.74" />
        <path
           inkscape:connector-curvature="0"
           id="path7655"
           style="fill:none;stroke:#333333;stroke-width:1.07000005;stroke-linecap:butt;stroke-linejoin:round;stroke-miterlimit:10;stroke-dasharray:none;stroke-opacity:1"
           d="m 36.29,165.21 h 2.74" />
      </g>
      <g
         id="g7657" />
      <g
         id="g7659" />
      <g
         id="g7661" />
      <g
         id="g7663" />
      <g
         id="g7665" />
      <g
         id="g7667" />
      <g
         id="g7669">
        <path
           inkscape:connector-curvature="0"
           id="path7671"
           style="fill:none;stroke:#000000;stroke-width:1.07000005;stroke-linecap:butt;stroke-linejoin:round;stroke-miterlimit:10;stroke-dasharray:none;stroke-opacity:1"
           d="M 39.03,35.88 H 174.52" />
      </g>
      <g
         id="g7673" />
      <g
         id="g7675" />
      <g
         id="g7677">
        <path
           inkscape:connector-curvature="0"
           id="path7679"
           style="fill:none;stroke:#333333;stroke-width:1.07000005;stroke-linecap:butt;stroke-linejoin:round;stroke-miterlimit:10;stroke-dasharray:none;stroke-opacity:1"
           d="m 45.19,33.14 v 2.74" />
        <path
           inkscape:connector-curvature="0"
           id="path7681"
           style="fill:none;stroke:#333333;stroke-width:1.07000005;stroke-linecap:butt;stroke-linejoin:round;stroke-miterlimit:10;stroke-dasharray:none;stroke-opacity:1"
           d="m 81.26,33.14 v 2.74" />
        <path
           inkscape:connector-curvature="0"
           id="path7683"
           style="fill:none;stroke:#333333;stroke-width:1.07000005;stroke-linecap:butt;stroke-linejoin:round;stroke-miterlimit:10;stroke-dasharray:none;stroke-opacity:1"
           d="m 117.34,33.14 v 2.74" />
        <path
           inkscape:connector-curvature="0"
           id="path7685"
           style="fill:none;stroke:#333333;stroke-width:1.07000005;stroke-linecap:butt;stroke-linejoin:round;stroke-miterlimit:10;stroke-dasharray:none;stroke-opacity:1"
           d="m 153.41,33.14 v 2.74" />
      </g>
      <g
         id="g7687" />
      <g
         id="g7689">
        <text
           id="text7693"
           style="font-variant:normal;font-weight:normal;font-size:9px;font-family:Helvetica;-inkscape-font-specification:Helvetica;writing-mode:lr-tb;fill:#4d4d4d;fill-opacity:1;fill-rule:nonzero;stroke:none"
           transform="matrix(1,0,0,-1,42.69,24.49)">
          <tspan
             id="tspan7691"
             y="0"
             x="0">0</tspan>
        </text>
        <text
           id="text7697"
           style="font-variant:normal;font-weight:normal;font-size:9px;font-family:Helvetica;-inkscape-font-specification:Helvetica;writing-mode:lr-tb;fill:#4d4d4d;fill-opacity:1;fill-rule:nonzero;stroke:none"
           transform="matrix(1,0,0,-1,71.25,24.49)">
          <tspan
             id="tspan7695"
             sodipodi:role="line"
             y="0"
             x="0 5.0040002 10.008 15.012">2000</tspan>
        </text>
        <text
           id="text7701"
           style="font-variant:normal;font-weight:normal;font-size:9px;font-family:Helvetica;-inkscape-font-specification:Helvetica;writing-mode:lr-tb;fill:#4d4d4d;fill-opacity:1;fill-rule:nonzero;stroke:none"
           transform="matrix(1,0,0,-1,107.33,24.49)">
          <tspan
             id="tspan7699"
             sodipodi:role="line"
             y="0"
             x="0 5.0040002 10.008 15.012">4000</tspan>
        </text>
        <text
           id="text7705"
           style="font-variant:normal;font-weight:normal;font-size:9px;font-family:Helvetica;-inkscape-font-specification:Helvetica;writing-mode:lr-tb;fill:#4d4d4d;fill-opacity:1;fill-rule:nonzero;stroke:none"
           transform="matrix(1,0,0,-1,143.4,24.49)">
          <tspan
             id="tspan7703"
             sodipodi:role="line"
             y="0"
             x="0 5.0040002 10.008 15.012">6000</tspan>
        </text>
      </g>
      <g
         id="g7707" />
      <g
         id="g7709" />
      <g
         id="g7711" />
      <g
         id="g7713" />
      <g
         id="g7715" />
      <g
         id="g7717">
        <text
           id="text7721"
           style="font-variant:normal;font-weight:normal;font-size:11px;font-family:Helvetica;-inkscape-font-specification:Helvetica;writing-mode:lr-tb;fill:#000000;fill-opacity:1;fill-rule:nonzero;stroke:none"
           transform="matrix(1,0,0,-1,40.25,11.11)">
          <tspan
             id="tspan7719"
             sodipodi:role="line"
             y="0"
             x="0 5.401 9.2290001 15.345 21.461 24.518999 30.635 36.750999 42.250999 44.693001 47.750999 50.193001 55.417999 61.534 64.592003 70.092003 73.754997 79.871002 85.371002 90.871002 93.313004 95.754997 101.871 107.371 110.429 115.929 118.371 121.429 127.545">True positive crosslink sites</tspan>
        </text>
      </g>
      <g
         id="g7723" />
      <g
         id="g7725">
        <text
           id="text7729"
           style="font-variant:normal;font-weight:normal;font-size:11px;font-family:Helvetica;-inkscape-font-specification:Helvetica;writing-mode:lr-tb;fill:#000000;fill-opacity:1;fill-rule:nonzero;stroke:none"
           transform="matrix(0,1,1,0,13.38,74.59)">
          <tspan
             id="tspan7727"
             sodipodi:role="line"
             y="0"
             x="0 7.3369999 11 17.115999 22.615999 25.058001 30.558001 33 39.116001 45.231998 48.290001">Precision %</tspan>
        </text>
      </g>
      <g
         id="g7731" />
      <g
         id="g7733" />
      <g
         id="g7735" />
      <g
         id="g7737" />
      <g
         id="g7739" />
      <g
         id="g7741" />
      <g
         id="g7743" />
      <g
         id="g7745" />
      <g
         id="g7747" />
      <g
         id="g7749" />
      <g
         id="g7751" />
    </g>
    <g
       transform="matrix(0.35277777,0,0,-0.35277777,-16.419866,180.5851)"
       inkscape:label="bench_sim.pr.SIM_SET_FIX10.HMM_SET8.cs"
       id="g7924">
      <g
         id="g7926" />
      <g
         id="g7928" />
      <g
         id="g7930" />
      <g
         id="g7932" />
      <g
         id="g7934" />
      <g
         id="g7936" />
      <g
         id="g7938" />
      <g
         id="g7940" />
      <g
         id="g7942" />
      <g
         id="g7944" />
      <g
         id="g7946" />
      <g
         id="g7948">
        <g
           clip-path="url(#clipPath7954)"
           id="g7950">
          <path
             inkscape:connector-curvature="0"
             id="path7956"
             style="fill:#ffffff;fill-opacity:1;fill-rule:nonzero;stroke:#ffffff;stroke-width:1.07000005;stroke-linecap:round;stroke-linejoin:round;stroke-miterlimit:10;stroke-dasharray:none;stroke-opacity:1"
             d="M 0,3.15 H 180 V 176.86 H 0 Z" />
        </g>
      </g>
      <g
         id="g7958" />
      <g
         id="g7960">
        <g
           clip-path="url(#clipPath7966)"
           id="g7962">
          <path
             inkscape:connector-curvature="0"
             id="path7968"
             style="fill:#ffffff;fill-opacity:1;fill-rule:nonzero;stroke:none"
             d="M 39.03,35.88 H 174.52 V 171.37 H 39.03 Z" />
          <path
             inkscape:connector-curvature="0"
             id="path7970"
             style="fill:none;stroke:#008b45;stroke-width:1.60000002;stroke-linecap:butt;stroke-linejoin:round;stroke-miterlimit:1;stroke-dasharray:none;stroke-opacity:1"
             d="m 46.92,153.59 0.02,0.11 v 0 l 0.01,0.11 0.04,0.21 0.05,0.29 v 0 l 0.06,0.29 0.02,0.09 0.02,0.09 v 0 l 0.01,0.08 0.04,0.18 0.02,0.08 0.05,0.24 0.02,0.08 0.05,0.23 0.06,0.21 0.02,0.07 0.01,0.07 0.02,0.07 0.02,0.07 v 0 l 0.04,0.13 0.07,0.25 0.11,0.35 0.03,0.11 0.06,0.16 0.03,0.11 0.06,0.15 v 0 l 0.01,0.05 v 0 l 0.08,0.19 0.03,0.09 0.02,0.04 v 0 l 0.02,0.05 0.04,0.09 0.09,0.21 0.05,0.12 0.02,0.03 v 0 l 0.02,0.04 0.01,0.04 0.06,-0.52 0.03,0.08 v 0 l 0.06,0.12 0.03,0.07 0.06,-0.49 0.05,0.12 0.04,0.07 0.03,0.08 0.02,0.03 0.06,0.11 0.07,0.14 0.02,0.03 0.09,0.16 0.07,0.13 0.03,0.06 0.06,0.09 0.11,0.17 0.09,-0.36 0.03,0.05 0.04,0.06 0.11,0.16 0.05,0.08 0.06,0.08 v 0 l 0.09,0.12 0.07,0.09 v 0 l 0.03,0.05 0.04,0.04 0.07,-0.77 0.09,0.12 0.11,0.15 0.2,0.24 0.05,0.06 0.13,0.15 0.04,0.04 0.18,0.19 0.07,-0.29 0.12,-0.23 0.08,0.08 0.07,-0.27 0.07,-0.61 0.11,0.13 0.09,0.1 0.23,0.24 0.11,0.11 0.18,0.17 0.22,0.19 0.13,-0.18 0.07,-0.22 0.18,0.16 0.21,0.18 0.24,0.18 0.31,0.23 0.21,-0.35 0.2,-0.1 0.16,-0.12 0.24,-0.52 0.2,-0.29 h 0.28 l 0.17,0.11 0.34,-0.16 0.45,-0.28 0.13,0.09 0.47,0.12 0.16,-0.43 0.41,0.27 0.35,-0.63 0.48,-0.65 0.45,-0.01 0.56,-0.23 0.49,-0.12 0.41,-0.56 0.78,-0.04 0.63,0.13 0.63,-0.12 0.58,-0.14 0.76,-0.15 0.5,-0.46 0.85,0.23 0.96,0.27 0.83,0.01 1.04,0.18 0.85,-0.41 0.79,-0.32 1.28,-0.4 1.01,-0.54 0.91,-0.47 0.88,-0.45 1.1,-0.82 1.03,-0.84 0.92,-0.65 1.39,-0.36 1.55,-0.91 1.08,-1.02 1.05,-0.96 1.89,-1.28 1.33,-1.31 1.07,-1.68 1.62,-1.85 1.79,-3 1.17,-2.86 1.39,-3.74 2,-4.66 1.28,-5.71 v 0" />
          <path
             inkscape:connector-curvature="0"
             id="path7972"
             style="fill:none;stroke:#7f7f7f;stroke-width:1.60000002;stroke-linecap:butt;stroke-linejoin:round;stroke-miterlimit:1;stroke-dasharray:none;stroke-opacity:1"
             d="m 45.82,89.42 0.05,1.38 v 0 0.51 l 0.02,0.25 v 0 l 0.02,0.25 0.03,0.46 v 0 0 l 0.04,0.9 v 0.49 l 0.02,-0.3 0.02,-0.27 0.03,1.27 0.02,0.62 0.02,0.15 0.02,-0.74 v 1.34 l 0.02,-1.19 0.03,-0.94 v 0.4 0.41 l 0.02,-1.05 0.02,0.16 0.02,-0.6 v 0.74 0 0 l 0.01,-1.31 v 0.36 0.36 l 0.04,-0.06 0.04,-2.33 v 0.63 0.64 1.34 l 0.05,-1.21 0.04,-0.32 v 0.3 0 0.3 l 0.01,-0.46 0.04,-0.02 0.04,0.84 0.03,-0.04 0.02,-0.7 v 0.54 l 0.04,0.24 0.01,-1.7 v 0.25 0.51 1.32 l 0.02,-2.45 0.04,0.74 0.02,0.12 0.05,1.07 0.05,0.55 0.02,0.1 0.02,-1.29 0.02,-1.21 v 0.87 l 0.05,-0.75 0.04,0.01 0.07,1.01 0.04,-0.01 0.11,0.91 0.07,0.71 0.03,0.53 0.04,-0.05 0.09,0.52 v 0.37 l 0.02,-0.67 0.03,-0.05 0.04,0.48 0.07,0.24 0.07,0.22 0.04,0.11 0.02,0.05 0.02,-0.93 v 0.65 l 0.07,-0.27 0.05,0.32 0.09,0.4 0.04,-0.36 v 0.61 l 0.05,-0.02 0.08,0.62 0.05,0.12 0.05,-0.03 0.13,0.26 0.07,0.14 0.09,0.72 0.07,-0.28 0.13,0.86 0.04,-0.08 0.1,-0.1 0.11,0.15 0.09,0.12 0.11,0.38 0.09,-0.24 0.13,0.26 0.07,-0.03 0.16,0.06 0.13,-0.08 0.16,0.07 0.2,0.78 0.09,-0.13 0.16,0.51 0.13,0.28 0.03,-0.99 0.24,0.36 0.14,0.1 0.22,0.39 0.09,-0.68 0.34,0.61 0.24,0.43 0.16,-0.58 0.2,0.03 0.18,0.24 0.3,0.34 0.46,0.38 0.32,-0.32 0.25,-0.09 0.54,0.14 0.58,0.35 0.65,0.58 0.56,-0.37 0.49,-0.47 0.7,0.39 0.72,-0.25 0.74,0.12 0.83,0.2 0.97,0.06 1.23,0.76 1.34,-0.16 1.69,0.23 1.66,-0.65 2.16,-0.29 2.28,-0.03 2.76,-0.7 3.42,-0.63 4.35,-1.26 6.19,-1.62 8.62,-2.62 12.52,-3.52 20.23,-5 39.54,-6.62 v 0 0 0 0" />
          <path
             inkscape:connector-curvature="0"
             id="path7974"
             style="fill:none;stroke:#ff4500;stroke-width:1.60000002;stroke-linecap:butt;stroke-linejoin:round;stroke-miterlimit:1;stroke-dasharray:none;stroke-opacity:1"
             d="m 61.15,127.47 v 0 0 0 0 0 0 0 0 0 0 0 0 0 0 0 0 0 0 0 0 0 0 0 0 0 0 0 0 0 0 0 0 0 0 0 0 0 0 0 0 0 0 0 0 0 0 0 0 0 0 0 0 0 0 0 0 0 0 0 0 0 0 0 0 0 0 0 0 0 0 0 0 0 0 0 0 0 0 0 0 0 0 0 0 0 0 0 0 0 0 0 0 0 0 0 0 0 0 0 0 0 0 0 0 0 0 0 0 0 0 0 0 0 0 0 0 0 0 0 0 0 0 0 0 0 0 0 0 0 0 0 0 0 0 0 0 0 0 0 0 0 0 0 0 0 0 0 0 0 0 0 0 0 0 0 0 0 0 0 0 0 0 0 0 0 0 0 0 l 0.14,-0.29 v 0 0 l 0.18,0.29 3.11,4.28 3.1,1.77 1.21,-0.4 1.64,-4.89 1.23,-3.79 0.77,-3.71 0.78,-1.66 0.75,-0.83 0.74,-1.29 0.87,-0.59 0.9,-0.8 1.19,-0.96 1.16,-1.25 0.83,-1.24 1.1,-1.34 1.15,-0.93 1.37,-1.7 1.25,-1.62 1.19,-1.52 1.26,-2.44 1.75,-2.18 1.32,-2.39 v 0 0 0 0" />
          <path
             inkscape:connector-curvature="0"
             id="path7976"
             style="fill:none;stroke:#ffa500;stroke-width:1.60000002;stroke-linecap:butt;stroke-linejoin:round;stroke-miterlimit:1;stroke-dasharray:none;stroke-opacity:1"
             d="m 60.12,118.55 0.87,0.45 0.76,-0.14 0.5,-0.41 0.65,-1.47 1.6,0.27 1,-1 0.79,-1.35 0.7,-0.95 1.3,-0.74 0.69,-0.84 2.34,-1.76 0.81,-1.46 1.21,-1.55 1.32,-3.13 1.26,-2.19 3.86,-1.69 2.74,-0.96 2.37,-2.34 2.99,-0.25 2.26,0.95 v 0 0 0 0 0 0 0" />
          <path
             inkscape:connector-curvature="0"
             id="path7978"
             style="fill:none;stroke:#5d478b;stroke-width:1.60000002;stroke-linecap:butt;stroke-linejoin:round;stroke-miterlimit:1;stroke-dasharray:none;stroke-opacity:1"
             d="m 62.65,131.96 v 0 0 0 0 0 0 0 0 0 0 0 0 0 0 0 0 0 0 0 0 0 0 0 0 0 0 0 0 0 0 0 0 0 0 0 0 0 0 0 0 0 0 0 0 0 0 0 0 0 0 0 0 0 0 0 0 0 0 0 0 0 0 0 0 0 0 0 0 0 0 0 0 0 0 0 0 0 0 0 0 0 0 0 0 0 0 0 0 0 0 0 0 0 0 0 0 0 0 0 0 0 0 0 0 0 0 0 0 0 0 0 0 0 0 0 0 0 0 0 0 0 0 0 0 0 0 0 0 0 0 0 0 0 0 0 0 0 0 0 0 0 0 0 0 0 0 0 0 0 0 0 0 0 0 0 0 0 0 0 0 0 0 0 0 0 0 0 0 l 0.25,-0.19 v 0 0 l 0.16,0.22 3.05,3.56 3.07,1.57 1.2,-0.48 1.95,-4.22 1.63,-3.33 1.24,-2.84 1.35,-1.31 1.36,-0.45 1.26,-0.94 1.6,-0.2 1.97,-0.15 2.22,-0.71 2.02,-1.2 2.07,-1.04 1.97,-1.33 2.15,-0.9 3.06,-1.5 3.66,-1.07 3.85,-1.16 4.43,-2.12 5.9,-1.89 3.12,-3.1 v 0 0 0 0" />
          <path
             inkscape:connector-curvature="0"
             id="path7980"
             style="fill:none;stroke:#9370db;stroke-width:1.60000002;stroke-linecap:butt;stroke-linejoin:round;stroke-miterlimit:1;stroke-dasharray:none;stroke-opacity:1"
             d="m 47.44,74.66 v 0 0 0 0 0 0 0 0 0 0 0 0 0 0 0 0 0 0 0 0 0 0 0 0 0 0 0 0 0 0 0 0 0 0 0 0 0 0 0 0 0 0 0 0 0 0 0 0 0 0 0 0 0 0 0 0 0 0 0 0 0 0 0 0 0 0 0 0 0 0 0 0 0 0 0 0 0 0 0 0 0 0 0 0 0 0 0 l 0.02,0.19 v 0 0 0 0 l 0.05,0.57 v 0 l 0.04,0.03 v 0 0 0 0.35 0 0 0 0 0 0 L 47.6,76 v 0 0 0 l 0.06,0.55 v 0 0 0 0 0 l 0.05,-0.23 v 0 0 0 0 0.56 0.21 0 0 0 0 l 0.02,-0.59 v 0 0 0 0 l 0.13,1.21 v 0 0 0 0 0 0 0 0 0 0 0 0 l 0.03,-0.41 v 0 0 0 0 0 0.27 0 0 0 0.49 0 0 0 0 l 0.02,-0.59 v 0 l 0.07,0.66 v 0 0 0 0 l 0.04,-0.21 0.02,0.16 v 0 l 0.02,0.16 v 0 0 0 0 l 0.07,0.04 v 0 0.26 0.34 0 0 l 0.02,-1.28 v 0.51 0 0.33 0 0 0 0 l 0.07,-0.22 v 0 0 l 0.05,-0.11 v 0.37 0.19 0 0 0 l 0.06,-0.12 0.09,-0.01 v 0.37 l 0.05,0.06 0.09,0.58 v 0.13 0 l 0.07,0.18 v 0 0 0.25 l 0.06,-0.26 v 0.24 0 0 0.18 l 0.03,-1.43 v 0.28 0 0 0 0.23 0.35 0.3 0 0.12 0 l 0.04,-1.02 v 0 0 0 l 0.03,-0.51 v 0 0 0.33 0 0 0.45 l 0.06,-0.72 v 0 0 0 0.11 0 0 0.21 0 l 0.05,-0.05 v 0 0 0 0.11 0 0 l 0.07,0.39 v 0 l 0.08,0.49 v 0 l 0.07,0.27 v 0 0 0 0 0 0 0 0.22 0 l 0.04,-0.09 v 0.11 l 0.01,0.01 v 0 0 0 0 0 l 0.08,0.48 v 0 0 0 l 0.09,-0.33 v 0.11 0 0.53 l 0.01,-0.78 v 0 0 0.26 0 L 49.37,80.24 49.39,80 v 0 l 0.07,0.45 v 0 l 0.09,0.4 0.04,0.22 v 0 0 0 0 0 l 0.05,-0.17 v 0.2 0.2 0.1 l 0.06,-1.2 v 0.38 0 0 0 0 0.39 0 0.25 l 0.07,-0.7 v 0 0 l 0.07,0.18 v 0 0 l 0.04,0.16 v 0 0 0 l 0.07,0.41 v 0 0 0 l 0.03,0.2 0.04,-0.78 v 0.32 0 0 0 0.24 0.18 0.24 l 0.13,-0.7 v 0 0.28 0 0 l 0.07,0.07 v 0 l 0.04,-0.74 v 0 0 0 0 0.09 0.26 0 0 0 0.58 0 l 0.01,-1.8 v 0.33 0.64 l 0.08,-0.6 0.07,-0.2 v 0 0 0 0.12 0.28 l 0.03,-0.38 0.02,0.01 v 0 0 l 0.07,0.2 v 0 0 0.16 l 0.02,-0.23 v 0 l 0.04,-0.75 v 0.42 l 0.02,-0.82 v 0.23 0 0.11 l 0.05,-0.19 v 0.11 0 l 0.04,0.06 0.05,0.25 v 0 l 0.02,0.05 v 0 l 0.09,0.42 0.05,-0.97 v 0.21 0.17 0 0 0.73 0 0 0.11 l 0.02,-1.18 0.07,0.05 0.08,-0.92 v 0.13 0.33 0.27 0 0.27 l 0.09,-0.61 0.07,0.02 0.03,-0.52 v 0.35 0 0.13 l 0.04,-0.45 v 0.12 l 0.07,-0.01 v 0 0 l 0.02,-0.2 0.18,0.67 h 0.05 v 0.13 0.09 h 0.06 l 0.07,0.13 0.09,0.36 0.04,-0.23 v 0.24 0.13 0 l 0.05,-0.43 v 0.18 l 0.09,0.08 0.06,0.14 v 0.03 0 l 0.07,0.09 0.05,-0.15 v 0.06 0.27 l 0.11,-0.07 0.13,0.05 v 0.2 l 0.01,-0.25 0.04,-0.01 v 0.14 l 0.02,-0.39 v 0.09 l 0.05,0.05 v 0 l 0.02,-0.02 0.07,-0.27 v 0.22 l 0.07,-0.29 v 0 0.21 0 l 0.08,-0.21 0.03,-0.03 0.04,0.12 0.11,0.2 0.11,0.23 0.03,-0.06 v 0 0.1 l 0.09,0.17 0.06,0.17 v 0 h 0.05 v 0 l 0.05,0.12 0.08,0.1 0.03,0.09 0.07,-0.19 v 0.11 l 0.06,-0.39 v 0.13 0.07 l 0.07,-0.25 0.05,-0.08 0.04,0.04 0.05,-0.41 v 0.31 l 0.06,-0.17 0.04,-0.09 0.09,0.13 0.12,-0.05 v 0.12 0.12 0 0.09 0.05 l 0.06,-0.26 v 0.04 l 0.1,0.2 0.04,-0.08 v 0.14 l 0.11,0.08 v 0.02 l 0.05,-0.44 v 0.03 l 0.09,-0.32 v 0.06 0.22 l 0.06,-0.26 v 0.13 l 0.14,-0.92 v 0.17 0.02 0.33 0.04 0.21 0.3 l 0.02,-1.83 v 0.19 0.42 l 0.09,-0.43 0.09,0.06 0.05,-0.04 v 0.04 0.04 l 0.09,-0.23 v 0.08 l 0.08,-0.03 v 0.1 l 0.03,-0.15 v 0.05 l 0.07,-0.17 v 0.09 l 0.04,-0.07 v 0.05 l 0.11,0.22 0.03,-0.26 v 0.11 0.12 l 0.11,-0.17 0.07,-0.02 0.06,-0.03 0.02,-0.33 v 0.29 l 0.07,-0.53 v 0.02 0.21 l 0.09,-0.5 v 0.32 l 0.05,-0.23 0.27,0.52 0.09,0.16 0.09,-0.01 0.02,-0.39 v 0.13 0.21 l 0.06,-0.3 0.01,-0.22 v 0.23 l 0.22,0.22 0.07,-0.34 v 0.3 l 0.18,0.03 0.09,-0.1 0.15,0.13 0.05,-0.34 v 0.13 0.22 l 0.09,-0.18 0.07,0.04 0.09,-0.09 0.08,0.04 0.16,0.19 0.09,0.19 0.16,0.2 0.11,0.11 0.14,0.09 0.04,0.05 0.29,0.48 0.07,0.04 h 0.05 l 0.13,-0.01 0.02,-0.14 0.05,-0.04 0.38,0.43 0.02,-0.02 h 0.07 l 0.15,0.16 0.18,0.12 0.11,-0.05 0.14,0.25 0.07,0.04 0.25,0.26 0.24,0.23 0.02,-0.06 0.03,-0.04 0.24,0.2 0.16,0.1 0.22,-0.05 v 0.22 l 0.09,-0.27 0.12,0.08 0.11,-0.01 0.27,0.29 0.09,-0.01 0.04,-0.06 0.07,-0.12 0.23,0.3 0.17,0.18 0.18,0.24 0.21,0.23 0.22,0.18 0.23,0.18 0.02,-0.17 0.13,-0.1 0.2,0.17 0.16,0.09 0.11,-0.01 0.14,0.09 0.34,0.27 0.18,0.12 0.19,0.05 0.27,0.19 0.23,0.17 0.05,-0.12 0.22,0.23 0.22,0.11 0.23,0.27 0.13,0.07 0.27,0.24 0.29,0.24 0.18,0.09 0.21,0.18 0.15,0.04 0.23,0.07 0.49,0.4 0.18,-0.05 0.45,0.36 0.33,0.16 0.1,0.03 0.15,0.01 0.18,0.19 0.16,0.03 0.31,0.17 0.47,0.37 0.23,0.17 0.13,0.01 0.34,0.26 0.31,0.12 0.21,0.04 0.2,0.14 0.36,0.16 0.29,0.14 0.22,-0.03 0.32,0.15 0.22,0.08 0.25,0.09 0.24,0.02 0.59,0.47 0.6,0.39 0.57,0.39 0.67,0.45 0.52,0.33 0.47,0.28 0.44,0.24 0.32,0.19 0.69,0.47 0.3,0.09 0.47,0.24 0.47,0.13 0.43,0.26 0.76,0.53 0.56,0.23 0.72,0.45 1.23,0.79 0.52,0.32 0.56,0.26 0.76,0.34 0.65,0.3 1.08,0.59 0.34,0.04 0.9,0.49 0.49,0.13 1.08,0.66 1.05,0.56 0.85,0.4 1.51,0.85 0.7,0.21 2.19,1.08 0.72,0.22 1.84,0.77 0.7,0.23 2.13,0.86 0.85,0.21 2.45,1.1 0.99,0.35 3.14,1.26 1.19,0.42 2.62,1.02 2.74,1.08 0.58,0.22 1.24,0.37 v 0 0.06" />
          <path
             inkscape:connector-curvature="0"
             id="path7982"
             style="fill:none;stroke:#1a1a1a;stroke-width:1.60000002;stroke-linecap:butt;stroke-linejoin:round;stroke-miterlimit:1;stroke-dasharray:none;stroke-opacity:1"
             d="m 63.95,131.5 v 0 0 0 0 0 0 0 0 0 0 0 0 0 0 0 0 0 0 0 0 0 0 0 0 0 0 0 0 0 0 0 0 0 0 0 0 0 0 0 0 0 0 0 0 0 0 0 0 0 0 0 0 0 0 0 0 0 0 0 0 0 0 0 0 0 0 0 0 0 0 0 0 0 0 0 0 0 0 0 0 0 0 0 0 0 0 0 0 0 0 0 0 0 0 0 0 0 0 0 0 0 0 0 0 0 0 0 0 0 0 0 0 0 0 0 0 0 0 0 0 0 0 0 0 0 0 0 0 0 0 0 0 0 0 0 0 0 0 0 0 0 0 0 0 0 0 0 0 0 0 0 0 0 0 0 0 0 0 0 0 0 0 0 0 0 0 0 0 l 0.27,-0.15 v 0 0 l 0.18,0.23 3.15,3.48 3.18,1.31 1.3,-0.43 2.11,-4.4 1.8,-3.25 1.44,-3.06 1.48,-1.26 1.55,-0.33 1.41,-1 1.82,-0.14 2.18,-0.09 2.42,-0.56 2.24,-1.03 2.27,-0.92 2.24,-1.23 2.4,-0.85 3.6,-1.24 4.33,-0.86 4.39,-1.05 4.96,-2.05 6.36,-1.85 3.95,-3.1 v 0 0 0 0" />
        </g>
      </g>
      <g
         id="g7984" />
      <g
         id="g7986" />
      <g
         id="g7988" />
      <g
         id="g7990" />
      <g
         id="g7992" />
      <g
         id="g7994" />
      <g
         id="g7996" />
      <g
         id="g7998" />
      <g
         id="g8000" />
      <g
         id="g8002" />
      <g
         id="g8004" />
      <g
         id="g8006" />
      <g
         id="g8008">
        <path
           inkscape:connector-curvature="0"
           id="path8010"
           style="fill:none;stroke:#000000;stroke-width:1.07000005;stroke-linecap:butt;stroke-linejoin:round;stroke-miterlimit:10;stroke-dasharray:none;stroke-opacity:1"
           d="M 39.03,35.88 V 171.37" />
      </g>
      <g
         id="g8012" />
      <g
         id="g8014" />
      <g
         id="g8016">
        <text
           id="text8020"
           style="font-variant:normal;font-weight:normal;font-size:9px;font-family:Helvetica;-inkscape-font-specification:Helvetica;writing-mode:lr-tb;fill:#4d4d4d;fill-opacity:1;fill-rule:nonzero;stroke:none"
           transform="matrix(1,0,0,-1,29.09,38.81)">
          <tspan
             id="tspan8018"
             y="0"
             x="0">0</tspan>
        </text>
        <text
           id="text8024"
           style="font-variant:normal;font-weight:normal;font-size:9px;font-family:Helvetica;-inkscape-font-specification:Helvetica;writing-mode:lr-tb;fill:#4d4d4d;fill-opacity:1;fill-rule:nonzero;stroke:none"
           transform="matrix(1,0,0,-1,24.09,69.6)">
          <tspan
             id="tspan8022"
             sodipodi:role="line"
             y="0"
             x="0 5.0040002">25</tspan>
        </text>
        <text
           id="text8028"
           style="font-variant:normal;font-weight:normal;font-size:9px;font-family:Helvetica;-inkscape-font-specification:Helvetica;writing-mode:lr-tb;fill:#4d4d4d;fill-opacity:1;fill-rule:nonzero;stroke:none"
           transform="matrix(1,0,0,-1,24.09,100.4)">
          <tspan
             id="tspan8026"
             sodipodi:role="line"
             y="0"
             x="0 5.0040002">50</tspan>
        </text>
        <text
           id="text8032"
           style="font-variant:normal;font-weight:normal;font-size:9px;font-family:Helvetica;-inkscape-font-specification:Helvetica;writing-mode:lr-tb;fill:#4d4d4d;fill-opacity:1;fill-rule:nonzero;stroke:none"
           transform="matrix(1,0,0,-1,24.09,131.19)">
          <tspan
             id="tspan8030"
             sodipodi:role="line"
             y="0"
             x="0 5.0040002">75</tspan>
        </text>
        <text
           id="text8036"
           style="font-variant:normal;font-weight:normal;font-size:9px;font-family:Helvetica;-inkscape-font-specification:Helvetica;writing-mode:lr-tb;fill:#4d4d4d;fill-opacity:1;fill-rule:nonzero;stroke:none"
           transform="matrix(1,0,0,-1,19.08,161.98)">
          <tspan
             id="tspan8034"
             sodipodi:role="line"
             y="0"
             x="0 5.0040002 10.008">100</tspan>
        </text>
      </g>
      <g
         id="g8038" />
      <g
         id="g8040">
        <path
           inkscape:connector-curvature="0"
           id="path8042"
           style="fill:none;stroke:#333333;stroke-width:1.07000005;stroke-linecap:butt;stroke-linejoin:round;stroke-miterlimit:10;stroke-dasharray:none;stroke-opacity:1"
           d="m 36.29,42.04 h 2.74" />
        <path
           inkscape:connector-curvature="0"
           id="path8044"
           style="fill:none;stroke:#333333;stroke-width:1.07000005;stroke-linecap:butt;stroke-linejoin:round;stroke-miterlimit:10;stroke-dasharray:none;stroke-opacity:1"
           d="m 36.29,72.83 h 2.74" />
        <path
           inkscape:connector-curvature="0"
           id="path8046"
           style="fill:none;stroke:#333333;stroke-width:1.07000005;stroke-linecap:butt;stroke-linejoin:round;stroke-miterlimit:10;stroke-dasharray:none;stroke-opacity:1"
           d="m 36.29,103.63 h 2.74" />
        <path
           inkscape:connector-curvature="0"
           id="path8048"
           style="fill:none;stroke:#333333;stroke-width:1.07000005;stroke-linecap:butt;stroke-linejoin:round;stroke-miterlimit:10;stroke-dasharray:none;stroke-opacity:1"
           d="m 36.29,134.42 h 2.74" />
        <path
           inkscape:connector-curvature="0"
           id="path8050"
           style="fill:none;stroke:#333333;stroke-width:1.07000005;stroke-linecap:butt;stroke-linejoin:round;stroke-miterlimit:10;stroke-dasharray:none;stroke-opacity:1"
           d="m 36.29,165.21 h 2.74" />
      </g>
      <g
         id="g8052" />
      <g
         id="g8054" />
      <g
         id="g8056" />
      <g
         id="g8058" />
      <g
         id="g8060" />
      <g
         id="g8062" />
      <g
         id="g8064">
        <path
           inkscape:connector-curvature="0"
           id="path8066"
           style="fill:none;stroke:#000000;stroke-width:1.07000005;stroke-linecap:butt;stroke-linejoin:round;stroke-miterlimit:10;stroke-dasharray:none;stroke-opacity:1"
           d="M 39.03,35.88 H 174.52" />
      </g>
      <g
         id="g8068" />
      <g
         id="g8070" />
      <g
         id="g8072">
        <path
           inkscape:connector-curvature="0"
           id="path8074"
           style="fill:none;stroke:#333333;stroke-width:1.07000005;stroke-linecap:butt;stroke-linejoin:round;stroke-miterlimit:10;stroke-dasharray:none;stroke-opacity:1"
           d="m 45.19,33.14 v 2.74" />
        <path
           inkscape:connector-curvature="0"
           id="path8076"
           style="fill:none;stroke:#333333;stroke-width:1.07000005;stroke-linecap:butt;stroke-linejoin:round;stroke-miterlimit:10;stroke-dasharray:none;stroke-opacity:1"
           d="m 81.26,33.14 v 2.74" />
        <path
           inkscape:connector-curvature="0"
           id="path8078"
           style="fill:none;stroke:#333333;stroke-width:1.07000005;stroke-linecap:butt;stroke-linejoin:round;stroke-miterlimit:10;stroke-dasharray:none;stroke-opacity:1"
           d="m 117.34,33.14 v 2.74" />
        <path
           inkscape:connector-curvature="0"
           id="path8080"
           style="fill:none;stroke:#333333;stroke-width:1.07000005;stroke-linecap:butt;stroke-linejoin:round;stroke-miterlimit:10;stroke-dasharray:none;stroke-opacity:1"
           d="m 153.41,33.14 v 2.74" />
      </g>
      <g
         id="g8082" />
      <g
         id="g8084">
        <text
           id="text8088"
           style="font-variant:normal;font-weight:normal;font-size:9px;font-family:Helvetica;-inkscape-font-specification:Helvetica;writing-mode:lr-tb;fill:#4d4d4d;fill-opacity:1;fill-rule:nonzero;stroke:none"
           transform="matrix(1,0,0,-1,42.69,24.49)">
          <tspan
             id="tspan8086"
             y="0"
             x="0">0</tspan>
        </text>
        <text
           id="text8092"
           style="font-variant:normal;font-weight:normal;font-size:9px;font-family:Helvetica;-inkscape-font-specification:Helvetica;writing-mode:lr-tb;fill:#4d4d4d;fill-opacity:1;fill-rule:nonzero;stroke:none"
           transform="matrix(1,0,0,-1,71.25,24.49)">
          <tspan
             id="tspan8090"
             sodipodi:role="line"
             y="0"
             x="0 5.0040002 10.008 15.012">2000</tspan>
        </text>
        <text
           id="text8096"
           style="font-variant:normal;font-weight:normal;font-size:9px;font-family:Helvetica;-inkscape-font-specification:Helvetica;writing-mode:lr-tb;fill:#4d4d4d;fill-opacity:1;fill-rule:nonzero;stroke:none"
           transform="matrix(1,0,0,-1,107.33,24.49)">
          <tspan
             id="tspan8094"
             sodipodi:role="line"
             y="0"
             x="0 5.0040002 10.008 15.012">4000</tspan>
        </text>
        <text
           id="text8100"
           style="font-variant:normal;font-weight:normal;font-size:9px;font-family:Helvetica;-inkscape-font-specification:Helvetica;writing-mode:lr-tb;fill:#4d4d4d;fill-opacity:1;fill-rule:nonzero;stroke:none"
           transform="matrix(1,0,0,-1,143.4,24.49)">
          <tspan
             id="tspan8098"
             sodipodi:role="line"
             y="0"
             x="0 5.0040002 10.008 15.012">6000</tspan>
        </text>
      </g>
      <g
         id="g8102" />
      <g
         id="g8104" />
      <g
         id="g8106" />
      <g
         id="g8108" />
      <g
         id="g8110" />
      <g
         id="g8112">
        <text
           id="text8116"
           style="font-variant:normal;font-weight:normal;font-size:11px;font-family:Helvetica;-inkscape-font-specification:Helvetica;writing-mode:lr-tb;fill:#000000;fill-opacity:1;fill-rule:nonzero;stroke:none"
           transform="matrix(1,0,0,-1,40.25,11.11)">
          <tspan
             id="tspan8114"
             sodipodi:role="line"
             y="0"
             x="0 5.401 9.2290001 15.345 21.461 24.518999 30.635 36.750999 42.250999 44.693001 47.750999 50.193001 55.417999 61.534 64.592003 70.092003 73.754997 79.871002 85.371002 90.871002 93.313004 95.754997 101.871 107.371 110.429 115.929 118.371 121.429 127.545">True positive crosslink sites</tspan>
        </text>
      </g>
      <g
         id="g8118" />
      <g
         id="g8120">
        <text
           id="text8124"
           style="font-variant:normal;font-weight:normal;font-size:11px;font-family:Helvetica;-inkscape-font-specification:Helvetica;writing-mode:lr-tb;fill:#000000;fill-opacity:1;fill-rule:nonzero;stroke:none"
           transform="matrix(0,1,1,0,13.38,74.59)">
          <tspan
             id="tspan8122"
             sodipodi:role="line"
             y="0"
             x="0 7.3369999 11 17.115999 22.615999 25.058001 30.558001 33 39.116001 45.231998 48.290001">Precision %</tspan>
        </text>
      </g>
      <g
         id="g8126" />
      <g
         id="g8128" />
      <g
         id="g8130" />
      <g
         id="g8132" />
      <g
         id="g8134" />
      <g
         id="g8136" />
      <g
         id="g8138" />
      <g
         id="g8140" />
      <g
         id="g8142" />
      <g
         id="g8144" />
      <g
         id="g8146" />
    </g>
    <text
       xml:space="preserve"
       style="font-style:normal;font-weight:normal;font-size:10.58333302px;line-height:1.25;font-family:sans-serif;letter-spacing:0px;word-spacing:0px;fill:#000000;fill-opacity:1;stroke:none;stroke-width:0.26458332"
       x="-88.449478"
       y="117.10411"
       id="text5272"><tspan
         sodipodi:role="line"
         id="tspan5270"
         x="-88.449478"
         y="117.10411"
         style="font-size:7.76111126px;stroke-width:0.26458332">a</tspan></text>
    <text
       xml:space="preserve"
       style="font-style:normal;font-weight:normal;font-size:10.58333302px;line-height:1.25;font-family:sans-serif;letter-spacing:0px;word-spacing:0px;fill:#000000;fill-opacity:1;stroke:none;stroke-width:0.26458332"
       x="-17.124733"
       y="117.10411"
       id="text5272-3"><tspan
         sodipodi:role="line"
         id="tspan5270-8"
         x="-17.124733"
         y="117.10411"
         style="font-size:7.76111126px;stroke-width:0.26458332">b</tspan></text>
    <text
       xml:space="preserve"
       style="font-style:normal;font-weight:normal;font-size:10.58333302px;line-height:1.25;font-family:sans-serif;letter-spacing:0px;word-spacing:0px;fill:#000000;fill-opacity:1;stroke:none;stroke-width:0.26458332"
       x="54.715401"
       y="117.10411"
       id="text5272-0"><tspan
         sodipodi:role="line"
         id="tspan5270-2"
         x="54.715401"
         y="117.10411"
         style="font-size:7.76111126px;stroke-width:0.26458332">c</tspan></text>
  </g>
</svg>
